STARTFONT 2.1
COMMENT
COMMENT Converted from OpenType font "Q:\font stuff\winfont\TeutonWeiss-Bold.otf" by "otf2bdf 3.0".
COMMENT
FONT -FreeType-Teuton Weiss-Bold-R-Normal--132-1320-72-72-P-454-ISO10646-1
SIZE 132 72 72
FONTBOUNDINGBOX 115 140 -6 -29
STARTPROPERTIES 19
FOUNDRY "FreeType"
FAMILY_NAME "Teuton Weiss"
WEIGHT_NAME "Bold"
SLANT "R"
SETWIDTH_NAME "Normal"
ADD_STYLE_NAME ""
PIXEL_SIZE 132
POINT_SIZE 1320
RESOLUTION_X 72
RESOLUTION_Y 72
SPACING "P"
AVERAGE_WIDTH 454
CHARSET_REGISTRY "ISO10646"
CHARSET_ENCODING "1"
FONT_ASCENT 111
FONT_DESCENT 28
COPYRIGHT "Copyright Copr. 2001, Frantisek Storm, www.stormtype.com. All rights reserved."
_OTF_FONTFILE "Q:\font stuff\winfont\TeutonWeiss-Bold.otf"
_OTF_PSNAME "TeutonWeiss-Bold"
ENDPROPERTIES
CHARS 356
STARTCHAR 0020
ENCODING 32
SWIDTH 265 0
DWIDTH 35 0
BBX 0 0 0 0
BITMAP
ENDCHAR
STARTCHAR 0021
ENCODING 33
SWIDTH 196 0
DWIDTH 26 0
BBX 10 92 8 1
BITMAP
FFC0
FFC0
FFC0
FFC0
FFC0
FFC0
FFC0
FFC0
FFC0
FFC0
FFC0
FFC0
FFC0
FFC0
FFC0
FFC0
FFC0
FFC0
FFC0
FFC0
FFC0
FFC0
FFC0
FFC0
FFC0
FFC0
FFC0
FFC0
FFC0
FFC0
FFC0
FFC0
FFC0
FFC0
FFC0
FFC0
FFC0
FFC0
FFC0
FFC0
FFC0
FFC0
FFC0
FFC0
FFC0
FFC0
FFC0
FFC0
FFC0
FFC0
FFC0
FFC0
FFC0
FFC0
FFC0
FFC0
FFC0
FFC0
FFC0
FFC0
FFC0
FFC0
FFC0
FFC0
FFC0
FFC0
FFC0
FFC0
FFC0
FFC0
FFC0
FFC0
0000
0000
0000
0000
0000
0000
0000
0000
0000
0000
FFC0
FFC0
FFC0
FFC0
FFC0
FFC0
FFC0
FFC0
FFC0
FFC0
ENDCHAR
STARTCHAR 0022
ENCODING 34
SWIDTH 295 0
DWIDTH 39 0
BBX 22 22 9 69
BITMAP
FF03FC
FF01FC
FF01FC
FF01FC
FE01FC
FE01FC
FE01FC
FE01FC
FE01FC
FE01FC
FE01FC
FE01FC
FE01FC
FE01FC
FE01FC
FE01FC
FE01FC
FE01FC
FE01FC
FE01FC
FE01FC
FE01FC
ENDCHAR
STARTCHAR 0023
ENCODING 35
SWIDTH 500 0
DWIDTH 66 0
BBX 60 92 3 1
BITMAP
00000FF80000FF80
00000FF80000FF80
00000FF00000FF80
00001FF00000FF00
00001FF00001FF00
00001FF00001FF00
00001FF00001FF00
00001FF00001FF00
00003FE00001FF00
00003FE00003FE00
00003FE00003FE00
00003FE00003FE00
00003FE00003FE00
00003FC00003FE00
00007FC00003FC00
00007FC00007FC00
00007FC00007FC00
00007FC00007FC00
00007FC00007FC00
00007F800007FC00
0000FF80000FF800
0000FF80000FF800
0000FF80000FF800
0000FF80000FF800
0000FF80000FF800
0001FF00000FF800
03FFFFFFFFFFFFF0
03FFFFFFFFFFFFF0
03FFFFFFFFFFFFF0
03FFFFFFFFFFFFF0
03FFFFFFFFFFFFF0
03FFFFFFFFFFFFF0
03FFFFFFFFFFFFF0
03FFFFFFFFFFFFF0
0003FE00003FE000
0003FE00003FE000
0003FC00003FC000
0007FC00007FC000
0007FC00007FC000
0007FC00007FC000
0007FC00007FC000
0007FC00007FC000
000FF800007F8000
000FF80000FF8000
000FF80000FF8000
000FF80000FF8000
000FF80000FF8000
000FF00000FF8000
001FF00000FF0000
001FF00001FF0000
001FF00001FF0000
001FF00001FF0000
001FF00001FF0000
001FE00001FF0000
003FE00001FE0000
003FE00003FE0000
003FE00003FE0000
003FE00003FE0000
003FC00003FE0000
007FC00003FC0000
FFFFFFFFFFFFFC00
FFFFFFFFFFFFFC00
FFFFFFFFFFFFFC00
FFFFFFFFFFFFFC00
FFFFFFFFFFFFFC00
FFFFFFFFFFFFFC00
FFFFFFFFFFFFFC00
FFFFFFFFFFFFFC00
00FF80000FF80000
00FF80000FF80000
00FF00000FF80000
01FF00001FF00000
01FF00001FF00000
01FF00001FF00000
01FF00001FF00000
01FE00001FF00000
03FE00001FE00000
03FE00003FE00000
03FE00003FE00000
03FE00003FE00000
03FE00003FE00000
03FC00003FE00000
07FC00003FC00000
07FC00007FC00000
07FC00007FC00000
07FC00007FC00000
07FC00007FC00000
07F800007FC00000
0FF800007F800000
0FF80000FF800000
0FF80000FF800000
0FF80000FF800000
ENDCHAR
STARTCHAR 0024
ENCODING 36
SWIDTH 409 0
DWIDTH 54 0
BBX 38 92 8 0
BITMAP
0000FF0000
0000FF0000
0000FF0000
0000FF0000
0000FF0000
0000FF0000
0000FF0000
0000FF0000
0000FF0000
0000FF0000
0000FF0000
0000FF0000
0000FF0000
03FFFFFFFC
0FFFFFFFFC
1FFFFFFFFC
3FFFFFFFFC
7FFFFFFFFC
7FFFFFFFFC
7FFFFFFFFC
FFFFFFFFFC
FFE0000004
FFC0000000
FF80000000
FF80000000
FF80000000
FF80000000
FF80000000
FF80000000
FF80000000
FF80000000
FFC0000000
FFE0000000
7FF0000000
7FFC000000
7FFE000000
3FFF800000
1FFFC00000
0FFFE00000
03FFF80000
01FFFC0000
007FFF0000
003FFF8000
001FFFE000
0007FFF000
0003FFF800
0000FFFE00
00007FFF00
00003FFFC0
00000FFFE0
000007FFF0
000001FFF8
000000FFF8
0000007FF8
0000001FFC
0000000FFC
00000007FC
00000007FC
00000007FC
00000007FC
00000007FC
00000007FC
00000007FC
00000007FC
00000007FC
00000007FC
00000007FC
00000007FC
00000007FC
0000000FFC
8000001FFC
FFFFFFFFFC
FFFFFFFFFC
FFFFFFFFF8
FFFFFFFFF8
FFFFFFFFF0
FFFFFFFFE0
FFFFFFFFC0
FFFFFFFF00
0000FF0000
0000FF0000
0000FF0000
0000FF0000
0000FF0000
0000FF0000
0000FF0000
0000FF0000
0000FF0000
0000FF0000
0000FF0000
0000FF0000
0000FF0000
ENDCHAR
STARTCHAR 0025
ENCODING 37
SWIDTH 598 0
DWIDTH 79 0
BBX 66 92 7 0
BITMAP
00FFF80000000FF800
03FFFF0000001FF000
0FFFFF8000001FF000
1FFFFFC000003FE000
3FFFFFE000003FE000
3FFFFFF000007FC000
7FFFFFF000007FC000
7FC01FF00000FF8000
FF0007F80000FF8000
FF0007F80001FF0000
FE0003F80001FF0000
FE0003F80003FE0000
FE0003F80003FE0000
FE0003F80007FC0000
FE0003F80007FC0000
FE0003F8000FF80000
FE0003F8000FF80000
FE0003F8001FF00000
FE0003F8001FF00000
FE0003F8003FE00000
FE0003F8003FE00000
FE0003F8007FC00000
FE0003F8007FC00000
FE0003F800FF800000
FE0003F801FF800000
FE0003F801FF000000
FE0003F803FF000000
FE0003F803FE000000
FE0003F807FE000000
FE0003F807FC000000
FE0003F80FFC000000
FE0003F80FF8000000
FE0003F81FF0000000
FE0003F81FF0000000
FF0007F83FE0000000
FF800FF83FE0000000
7FC01FF07FC0000000
7FFFFFF07FC0000000
7FFFFFE0FF80000000
3FFFFFE0FF80000000
1FFFFFC1FF00000000
0FFFFF81FF00000000
07FFFE03FE00000000
00FFF803FE00000000
00000007FC00000000
00000007FC00000000
0000000FF800000000
0000000FF807FFC000
0000001FF01FFFF800
0000001FF07FFFFC00
0000003FE0FFFFFE00
0000003FE1FFFFFF00
0000007FC1FFFFFF00
0000007FC3FFFFFF80
000000FF83FE00FF80
000000FF87FC007FC0
000001FF07F8003FC0
000001FF07F0001FC0
000003FE07F0001FC0
000007FE07F0001FC0
000007FC07F0001FC0
00000FFC07F0001FC0
00000FF807F0001FC0
00001FF007F0001FC0
00001FF007F0001FC0
00003FE007F0001FC0
00003FE007F0001FC0
00007FC007F0001FC0
00007FC007F0001FC0
0000FF8007F0001FC0
0000FF8007F0001FC0
0001FF0007F0001FC0
0001FF0007F0001FC0
0003FE0007F0001FC0
0003FE0007F0001FC0
0007FC0007F0001FC0
0007FC0007F0001FC0
000FF80007F0001FC0
000FF80007F0001FC0
001FF00007F0001FC0
001FF00007F0001FC0
003FE00007F0001FC0
003FE00007F8003FC0
007FC00007FC007FC0
007FC00003FE00FF80
00FF800003FFFFFF80
00FF800001FFFFFF00
01FF000001FFFFFF00
01FF000000FFFFFE00
03FE0000007FFFFC00
03FE0000003FFFF000
07FC00000007FFC000
ENDCHAR
STARTCHAR 0026
ENCODING 38
SWIDTH 643 0
DWIDTH 85 0
BBX 69 92 10 0
BITMAP
007FFFFFFFFF000000
03FFFFFFFFFF000000
0FFFFFFFFFFF000000
1FFFFFFFFFFF000000
3FFFFFFFFFFF000000
7FFFFFFFFFFF000000
7FFFFFFFFFFF000000
7FFFFFFFFFFF000000
FFFFFFFFFFFF000000
FFF000000000000000
FFE000000000000000
FFC000000000000000
FFC000000000000000
FFC000000000000000
FFC000000000000000
FFC000000000000000
FFC000000000000000
FFC000000000000000
FFC000000000000000
FFC000000000000000
FFC000000000000000
FFC000000000000000
FFC000000000000000
FFC000000000000000
FFC000000000000000
FFC000000000000000
7FC000000000020000
7FC000000000060000
3FC0000000000E0000
3FC0000000003E0000
0FE0000000007E0000
07F000000000FE0000
00F800000001FE0000
007FFFFFFFFFFFFFF8
03FFFFFFFFFFFFFFF8
0FFFFFFFFFFFFFFFF8
1FFFFFFFFFFFFFFFF8
1FFFFFFFFFFFFFFFF8
3FFFFFFFFFFFFFFFF8
7FFFFFFFFFFFFFFFF8
7FFFFFFFFFFFFFFFF8
7FF800000003FE0000
FFF000000003FE0000
FFE000000003FE0000
FFC000000003FE0000
FFC000000003FE0000
FFC000000003FE0000
FFC000000003FE0000
FFC000000003FE0000
FFC000000003FE0000
FFC000000003FE0000
FFC000000003FE0000
FFC000000003FE0000
FFC000000003FE0000
FFC000000003FE0000
FFC000000003FE0000
FFC000000003FE0000
FFC000000003FE0000
FFC000000003FE0000
FFC000000003FE0000
FFC000000003FE0000
FFC000000003FE0000
FFC000000003FE0000
FFC000000003FE0000
FFC000000003FE0000
FFC000000003FE0000
FFC000000003FE0000
FFC000000003FE0000
FFC000000003FE0000
FFC000000003FE0000
FFC000000003FE0000
FFC000000003FE0000
FFC000000003FE0000
FFC000000003FE0000
FFC000000003FE0000
FFC000000003FE0000
FFC000000003FE0000
FFC000000003FE0000
FFC000000003FE0000
FFC000000003FE0000
FFE000000003FE0000
FFE000000003FE0000
7FF000000003FF0000
7FFE00001C03FFE0F8
7FFFFFFFFC01FFFFF8
3FFFFFFFFC01FFFFF8
3FFFFFFFFC01FFFFF8
1FFFFFFFFC00FFFFF8
1FFFFFFFFC00FFFFF8
07FFFFFFFC007FFFF8
03FFFFFFFC001FFFF8
007FFFFFFC0007FFF8
ENDCHAR
STARTCHAR 0027
ENCODING 39
SWIDTH 204 0
DWIDTH 27 0
BBX 8 21 9 70
BITMAP
FF
FF
FF
FF
FF
FF
FF
FF
FF
FF
FF
FF
FF
FF
FF
FF
FF
FF
FF
FF
FF
ENDCHAR
STARTCHAR 0028
ENCODING 40
SWIDTH 325 0
DWIDTH 43 0
BBX 26 118 10 -26
BITMAP
00003FC0
0007FFC0
003FFFC0
00FFFFC0
03FFFFC0
07FFFFC0
0FFFFFC0
0FFFFFC0
1FFFF800
3FFF0000
3FF80000
3FF00000
7FE00000
7FE00000
7FC00000
7FC00000
FF800000
FF800000
FF800000
FF800000
FF800000
FF800000
FF800000
FF800000
FF800000
FF800000
FF800000
FF800000
FF800000
FF800000
FF800000
FF800000
FF800000
FF800000
FF800000
FF800000
FF800000
FF800000
FF800000
FF800000
FF800000
FF800000
FF800000
FF800000
FF800000
FF800000
FF800000
FF800000
FF800000
FF800000
FF800000
FF800000
FF800000
FF800000
FF800000
FF800000
FF800000
FF800000
FF800000
FF800000
FF800000
FF800000
FF800000
FF800000
FF800000
FF800000
FF800000
FF800000
FF800000
FF800000
FF800000
FF800000
FF800000
FF800000
FF800000
FF800000
FF800000
FF800000
FF800000
FF800000
FF800000
FF800000
FF800000
FF800000
FF800000
FF800000
FF800000
FF800000
FF800000
FF800000
FF800000
FF800000
FF800000
FF800000
FF800000
FF800000
FF800000
FF800000
FF800000
FF800000
FF800000
FFC00000
7FC00000
7FC00000
7FE00000
7FE00000
3FF00000
3FFC0000
3FFF0000
1FFFF000
0FFFFFC0
0FFFFFC0
07FFFFC0
03FFFFC0
00FFFFC0
003FFFC0
0007FFC0
00003FC0
ENDCHAR
STARTCHAR 0029
ENCODING 41
SWIDTH 325 0
DWIDTH 43 0
BBX 26 118 6 -26
BITMAP
FF800000
FFFC0000
FFFF0000
FFFFC000
FFFFF000
FFFFF800
FFFFFC00
FFFFFC00
0FFFFE00
003FFF00
000FFF00
0003FF00
0001FF80
0001FF80
0000FF80
0000FF80
00007FC0
00007FC0
00007FC0
00007FC0
00007FC0
00007FC0
00007FC0
00007FC0
00007FC0
00007FC0
00007FC0
00007FC0
00007FC0
00007FC0
00007FC0
00007FC0
00007FC0
00007FC0
00007FC0
00007FC0
00007FC0
00007FC0
00007FC0
00007FC0
00007FC0
00007FC0
00007FC0
00007FC0
00007FC0
00007FC0
00007FC0
00007FC0
00007FC0
00007FC0
00007FC0
00007FC0
00007FC0
00007FC0
00007FC0
00007FC0
00007FC0
00007FC0
00007FC0
00007FC0
00007FC0
00007FC0
00007FC0
00007FC0
00007FC0
00007FC0
00007FC0
00007FC0
00007FC0
00007FC0
00007FC0
00007FC0
00007FC0
00007FC0
00007FC0
00007FC0
00007FC0
00007FC0
00007FC0
00007FC0
00007FC0
00007FC0
00007FC0
00007FC0
00007FC0
00007FC0
00007FC0
00007FC0
00007FC0
00007FC0
00007FC0
00007FC0
00007FC0
00007FC0
00007FC0
00007FC0
00007FC0
00007FC0
00007FC0
00007FC0
00007FC0
00007FC0
0000FFC0
0000FF80
0001FF80
0001FF80
0003FF00
0007FF00
001FFF00
03FFFE00
FFFFFC00
FFFFFC00
FFFFF800
FFFFE000
FFFFC000
FFFF0000
FFF80000
FF000000
ENDCHAR
STARTCHAR 002A
ENCODING 42
SWIDTH 431 0
DWIDTH 57 0
BBX 42 39 7 53
BITMAP
00007F800000
00007F800000
00007F000000
00007F000000
00003F000000
00003F000000
00003F000000
00003F000000
00003F000000
00003F000000
20003F000100
38003F000700
3F003F003F00
7FC03F00FF80
7FF83F07FF80
7FFE3F1FFF80
FFFFFFFFFFC0
FFFFFFFFFFC0
1FFFFFFFFC00
01FFFFFFC000
000FFFFC0000
0000FFC00000
0000FFC00000
0001FFE00000
0001FFE00000
0003FFF00000
0007F3F80000
000FE1FC0000
001FE1FE0000
003FC0FF0000
003FC0FF0000
007F807F8000
00FF003FC000
01FF003FE000
03FE001FF000
03FE000FF000
00FC000FC000
007800078000
001800070000
ENDCHAR
STARTCHAR 002B
ENCODING 43
SWIDTH 462 0
DWIDTH 61 0
BBX 46 48 8 15
BITMAP
00001FE00000
00001FE00000
00001FE00000
00001FE00000
00001FE00000
00001FE00000
00001FE00000
00001FE00000
00001FE00000
00001FE00000
00001FE00000
00001FE00000
00001FE00000
00001FE00000
00001FE00000
00001FE00000
00001FE00000
00001FE00000
00001FE00000
00001FE00000
FFFFFFFFFFFC
FFFFFFFFFFFC
FFFFFFFFFFFC
FFFFFFFFFFFC
FFFFFFFFFFFC
FFFFFFFFFFFC
FFFFFFFFFFFC
FFFFFFFFFFFC
00001FE00000
00001FE00000
00001FE00000
00001FE00000
00001FE00000
00001FE00000
00001FE00000
00001FE00000
00001FE00000
00001FE00000
00001FE00000
00001FE00000
00001FE00000
00001FE00000
00001FE00000
00001FE00000
00001FE00000
00001FE00000
00001FE00000
00001FE00000
ENDCHAR
STARTCHAR 002C
ENCODING 44
SWIDTH 204 0
DWIDTH 27 0
BBX 14 29 4 -19
BITMAP
07FC
07FC
07FC
07FC
07FC
07FC
07FC
07FC
07FC
07FC
07FC
07FC
0FF8
0FF8
0FF8
1FF0
1FF0
1FF0
1FE0
3FE0
3FE0
3FC0
3FC0
7FC0
7F80
7F80
FF80
FF00
FF00
ENDCHAR
STARTCHAR 002D
ENCODING 45
SWIDTH 303 0
DWIDTH 40 0
BBX 26 8 7 34
BITMAP
FFFFFFC0
FFFFFFC0
FFFFFFC0
FFFFFFC0
FFFFFFC0
FFFFFFC0
FFFFFFC0
FFFFFFC0
ENDCHAR
STARTCHAR 002E
ENCODING 46
SWIDTH 189 0
DWIDTH 25 0
BBX 10 10 8 1
BITMAP
FFC0
FFC0
FFC0
FFC0
FFC0
FFC0
FFC0
FFC0
FFC0
FFC0
ENDCHAR
STARTCHAR 002F
ENCODING 47
SWIDTH 431 0
DWIDTH 57 0
BBX 57 118 0 -26
BITMAP
000000000003FF80
000000000003FF00
000000000007FF00
000000000007FE00
000000000007FE00
00000000000FFE00
00000000000FFC00
00000000000FFC00
00000000001FFC00
00000000001FF800
00000000003FF800
00000000003FF000
00000000003FF000
00000000007FF000
00000000007FE000
0000000000FFE000
0000000000FFC000
0000000000FFC000
0000000001FFC000
0000000001FF8000
0000000003FF8000
0000000003FF0000
0000000003FF0000
0000000007FF0000
0000000007FE0000
000000000FFE0000
000000000FFC0000
000000000FFC0000
000000001FFC0000
000000001FF80000
000000003FF80000
000000003FF80000
000000003FF00000
000000007FF00000
000000007FE00000
000000007FE00000
00000000FFE00000
00000000FFC00000
00000001FFC00000
00000001FF800000
00000001FF800000
00000003FF800000
00000003FF000000
00000007FF000000
00000007FE000000
00000007FE000000
0000000FFE000000
0000000FFC000000
0000001FFC000000
0000001FFC000000
0000001FF8000000
0000003FF8000000
0000003FF0000000
0000007FF0000000
0000007FF0000000
0000007FE0000000
000000FFE0000000
000000FFC0000000
000000FFC0000000
000001FFC0000000
000001FF80000000
000003FF80000000
000003FF00000000
000003FF00000000
000007FF00000000
000007FE00000000
00000FFE00000000
00000FFC00000000
00000FFC00000000
00001FFC00000000
00001FF800000000
00003FF800000000
00003FF800000000
00003FF000000000
00007FF000000000
00007FE000000000
0000FFE000000000
0000FFE000000000
0000FFC000000000
0001FFC000000000
0001FF8000000000
0003FF8000000000
0003FF8000000000
0003FF0000000000
0007FF0000000000
0007FE0000000000
0007FE0000000000
000FFE0000000000
000FFC0000000000
001FFC0000000000
001FF80000000000
001FF80000000000
003FF80000000000
003FF00000000000
007FF00000000000
007FF00000000000
007FE00000000000
00FFE00000000000
00FFC00000000000
01FFC00000000000
01FFC00000000000
01FF800000000000
03FF800000000000
03FF000000000000
07FF000000000000
07FF000000000000
07FE000000000000
0FFE000000000000
0FFC000000000000
0FFC000000000000
1FFC000000000000
1FF8000000000000
3FF8000000000000
3FF0000000000000
3FF0000000000000
7FF0000000000000
7FE0000000000000
FFE0000000000000
ENDCHAR
STARTCHAR 0030
ENCODING 48
SWIDTH 515 0
DWIDTH 68 0
BBX 47 92 10 0
BITMAP
007FFFFFFC00
03FFFFFFFF80
07FFFFFFFFE0
1FFFFFFFFFF0
1FFFFFFFFFF8
3FFFFFFFFFF8
7FFFFFFFFFFC
7FFFFFFFFFFC
7FFFFFFFFFFC
FFE000001FFE
FFC0000007FE
FFC0000007FE
FF80000003FE
FF80000003FE
FF80000003FE
FF80000003FE
FF80000003FE
FF80000003FE
FF80000003FE
FF80000003FE
FF80000003FE
FF80000003FE
FF80000003FE
FF80000003FE
FF80000003FE
FF80000003FE
FF80000003FE
FF80000003FE
FF80000003FE
FF80000003FE
FF80000003FE
FF80000003FE
FF80000003FE
FF80000003FE
FF80000003FE
FF80000003FE
FF80000003FE
FF80000003FE
FF80000003FE
FF80000003FE
FF80000003FE
FF80000003FE
FF80000003FE
FF80000003FE
FF80000003FE
FF80000003FE
FF80000003FE
FF80000003FE
FF80000003FE
FF80000003FE
FF80000003FE
FF80000003FE
FF80000003FE
FF80000003FE
FF80000003FE
FF80000003FE
FF80000003FE
FF80000003FE
FF80000003FE
FF80000003FE
FF80000003FE
FF80000003FE
FF80000003FE
FF80000003FE
FF80000003FE
FF80000003FE
FF80000003FE
FF80000003FE
FF80000003FE
FF80000003FE
FF80000003FE
FF80000003FE
FF80000003FE
FF80000003FE
FF80000003FE
FF80000003FE
FF80000003FE
FF80000003FE
FF80000003FE
FF80000003FE
FFC0000007FE
FFC0000007FE
FFF000000FFE
7FFFFFFFFFFC
7FFFFFFFFFFC
7FFFFFFFFFFC
3FFFFFFFFFF8
1FFFFFFFFFF8
1FFFFFFFFFF0
07FFFFFFFFE0
03FFFFFFFF80
007FFFFFFC00
ENDCHAR
STARTCHAR 0031
ENCODING 49
SWIDTH 515 0
DWIDTH 68 0
BBX 44 95 13 1
BITMAP
000000100000
000000300000
000000F00000
000001F00000
000007F00000
00001FF00000
00003FF00000
0000FFF00000
0001FFF00000
0007FFF00000
000FFFF00000
003FFFF00000
007FFFF00000
01FFFFF00000
03FFFFF00000
0FFFFFF00000
1FFF9FF00000
7FFF1FF00000
FFFC1FF00000
FFF81FF00000
FFF01FF00000
FFC01FF00000
FF801FF00000
FE001FF00000
FC001FF00000
F0001FF00000
E0001FF00000
80001FF00000
00001FF00000
00001FF00000
00001FF00000
00001FF00000
00001FF00000
00001FF00000
00001FF00000
00001FF00000
00001FF00000
00001FF00000
00001FF00000
00001FF00000
00001FF00000
00001FF00000
00001FF00000
00001FF00000
00001FF00000
00001FF00000
00001FF00000
00001FF00000
00001FF00000
00001FF00000
00001FF00000
00001FF00000
00001FF00000
00001FF00000
00001FF00000
00001FF00000
00001FF00000
00001FF00000
00001FF00000
00001FF00000
00001FF00000
00001FF00000
00001FF00000
00001FF00000
00001FF00000
00001FF00000
00001FF00000
00001FF00000
00001FF00000
00001FF00000
00001FF00000
00001FF00000
00001FF00000
00001FF00000
00001FF00000
00001FF00000
00001FF00000
00001FF00000
00001FF00000
00001FF00000
00001FF00000
00001FF00000
00001FF00000
00001FF00000
00001FF00000
00001FF00000
1FFFFFFFFFF0
1FFFFFFFFFF0
1FFFFFFFFFF0
1FFFFFFFFFF0
1FFFFFFFFFF0
1FFFFFFFFFF0
1FFFFFFFFFF0
1FFFFFFFFFF0
1FFFFFFFFFF0
ENDCHAR
STARTCHAR 0032
ENCODING 50
SWIDTH 515 0
DWIDTH 68 0
BBX 47 92 11 0
BITMAP
FFFFFFFFFC00
FFFFFFFFFF80
FFFFFFFFFFC0
FFFFFFFFFFF0
FFFFFFFFFFF0
FFFFFFFFFFF8
FFFFFFFFFFFC
FFFFFFFFFFFC
FFFFFFFFFFFC
000000001FFE
0000000007FE
0000000007FE
0000000003FE
0000000003FE
0000000003FE
0000000003FE
0000000003FE
0000000003FE
0000000003FE
0000000003FE
0000000003FE
0000000003FE
0000000003FE
0000000003FE
0000000003FE
0000000007FE
0000000007FC
000000000FFC
000000001FFC
000000003FF8
000000007FF8
00000001FFF0
00000003FFE0
00000007FFC0
0000000FFF80
0000001FFF00
0000003FFE00
0000007FFC00
000001FFF800
000003FFE000
000007FFC000
00000FFF8000
00001FFF0000
00003FFE0000
00007FFC0000
0001FFF80000
0003FFE00000
0007FFC00000
000FFF800000
001FFF000000
003FFE000000
007FFC000000
01FFF0000000
03FFE0000000
07FFC0000000
0FFF80000000
1FFF00000000
1FFE00000000
3FFC00000000
7FF000000000
7FE000000000
7FC000000000
FFC000000000
FF8000000000
FF8000000000
FF8000000000
FF8000000000
FF8000000000
FF8000000000
FF8000000000
FF8000000000
FF8000000000
FF8000000000
FF8000000000
FF8000000000
FF8000000000
FF8000000000
FF8000000000
FF8000000000
FF8000000000
FF8000000000
FF8000000000
FF8000000000
FFFFFFFFFFFE
FFFFFFFFFFFE
FFFFFFFFFFFE
FFFFFFFFFFFE
FFFFFFFFFFFE
FFFFFFFFFFFE
FFFFFFFFFFFE
FFFFFFFFFFFE
FFFFFFFFFFFE
ENDCHAR
STARTCHAR 0033
ENCODING 51
SWIDTH 515 0
DWIDTH 68 0
BBX 48 92 9 0
BITMAP
FFFFFFFFFF00
FFFFFFFFFFC0
FFFFFFFFFFF0
FFFFFFFFFFF8
FFFFFFFFFFFC
FFFFFFFFFFFC
FFFFFFFFFFFE
FFFFFFFFFFFE
FFFFFFFFFFFE
0000000007FF
0000000003FF
0000000003FF
0000000001FF
0000000001FF
0000000001FF
0000000001FF
0000000001FF
0000000001FF
0000000001FF
0000000001FF
0000000001FF
0000000001FF
0000000001FF
0000000001FF
0000000001FF
0000000001FF
0000000001FF
0000000001FF
0000000001FF
0000000001FF
0000000001FF
0000000001FF
0000000001FF
0000000001FF
0000000001FF
0000000003FE
0000000003FE
0000000007FC
000000000FFC
01FFFFFFFFF8
01FFFFFFFFF0
01FFFFFFFFE0
01FFFFFFFF00
01FFFFFFFE00
01FFFFFFFFC0
01FFFFFFFFF0
01FFFFFFFFF8
000000001FFC
0000000007FC
0000000003FE
0000000003FE
0000000001FE
0000000001FF
0000000001FF
0000000001FF
0000000001FF
0000000001FF
0000000001FF
0000000001FF
0000000001FF
0000000001FF
0000000001FF
0000000001FF
0000000001FF
0000000001FF
0000000001FF
0000000001FF
0000000001FF
0000000001FF
0000000001FF
0000000001FF
0000000001FF
0000000001FF
0000000001FF
0000000001FF
0000000001FF
0000000001FF
0000000001FF
0000000001FF
0000000001FF
0000000003FF
0000000003FF
000000000FFF
FFFFFFFFFFFE
FFFFFFFFFFFE
FFFFFFFFFFFE
FFFFFFFFFFFC
FFFFFFFFFFF8
FFFFFFFFFFF8
FFFFFFFFFFF0
FFFFFFFFFFC0
FFFFFFFFFE00
ENDCHAR
STARTCHAR 0034
ENCODING 52
SWIDTH 515 0
DWIDTH 68 0
BBX 58 92 6 1
BITMAP
000000007FF00000
000000007FF00000
00000000FFF00000
00000000FFF00000
00000001FFF00000
00000001FFF00000
00000003FFF00000
00000003FFF00000
00000007FFF00000
0000000FFFF00000
0000000FFFF00000
0000001FFFF00000
0000001FFFF00000
0000003FDFF00000
0000003FDFF00000
0000007F9FF00000
000000FF9FF00000
000000FF1FF00000
000001FF1FF00000
000001FE1FF00000
000003FC1FF00000
000003FC1FF00000
000007F81FF00000
000007F81FF00000
00000FF01FF00000
00001FF01FF00000
00001FE01FF00000
00003FE01FF00000
00003FC01FF00000
00007F801FF00000
00007F801FF00000
0000FF001FF00000
0000FF001FF00000
0001FE001FF00000
0003FE001FF00000
0003FC001FF00000
0007F8001FF00000
0007F8001FF00000
000FF0001FF00000
000FF0001FF00000
001FE0001FF00000
001FE0001FF00000
003FC0001FF00000
007FC0001FF00000
007F80001FF00000
00FF00001FF00000
00FF00001FF00000
01FE00001FF00000
01FE00001FF00000
03FC00001FF00000
03FC00001FF00000
07F800001FF00000
0FF000001FF00000
0FF000001FF00000
1FE000001FF00000
1FE000001FF00000
3FC000001FF00000
3FC000001FF00000
7F8000001FF00000
FFFFFFFFFFFFFFC0
FFFFFFFFFFFFFFC0
FFFFFFFFFFFFFFC0
FFFFFFFFFFFFFFC0
FFFFFFFFFFFFFFC0
FFFFFFFFFFFFFFC0
FFFFFFFFFFFFFFC0
FFFFFFFFFFFFFFC0
000000001FF00000
000000001FF00000
000000001FF00000
000000001FF00000
000000001FF00000
000000001FF00000
000000001FF00000
000000001FF00000
000000001FF00000
000000001FF00000
000000001FF00000
000000001FF00000
000000001FF00000
000000001FF00000
000000001FF00000
000000001FF00000
000000001FF00000
000000001FF00000
000000001FF00000
000000001FF00000
000000001FF00000
000000001FF00000
000000001FF00000
000000001FF00000
000000001FF00000
ENDCHAR
STARTCHAR 0035
ENCODING 53
SWIDTH 515 0
DWIDTH 68 0
BBX 47 92 10 0
BITMAP
FFFFFFFFFFFE
FFFFFFFFFFFE
FFFFFFFFFFFE
FFFFFFFFFFFE
FFFFFFFFFFFE
FFFFFFFFFFFE
FFFFFFFFFFFE
FFFFFFFFFFFE
FFFFFFFFFFFE
FF8000000000
FF8000000000
FF8000000000
FF8000000000
FF8000000000
FF8000000000
FF8000000000
FF8000000000
FF8000000000
FF8000000000
FF8000000000
FF8000000000
FF8000000000
FF8000000000
FF8000000000
FF8000000000
FF8000000000
FF8000000000
FF8000000000
FF8000000000
FF8000000000
FF8000000000
FF8000000000
FF8000000000
FF8000000000
FF8000000000
FF8000000000
FF8000000000
FF8000000000
FF8000000000
FFFFFFFFFE00
FFFFFFFFFF80
FFFFFFFFFFE0
FFFFFFFFFFF0
FFFFFFFFFFF8
FFFFFFFFFFF8
FFFFFFFFFFFC
FFFFFFFFFFFC
000000001FFC
000000000FFE
0000000007FE
0000000003FE
0000000003FE
0000000003FE
0000000003FE
0000000003FE
0000000003FE
0000000003FE
0000000003FE
0000000003FE
0000000003FE
0000000003FE
0000000003FE
0000000003FE
0000000003FE
0000000003FE
0000000003FE
0000000003FE
0000000003FE
0000000003FE
0000000003FE
0000000003FE
0000000003FE
0000000003FE
0000000003FE
0000000003FE
0000000003FE
0000000003FE
0000000003FE
0000000003FE
0000000003FE
0000000007FE
0000000007FE
000000000FFE
FFFFFFFFFFFC
FFFFFFFFFFFC
FFFFFFFFFFFC
FFFFFFFFFFF8
FFFFFFFFFFF8
FFFFFFFFFFF0
FFFFFFFFFFE0
FFFFFFFFFF80
FFFFFFFFFC00
ENDCHAR
STARTCHAR 0036
ENCODING 54
SWIDTH 515 0
DWIDTH 68 0
BBX 47 92 10 0
BITMAP
007FFFFFFFFE
03FFFFFFFFFE
07FFFFFFFFFE
0FFFFFFFFFFE
1FFFFFFFFFFE
3FFFFFFFFFFE
7FFFFFFFFFFE
7FFFFFFFFFFE
7FFFFFFFFFFE
FFE000000000
FFC000000000
FFC000000000
FF8000000000
FF8000000000
FF8000000000
FF8000000000
FF8000000000
FF8000000000
FF8000000000
FF8000000000
FF8000000000
FF8000000000
FF8000000000
FF8000000000
FF8000000000
FF8000000000
FF8000000000
FF8000000000
FF8000000000
FF8000000000
FF8000000000
FF8000000000
FF8000000000
FF8000000000
FF8000000000
FF8000000000
FF8000000000
FF8000000000
FF8000000000
FFFFFFFFFE00
FFFFFFFFFF80
FFFFFFFFFFE0
FFFFFFFFFFF0
FFFFFFFFFFF8
FFFFFFFFFFF8
FFFFFFFFFFFC
FFFFFFFFFFFC
FF8000001FFC
FF8000000FFE
FF80000007FE
FF80000003FE
FF80000003FE
FF80000003FE
FF80000003FE
FF80000003FE
FF80000003FE
FF80000003FE
FF80000003FE
FF80000003FE
FF80000003FE
FF80000003FE
FF80000003FE
FF80000003FE
FF80000003FE
FF80000003FE
FF80000003FE
FF80000003FE
FF80000003FE
FF80000003FE
FF80000003FE
FF80000003FE
FF80000003FE
FF80000003FE
FF80000003FE
FF80000003FE
FF80000003FE
FF80000003FE
FF80000003FE
FF80000003FE
FF80000003FE
FFC0000007FE
FFC0000007FE
FFF000000FFE
7FFFFFFFFFFC
7FFFFFFFFFFC
7FFFFFFFFFFC
3FFFFFFFFFF8
1FFFFFFFFFF0
1FFFFFFFFFF0
07FFFFFFFFE0
03FFFFFFFF80
007FFFFFFC00
ENDCHAR
STARTCHAR 0037
ENCODING 55
SWIDTH 515 0
DWIDTH 68 0
BBX 52 92 8 0
BITMAP
FFFFFFFFFFFFF0
FFFFFFFFFFFFF0
FFFFFFFFFFFFF0
FFFFFFFFFFFFF0
FFFFFFFFFFFFF0
FFFFFFFFFFFFF0
FFFFFFFFFFFFF0
FFFFFFFFFFFFF0
80000000003FF0
00000000003FE0
00000000003FE0
00000000007FC0
00000000007FC0
0000000000FFC0
0000000000FF80
0000000000FF80
0000000001FF80
0000000001FF00
0000000003FF00
0000000003FE00
0000000003FE00
0000000007FE00
0000000007FC00
0000000007FC00
000000000FFC00
000000000FF800
000000001FF800
000000001FF800
000000001FF000
000000003FF000
000000003FE000
000000003FE000
000000007FE000
000000007FC000
00000000FFC000
00000000FFC000
00000000FF8000
00000001FF8000
00000001FF0000
00000003FF0000
00000003FF0000
00000003FE0000
00000007FE0000
00000007FE0000
00000007FC0000
0000000FFC0000
0000000FFC0000
0000001FF80000
0000001FF80000
0000001FF00000
0000003FF00000
0000003FF00000
0000007FE00000
0000007FE00000
0000007FE00000
000000FFC00000
000000FFC00000
000000FF800000
000001FF800000
000001FF800000
000003FF000000
000003FF000000
000003FF000000
000007FE000000
000007FE000000
000007FE000000
00000FFC000000
00000FFC000000
00001FF8000000
00001FF8000000
00001FF8000000
00003FF0000000
00003FF0000000
00007FF0000000
00007FE0000000
00007FE0000000
0000FFC0000000
0000FFC0000000
0000FFC0000000
0001FF80000000
0001FF80000000
0003FF80000000
0003FF00000000
0003FF00000000
0007FF00000000
0007FE00000000
000FFE00000000
000FFC00000000
000FFC00000000
001FFC00000000
001FF800000000
001FF800000000
ENDCHAR
STARTCHAR 0038
ENCODING 56
SWIDTH 515 0
DWIDTH 68 0
BBX 47 92 10 0
BITMAP
007FFFFFFE00
03FFFFFFFF80
07FFFFFFFFE0
1FFFFFFFFFF0
1FFFFFFFFFF8
3FFFFFFFFFF8
7FFFFFFFFFFC
7FFFFFFFFFFC
7FF800003FFC
FFE000000FFE
FFC0000007FE
FFC0000007FE
FF80000003FE
FF80000003FE
FF80000003FE
FF80000003FE
FF80000003FE
FF80000003FE
FF80000003FE
FF80000003FE
FF80000003FE
FF80000003FE
FF80000003FE
FF80000003FE
FF80000003FE
FF80000003FE
FF80000003FE
FF80000003FE
FF80000003FE
FF80000003FE
FF80000003FE
FF80000003FE
FF80000003FE
FF80000003FE
7F80000003FE
7FC0000007FC
7FC0000007FC
3FE000000FF8
3FF800003FF8
1FFFFFFFFFF0
0FFFFFFFFFE0
07FFFFFFFFC0
00FFFFFFFE00
007FFFFFFC00
03FFFFFFFF80
0FFFFFFFFFE0
1FFFFFFFFFF0
1FF800003FF8
3FE000000FF8
7FC0000007FC
7FC0000007FC
7F80000003FC
FF80000003FE
FF80000003FE
FF80000003FE
FF80000003FE
FF80000003FE
FF80000003FE
FF80000003FE
FF80000003FE
FF80000003FE
FF80000003FE
FF80000003FE
FF80000003FE
FF80000003FE
FF80000003FE
FF80000003FE
FF80000003FE
FF80000003FE
FF80000003FE
FF80000003FE
FF80000003FE
FF80000003FE
FF80000003FE
FF80000003FE
FF80000003FE
FF80000003FE
FF80000003FE
FF80000003FE
FF80000003FE
FFC0000007FE
FFC0000007FE
FFE000000FFE
7FF800003FFC
7FFFFFFFFFFC
7FFFFFFFFFFC
3FFFFFFFFFF8
1FFFFFFFFFF0
1FFFFFFFFFF0
07FFFFFFFFE0
03FFFFFFFF80
007FFFFFFC00
ENDCHAR
STARTCHAR 0039
ENCODING 57
SWIDTH 515 0
DWIDTH 68 0
BBX 47 92 10 0
BITMAP
007FFFFFFC00
03FFFFFFFF80
07FFFFFFFFE0
1FFFFFFFFFF0
1FFFFFFFFFF8
3FFFFFFFFFF8
7FFFFFFFFFFC
7FFFFFFFFFFC
7FFFFFFFFFFC
FFE000001FFE
FFC0000007FE
FFC0000007FE
FF80000003FE
FF80000003FE
FF80000003FE
FF80000003FE
FF80000003FE
FF80000003FE
FF80000003FE
FF80000003FE
FF80000003FE
FF80000003FE
FF80000003FE
FF80000003FE
FF80000003FE
FF80000003FE
FF80000003FE
FF80000003FE
FF80000003FE
FF80000003FE
FF80000003FE
FF80000003FE
FF80000003FE
FF80000003FE
FF80000003FE
FF80000003FE
FF80000003FE
FFC0000003FE
FFC0000003FE
FFE0000003FE
7FF0000003FE
7FFFFFFFFFFE
7FFFFFFFFFFE
3FFFFFFFFFFE
3FFFFFFFFFFE
1FFFFFFFFFFE
0FFFFFFFFFFE
03FFFFFFFFFE
00FFFFFFFFFE
0000000003FE
0000000003FE
0000000003FE
0000000003FE
0000000003FE
0000000003FE
0000000003FE
0000000003FE
0000000003FE
0000000003FE
0000000003FE
0000000003FE
0000000003FE
0000000003FE
0000000003FE
0000000003FE
0000000003FE
0000000003FE
0000000003FE
0000000003FE
0000000003FE
0000000003FE
0000000003FE
0000000003FE
0000000003FE
0000000003FE
0000000003FE
0000000003FE
0000000003FE
0000000003FE
0000000003FE
0000000007FE
0000000007FE
000000000FFE
FFFFFFFFFFFC
FFFFFFFFFFFC
FFFFFFFFFFFC
FFFFFFFFFFF8
FFFFFFFFFFF0
FFFFFFFFFFF0
FFFFFFFFFFC0
FFFFFFFFFF80
FFFFFFFFFC00
ENDCHAR
STARTCHAR 003A
ENCODING 58
SWIDTH 196 0
DWIDTH 26 0
BBX 10 66 8 0
BITMAP
FFC0
FFC0
FFC0
FFC0
FFC0
FFC0
FFC0
FFC0
FFC0
FFC0
0000
0000
0000
0000
0000
0000
0000
0000
0000
0000
0000
0000
0000
0000
0000
0000
0000
0000
0000
0000
0000
0000
0000
0000
0000
0000
0000
0000
0000
0000
0000
0000
0000
0000
0000
0000
0000
0000
0000
0000
0000
0000
0000
0000
0000
0000
FFC0
FFC0
FFC0
FFC0
FFC0
FFC0
FFC0
FFC0
FFC0
FFC0
ENDCHAR
STARTCHAR 003B
ENCODING 59
SWIDTH 204 0
DWIDTH 27 0
BBX 15 85 4 -19
BITMAP
07FE
07FE
07FE
07FE
07FE
07FE
07FE
07FE
07FE
07FE
0000
0000
0000
0000
0000
0000
0000
0000
0000
0000
0000
0000
0000
0000
0000
0000
0000
0000
0000
0000
0000
0000
0000
0000
0000
0000
0000
0000
0000
0000
0000
0000
0000
0000
0000
0000
0000
0000
0000
0000
0000
0000
0000
0000
0000
0000
07FE
07FE
07FE
07FE
07FE
07FE
07FE
07FE
07FE
07FE
07FE
07FE
0FFC
0FFC
0FFC
0FF8
1FF8
1FF0
1FF0
1FF0
3FE0
3FE0
3FE0
3FC0
7FC0
7F80
7F80
7F80
FF00
ENDCHAR
STARTCHAR 003C
ENCODING 60
SWIDTH 462 0
DWIDTH 61 0
BBX 46 57 7 14
BITMAP
000000000004
00000000001C
00000000007C
0000000001FC
0000000007FC
000000000FFC
000000003FFC
00000000FFFC
00000003FFF0
0000000FFFC0
0000003FFF80
0000007FFE00
000001FFF800
000007FFF000
00001FFFC000
00007FFF0000
0000FFFC0000
0003FFF80000
000FFFE00000
003FFF800000
00FFFF000000
03FFFC000000
07FFF0000000
1FFFC0000000
7FFF80000000
FFFE00000000
FFF800000000
FFF000000000
FFE000000000
FFF800000000
FFFE00000000
FFFF00000000
3FFFC0000000
1FFFF0000000
07FFF8000000
01FFFE000000
007FFF800000
001FFFE00000
000FFFF00000
0003FFFC0000
0000FFFF0000
00003FFF8000
00000FFFE000
000007FFF800
000001FFFC00
0000007FFF00
0000001FFFC0
00000007FFF0
00000001FFF8
00000000FFFC
000000003FFC
000000000FFC
0000000003FC
0000000000FC
00000000007C
00000000001C
000000000004
ENDCHAR
STARTCHAR 003D
ENCODING 61
SWIDTH 462 0
DWIDTH 61 0
BBX 46 36 7 22
BITMAP
FFFFFFFFFFFC
FFFFFFFFFFFC
FFFFFFFFFFFC
FFFFFFFFFFFC
FFFFFFFFFFFC
FFFFFFFFFFFC
FFFFFFFFFFFC
FFFFFFFFFFFC
000000000000
000000000000
000000000000
000000000000
000000000000
000000000000
000000000000
000000000000
000000000000
000000000000
000000000000
000000000000
000000000000
000000000000
000000000000
000000000000
000000000000
000000000000
000000000000
000000000000
FFFFFFFFFFFC
FFFFFFFFFFFC
FFFFFFFFFFFC
FFFFFFFFFFFC
FFFFFFFFFFFC
FFFFFFFFFFFC
FFFFFFFFFFFC
FFFFFFFFFFFC
ENDCHAR
STARTCHAR 003E
ENCODING 62
SWIDTH 462 0
DWIDTH 61 0
BBX 46 57 7 14
BITMAP
800000000000
E00000000000
F80000000000
FE0000000000
FF8000000000
FFE000000000
FFF000000000
FFFC00000000
7FFF00000000
1FFFC0000000
07FFF0000000
03FFF8000000
00FFFE000000
003FFF800000
001FFFE00000
0007FFF80000
0001FFFC0000
00007FFF0000
00003FFFC000
00000FFFF000
000003FFFC00
000001FFFF00
0000007FFF80
0000001FFFE0
0000000FFFF8
00000003FFFC
00000000FFFC
000000007FFC
000000001FFC
000000003FFC
00000000FFFC
00000001FFFC
00000007FFF0
0000001FFFE0
0000007FFF80
000000FFFE00
000003FFF800
00000FFFE000
00001FFFC000
00007FFF0000
0001FFFC0000
0007FFF00000
000FFFC00000
003FFF800000
00FFFE000000
01FFF8000000
07FFE0000000
1FFF80000000
7FFE00000000
FFFC00000000
FFF000000000
FFC000000000
FF0000000000
FC0000000000
F80000000000
E00000000000
800000000000
ENDCHAR
STARTCHAR 003F
ENCODING 63
SWIDTH 401 0
DWIDTH 53 0
BBX 42 92 7 0
BITMAP
FFFFFFFFE000
FFFFFFFFF800
FFFFFFFFFE00
FFFFFFFFFE00
FFFFFFFFFF00
FFFFFFFFFF80
FFFFFFFFFF80
FFFFFFFFFF80
80000007FFC0
00000001FFC0
00000000FFC0
000000007FC0
000000007FC0
000000007FC0
000000007FC0
000000007FC0
000000007FC0
000000007FC0
000000007FC0
000000007FC0
000000007FC0
00000000FFC0
00000000FF80
00000001FF80
00000003FF80
00000007FF00
0000000FFE00
0000001FFE00
0000003FFC00
0000007FF800
000000FFF000
000001FFE000
000003FFC000
000007FF8000
00000FFF0000
00001FFE0000
00003FFC0000
00007FF80000
0000FFF00000
0001FFE00000
0001FFC00000
0003FF800000
0003FF800000
0003FF000000
0007FF000000
0007FE000000
0007FE000000
0007FE000000
0007FE000000
0007FE000000
0007FE000000
0007FE000000
0007FE000000
0007FE000000
0007FE000000
0007FE000000
0007FE000000
0007FE000000
0007FE000000
0007FE000000
0007FE000000
0007FE000000
0007FE000000
0007FE000000
0007FE000000
0007FE000000
0007FE000000
0007FE000000
0007FE000000
0007FE000000
0007FE000000
0007FE000000
000000000000
000000000000
000000000000
000000000000
000000000000
000000000000
000000000000
000000000000
000000000000
000000000000
0007FE000000
0007FE000000
0007FE000000
0007FE000000
0007FE000000
0007FE000000
0007FE000000
0007FE000000
0007FE000000
0007FE000000
ENDCHAR
STARTCHAR 0040
ENCODING 64
SWIDTH 734 0
DWIDTH 97 0
BBX 78 92 11 -14
BITMAP
007FFFFFFFFE00000000
03FFFFFFFFFFC0000000
07FFFFFFFFFFF0000000
1FFFFFFFFFFFF8000000
1FFFFFFFFFFFFC000000
3FFFFFFFFFFFFC000000
7FFFFFFFFFFFFE000000
7FFFFFFFFFFFFE000000
7FE000000007FE000000
FFC000000003FF000000
FF8000000001FF000000
FF0000000000FF000000
FF0000000000FF000000
FF0000000000FF000000
FF0000000000FF000000
FF0000000000FF000000
FF0000000000FF000000
FF0000000000FF000000
FF0000000000FF000000
FF0000000000FF000000
FF0000000000FF000000
FF0000000000FF000000
FF0000000000FF000000
FF0000000000FF000000
FF0000000000FF000000
FF000007FFFFFF0003FC
FF00003FFFFFFF0003FC
FF00007FFFFFFF0003FC
FF0000FFFFFFFF0003FC
FF0001FFFFFFFF0003FC
FF0003FFFFFFFF0003FC
FF0003FF0000FF0003FC
FF0003FE0000FF0003FC
FF0007FC0000FF0003FC
FF0007F80000FF0003FC
FF0007F80000FF0003FC
FF0007F80000FF0003FC
FF0007F80000FF0003FC
FF0007F80000FF0003FC
FF0007F80000FF0003FC
FF0007F80000FF0003FC
FF0007F80000FF0003FC
FF0007F80000FF0003FC
FF0007F80000FF0003FC
FF0007F80000FF0003FC
FF0007F80000FF0003FC
FF0007F80000FF0003FC
FF0007F80000FF0003FC
FF0007F80000FF0003FC
FF0007F80000FF0003FC
FF0007F80000FF0003FC
FF0007F80000FF0003FC
FF0007F80000FF0003FC
FF0007F80000FF0003FC
FF0007F80000FF0003FC
FF0007F80000FF0003FC
FF0007FC0000FF0003FC
FF0007FC0000FF0003FC
FF0007FE0000FF0003FC
FF0007FF0000FF0003FC
FF0003FFFFFFFF0003FC
FF0003FFFFFFFF0003FC
FF0001FFFFFFFF0003FC
FF0001FFFFFFFF0003FC
FF0000FFFFFFFF0003FC
FF00003FFFFFFF0003FC
FF00000FFFFFFF0003FC
FF0000000000000003FC
FF0000000000000003FC
FF0000000000000003FC
FF0000000000000003FC
FF0000000000000003FC
FF0000000000000003FC
FF0000000000000003FC
FF0000000000000003FC
FF0000000000000003FC
FF0000000000000003FC
FF0000000000000003FC
FF0000000000000003FC
FF0000000000000003FC
FF8000000000000003FC
FF8000000000000007FC
FFC00000000000000FFC
7FE00000000000001FF8
7FFFFFFFFFFFFFFFFFF8
7FFFFFFFFFFFFFFFFFF8
3FFFFFFFFFFFFFFFFFF0
3FFFFFFFFFFFFFFFFFE0
1FFFFFFFFFFFFFFFFFE0
0FFFFFFFFFFFFFFFFF80
03FFFFFFFFFFFFFFFF00
007FFFFFFFFFFFFFF800
ENDCHAR
STARTCHAR 0041
ENCODING 65
SWIDTH 500 0
DWIDTH 66 0
BBX 64 93 1 0
BITMAP
0000003FFE000000
0000003FFE000000
0000007FFE000000
0000007FFE000000
0000007FFF000000
0000007FFF000000
000000FFFF000000
000000FFFF000000
000000FFFF800000
000001FFFF800000
000001FFFF800000
000001FFFFC00000
000001FFFFC00000
000003FEFFC00000
000003FE7FC00000
000003FE7FE00000
000003FC7FE00000
000007FC3FE00000
000007FC3FE00000
000007FC3FF00000
00000FF83FF00000
00000FF81FF00000
00000FF81FF80000
00000FF81FF80000
00001FF01FF80000
00001FF00FF80000
00001FF00FFC0000
00003FE00FFC0000
00003FE00FFC0000
00003FE007FE0000
00003FE007FE0000
00007FC007FE0000
00007FC003FE0000
00007FC003FF0000
0000FFC003FF0000
0000FF8003FF0000
0000FF8001FF0000
0000FF8001FF8000
0001FF0001FF8000
0001FF0001FF8000
0001FF0000FFC000
0003FF0000FFC000
0003FE0000FFC000
0003FE0000FFC000
0003FE00007FE000
0007FE00007FE000
0007FC00007FE000
0007FC00003FE000
0007FC00003FF000
000FF800003FF000
000FF800003FF000
000FF800001FF800
001FF800001FF800
001FF000001FF800
001FF000001FF800
001FF000000FFC00
003FF000000FFC00
003FE000000FFC00
003FE0000007FE00
007FE0000007FE00
007FE0000007FE00
007FC0000007FE00
007FFFFFFFFFFF00
00FFFFFFFFFFFF00
00FFFFFFFFFFFF00
00FFFFFFFFFFFF00
01FFFFFFFFFFFF80
01FFFFFFFFFFFF80
01FFFFFFFFFFFF80
01FF80000001FFC0
03FF00000001FFC0
03FF00000001FFC0
03FF00000000FFC0
07FF00000000FFE0
07FE00000000FFE0
07FE000000007FE0
07FE000000007FE0
0FFE000000007FF0
0FFC000000007FF0
0FFC000000003FF0
0FFC000000003FF8
1FFC000000003FF8
1FF8000000003FF8
1FF8000000001FF8
3FF8000000001FFC
3FF8000000001FFC
3FF0000000001FFC
3FF0000000000FFC
7FF0000000000FFE
7FE0000000000FFE
7FE0000000000FFE
FFE00000000007FF
FFE00000000007FF
ENDCHAR
STARTCHAR 0042
ENCODING 66
SWIDTH 553 0
DWIDTH 73 0
BBX 52 92 10 0
BITMAP
FFFFFFFFFFE000
FFFFFFFFFFFC00
FFFFFFFFFFFE00
FFFFFFFFFFFF00
FFFFFFFFFFFF80
FFFFFFFFFFFFC0
FFFFFFFFFFFFC0
FFFFFFFFFFFFE0
FF80000001FFE0
FF800000007FF0
FF800000003FF0
FF800000003FF0
FF800000001FF0
FF800000001FF0
FF800000001FF0
FF800000001FF0
FF800000001FF0
FF800000001FF0
FF800000001FF0
FF800000001FF0
FF800000001FF0
FF800000001FF0
FF800000001FF0
FF800000001FF0
FF800000001FF0
FF800000001FF0
FF800000001FF0
FF800000001FF0
FF800000001FF0
FF800000001FF0
FF800000001FF0
FF800000001FF0
FF800000001FF0
FF800000001FF0
FF800000001FF0
FF800000001FF0
FF800000003FF0
FF800000003FF0
FF800000007FE0
FF80000000FFE0
FFFFFFFFFFFFE0
FFFFFFFFFFFFC0
FFFFFFFFFFFF80
FFFFFFFFFFFF80
FFFFFFFFFFFFC0
FFFFFFFFFFFFC0
FFFFFFFFFFFFE0
FF80000001FFE0
FF800000007FE0
FF800000003FF0
FF800000003FF0
FF800000001FF0
FF800000001FF0
FF800000001FF0
FF800000001FF0
FF800000001FF0
FF800000001FF0
FF800000001FF0
FF800000001FF0
FF800000001FF0
FF800000001FF0
FF800000001FF0
FF800000001FF0
FF800000001FF0
FF800000001FF0
FF800000001FF0
FF800000001FF0
FF800000001FF0
FF800000001FF0
FF800000001FF0
FF800000001FF0
FF800000001FF0
FF800000001FF0
FF800000001FF0
FF800000001FF0
FF800000001FF0
FF800000001FF0
FF800000001FF0
FF800000001FF0
FF800000001FF0
FF800000001FF0
FF800000003FF0
FF800000007FE0
FF80000001FFE0
FFFFFFFFFFFFE0
FFFFFFFFFFFFC0
FFFFFFFFFFFFC0
FFFFFFFFFFFF80
FFFFFFFFFFFF00
FFFFFFFFFFFE00
FFFFFFFFFFFC00
FFFFFFFFFFE000
ENDCHAR
STARTCHAR 0043
ENCODING 67
SWIDTH 477 0
DWIDTH 63 0
BBX 49 92 10 0
BITMAP
007FFFFFFFFF80
03FFFFFFFFFF80
07FFFFFFFFFF80
1FFFFFFFFFFF80
1FFFFFFFFFFF80
3FFFFFFFFFFF80
7FFFFFFFFFFF80
7FFFFFFFFFFF80
7FFFFFFFFFFF80
FFE00000000080
FFC00000000000
FFC00000000000
FF800000000000
FF800000000000
FF800000000000
FF800000000000
FF800000000000
FF800000000000
FF800000000000
FF800000000000
FF800000000000
FF800000000000
FF800000000000
FF800000000000
FF800000000000
FF800000000000
FF800000000000
FF800000000000
FF800000000000
FF800000000000
FF800000000000
FF800000000000
FF800000000000
FF800000000000
FF800000000000
FF800000000000
FF800000000000
FF800000000000
FF800000000000
FF800000000000
FF800000000000
FF800000000000
FF800000000000
FF800000000000
FF800000000000
FF800000000000
FF800000000000
FF800000000000
FF800000000000
FF800000000000
FF800000000000
FF800000000000
FF800000000000
FF800000000000
FF800000000000
FF800000000000
FF800000000000
FF800000000000
FF800000000000
FF800000000000
FF800000000000
FF800000000000
FF800000000000
FF800000000000
FF800000000000
FF800000000000
FF800000000000
FF800000000000
FF800000000000
FF800000000000
FF800000000000
FF800000000000
FF800000000000
FF800000000000
FF800000000000
FF800000000000
FF800000000000
FF800000000000
FF800000000000
FF800000000000
FFC00000000000
FFC00000000000
FFF00000000080
7FFFFFFFFFFF80
7FFFFFFFFFFF80
7FFFFFFFFFFF80
3FFFFFFFFFFF80
3FFFFFFFFFFF80
1FFFFFFFFFFF80
0FFFFFFFFFFF80
03FFFFFFFFFF80
007FFFFFFFFF80
ENDCHAR
STARTCHAR 0044
ENCODING 68
SWIDTH 553 0
DWIDTH 73 0
BBX 52 92 10 0
BITMAP
FFFFFFFFFFE000
FFFFFFFFFFFC00
FFFFFFFFFFFF00
FFFFFFFFFFFF80
FFFFFFFFFFFFC0
FFFFFFFFFFFFC0
FFFFFFFFFFFFE0
FFFFFFFFFFFFE0
FFFFFFFFFFFFE0
FF80000000FFF0
FF800000003FF0
FF800000003FF0
FF800000001FF0
FF800000001FF0
FF800000001FF0
FF800000001FF0
FF800000001FF0
FF800000001FF0
FF800000001FF0
FF800000001FF0
FF800000001FF0
FF800000001FF0
FF800000001FF0
FF800000001FF0
FF800000001FF0
FF800000001FF0
FF800000001FF0
FF800000001FF0
FF800000001FF0
FF800000001FF0
FF800000001FF0
FF800000001FF0
FF800000001FF0
FF800000001FF0
FF800000001FF0
FF800000001FF0
FF800000001FF0
FF800000001FF0
FF800000001FF0
FF800000001FF0
FF800000001FF0
FF800000001FF0
FF800000001FF0
FF800000001FF0
FF800000001FF0
FF800000001FF0
FF800000001FF0
FF800000001FF0
FF800000001FF0
FF800000001FF0
FF800000001FF0
FF800000001FF0
FF800000001FF0
FF800000001FF0
FF800000001FF0
FF800000001FF0
FF800000001FF0
FF800000001FF0
FF800000001FF0
FF800000001FF0
FF800000001FF0
FF800000001FF0
FF800000001FF0
FF800000001FF0
FF800000001FF0
FF800000001FF0
FF800000001FF0
FF800000001FF0
FF800000001FF0
FF800000001FF0
FF800000001FF0
FF800000001FF0
FF800000001FF0
FF800000001FF0
FF800000001FF0
FF800000001FF0
FF800000001FF0
FF800000001FF0
FF800000001FF0
FF800000001FF0
FF800000003FF0
FF800000003FF0
FF800000007FF0
FFFFFFFFFFFFE0
FFFFFFFFFFFFE0
FFFFFFFFFFFFE0
FFFFFFFFFFFFC0
FFFFFFFFFFFF80
FFFFFFFFFFFF80
FFFFFFFFFFFE00
FFFFFFFFFFFC00
FFFFFFFFFFE000
ENDCHAR
STARTCHAR 0045
ENCODING 69
SWIDTH 477 0
DWIDTH 63 0
BBX 49 92 10 0
BITMAP
FFFFFFFFFFFE00
FFFFFFFFFFFE00
FFFFFFFFFFFE00
FFFFFFFFFFFE00
FFFFFFFFFFFE00
FFFFFFFFFFFE00
FFFFFFFFFFFE00
FFFFFFFFFFFE00
FF800000000600
FF800000000000
FF800000000000
FF800000000000
FF800000000000
FF800000000000
FF800000000000
FF800000000000
FF800000000000
FF800000000000
FF800000000000
FF800000000000
FF800000000000
FF800000000000
FF800000000000
FF800000000000
FF800000000000
FF800000000000
FF800000000000
FF800000000000
FF800000000000
FF800000000000
FF800000000000
FF800000000000
FF800000000000
FF800000000000
FF800000000000
FF800000000000
FF800000000000
FF800000000000
FF800000000000
FFFFFFFFFF0000
FFFFFFFFFF0000
FFFFFFFFFF0000
FFFFFFFFFF0000
FFFFFFFFFF0000
FFFFFFFFFF0000
FFFFFFFFFF0000
FFFFFFFFFF0000
FF800000000000
FF800000000000
FF800000000000
FF800000000000
FF800000000000
FF800000000000
FF800000000000
FF800000000000
FF800000000000
FF800000000000
FF800000000000
FF800000000000
FF800000000000
FF800000000000
FF800000000000
FF800000000000
FF800000000000
FF800000000000
FF800000000000
FF800000000000
FF800000000000
FF800000000000
FF800000000000
FF800000000000
FF800000000000
FF800000000000
FF800000000000
FF800000000000
FF800000000000
FF800000000000
FF800000000000
FF800000000000
FF800000000000
FF800000000000
FF800000000000
FF800000000000
FF800000000080
FFFFFFFFFFFF80
FFFFFFFFFFFF80
FFFFFFFFFFFF80
FFFFFFFFFFFF80
FFFFFFFFFFFF80
FFFFFFFFFFFF80
FFFFFFFFFFFF80
FFFFFFFFFFFF80
ENDCHAR
STARTCHAR 0046
ENCODING 70
SWIDTH 439 0
DWIDTH 58 0
BBX 47 92 10 0
BITMAP
FFFFFFFFFFFE
FFFFFFFFFFFE
FFFFFFFFFFFE
FFFFFFFFFFFE
FFFFFFFFFFFE
FFFFFFFFFFFE
FFFFFFFFFFFE
FFFFFFFFFFFE
FF8000000006
FF8000000000
FF8000000000
FF8000000000
FF8000000000
FF8000000000
FF8000000000
FF8000000000
FF8000000000
FF8000000000
FF8000000000
FF8000000000
FF8000000000
FF8000000000
FF8000000000
FF8000000000
FF8000000000
FF8000000000
FF8000000000
FF8000000000
FF8000000000
FF8000000000
FF8000000000
FF8000000000
FF8000000000
FF8000000000
FF8000000000
FF8000000000
FF8000000000
FF8000000000
FF8000000000
FFFFFFFFFF00
FFFFFFFFFF00
FFFFFFFFFF00
FFFFFFFFFF00
FFFFFFFFFF00
FFFFFFFFFF00
FFFFFFFFFF00
FFFFFFFFFF00
FF8000000000
FF8000000000
FF8000000000
FF8000000000
FF8000000000
FF8000000000
FF8000000000
FF8000000000
FF8000000000
FF8000000000
FF8000000000
FF8000000000
FF8000000000
FF8000000000
FF8000000000
FF8000000000
FF8000000000
FF8000000000
FF8000000000
FF8000000000
FF8000000000
FF8000000000
FF8000000000
FF8000000000
FF8000000000
FF8000000000
FF8000000000
FF8000000000
FF8000000000
FF8000000000
FF8000000000
FF8000000000
FF8000000000
FF8000000000
FF8000000000
FF8000000000
FF8000000000
FF8000000000
FF8000000000
FF8000000000
FF8000000000
FF8000000000
FF8000000000
FF8000000000
FF8000000000
ENDCHAR
STARTCHAR 0047
ENCODING 71
SWIDTH 553 0
DWIDTH 73 0
BBX 52 92 10 0
BITMAP
007FFFFFFFFFF0
03FFFFFFFFFFF0
07FFFFFFFFFFF0
1FFFFFFFFFFFF0
1FFFFFFFFFFFF0
3FFFFFFFFFFFF0
7FFFFFFFFFFFF0
7FFFFFFFFFFFF0
7FFFFFFFFFFFF0
FFF00000000000
FFC00000000000
FFC00000000000
FF800000000000
FF800000000000
FF800000000000
FF800000000000
FF800000000000
FF800000000000
FF800000000000
FF800000000000
FF800000000000
FF800000000000
FF800000000000
FF800000000000
FF800000000000
FF800000000000
FF800000000000
FF800000000000
FF800000000000
FF800000000000
FF800000000000
FF800000000000
FF800000000000
FF800000000000
FF800000000000
FF800000000000
FF800000000000
FF800000000000
FF800000000000
FF80007FFFFFF0
FF80007FFFFFF0
FF80007FFFFFF0
FF80007FFFFFF0
FF80007FFFFFF0
FF80007FFFFFF0
FF80007FFFFFF0
FF80007FFFFFF0
FF800000001FF0
FF800000001FF0
FF800000001FF0
FF800000001FF0
FF800000001FF0
FF800000001FF0
FF800000001FF0
FF800000001FF0
FF800000001FF0
FF800000001FF0
FF800000001FF0
FF800000001FF0
FF800000001FF0
FF800000001FF0
FF800000001FF0
FF800000001FF0
FF800000001FF0
FF800000001FF0
FF800000001FF0
FF800000001FF0
FF800000001FF0
FF800000001FF0
FF800000001FF0
FF800000001FF0
FF800000001FF0
FF800000001FF0
FF800000001FF0
FF800000001FF0
FF800000001FF0
FF800000001FF0
FF800000001FF0
FF800000001FF0
FF800000001FF0
FFC00000003FF0
FFC00000003FF0
FFF00000007FF0
7FFFFFFFFFFFE0
7FFFFFFFFFFFE0
7FFFFFFFFFFFE0
3FFFFFFFFFFFC0
3FFFFFFFFFFF80
1FFFFFFFFFFF80
0FFFFFFFFFFE00
03FFFFFFFFFC00
007FFFFFFFE000
ENDCHAR
STARTCHAR 0048
ENCODING 72
SWIDTH 553 0
DWIDTH 73 0
BBX 52 93 10 0
BITMAP
FF800000001FF0
FF800000001FF0
FF800000001FF0
FF800000001FF0
FF800000001FF0
FF800000001FF0
FF800000001FF0
FF800000001FF0
FF800000001FF0
FF800000001FF0
FF800000001FF0
FF800000001FF0
FF800000001FF0
FF800000001FF0
FF800000001FF0
FF800000001FF0
FF800000001FF0
FF800000001FF0
FF800000001FF0
FF800000001FF0
FF800000001FF0
FF800000001FF0
FF800000001FF0
FF800000001FF0
FF800000001FF0
FF800000001FF0
FF800000001FF0
FF800000001FF0
FF800000001FF0
FF800000001FF0
FF800000001FF0
FF800000001FF0
FF800000001FF0
FF800000001FF0
FF800000001FF0
FF800000001FF0
FF800000001FF0
FF800000001FF0
FF800000001FF0
FF800000001FF0
FFFFFFFFFFFFF0
FFFFFFFFFFFFF0
FFFFFFFFFFFFF0
FFFFFFFFFFFFF0
FFFFFFFFFFFFF0
FFFFFFFFFFFFF0
FFFFFFFFFFFFF0
FFFFFFFFFFFFF0
FF800000001FF0
FF800000001FF0
FF800000001FF0
FF800000001FF0
FF800000001FF0
FF800000001FF0
FF800000001FF0
FF800000001FF0
FF800000001FF0
FF800000001FF0
FF800000001FF0
FF800000001FF0
FF800000001FF0
FF800000001FF0
FF800000001FF0
FF800000001FF0
FF800000001FF0
FF800000001FF0
FF800000001FF0
FF800000001FF0
FF800000001FF0
FF800000001FF0
FF800000001FF0
FF800000001FF0
FF800000001FF0
FF800000001FF0
FF800000001FF0
FF800000001FF0
FF800000001FF0
FF800000001FF0
FF800000001FF0
FF800000001FF0
FF800000001FF0
FF800000001FF0
FF800000001FF0
FF800000001FF0
FF800000001FF0
FF800000001FF0
FF800000001FF0
FF800000001FF0
FF800000001FF0
FF800000001FF0
FF800000001FF0
FF800000001FF0
FF800000001FF0
ENDCHAR
STARTCHAR 0049
ENCODING 73
SWIDTH 227 0
DWIDTH 30 0
BBX 9 92 10 1
BITMAP
FF80
FF80
FF80
FF80
FF80
FF80
FF80
FF80
FF80
FF80
FF80
FF80
FF80
FF80
FF80
FF80
FF80
FF80
FF80
FF80
FF80
FF80
FF80
FF80
FF80
FF80
FF80
FF80
FF80
FF80
FF80
FF80
FF80
FF80
FF80
FF80
FF80
FF80
FF80
FF80
FF80
FF80
FF80
FF80
FF80
FF80
FF80
FF80
FF80
FF80
FF80
FF80
FF80
FF80
FF80
FF80
FF80
FF80
FF80
FF80
FF80
FF80
FF80
FF80
FF80
FF80
FF80
FF80
FF80
FF80
FF80
FF80
FF80
FF80
FF80
FF80
FF80
FF80
FF80
FF80
FF80
FF80
FF80
FF80
FF80
FF80
FF80
FF80
FF80
FF80
FF80
FF80
ENDCHAR
STARTCHAR 004A
ENCODING 74
SWIDTH 333 0
DWIDTH 44 0
BBX 31 92 2 1
BITMAP
000003FE
000003FE
000003FE
000003FE
000003FE
000003FE
000003FE
000003FE
000003FE
000003FE
000003FE
000003FE
000003FE
000003FE
000003FE
000003FE
000003FE
000003FE
000003FE
000003FE
000003FE
000003FE
000003FE
000003FE
000003FE
000003FE
000003FE
000003FE
000003FE
000003FE
000003FE
000003FE
000003FE
000003FE
000003FE
000003FE
000003FE
000003FE
000003FE
000003FE
000003FE
000003FE
000003FE
000003FE
000003FE
000003FE
000003FE
000003FE
000003FE
000003FE
000003FE
000003FE
000003FE
000003FE
000003FE
000003FE
000003FE
000003FE
000003FE
000003FE
000003FE
000003FE
000003FE
000003FE
000003FE
000003FE
000003FE
000003FE
000003FE
000003FE
000003FE
000003FE
000003FE
000003FE
000003FE
000003FE
000003FE
000003FE
000003FE
000003FE
000007FE
000007FE
00000FFE
FFFFFFFC
FFFFFFFC
FFFFFFFC
FFFFFFF8
FFFFFFF0
FFFFFFF0
FFFFFFC0
FFFFFF80
FFFFFC00
ENDCHAR
STARTCHAR 004B
ENCODING 75
SWIDTH 530 0
DWIDTH 70 0
BBX 56 93 10 0
BITMAP
FFC00000000FFC
FFC00000001FFC
FFC00000001FF8
FFC00000003FF8
FFC00000003FF0
FFC00000007FF0
FFC00000007FE0
FFC0000000FFE0
FFC0000000FFE0
FFC0000000FFC0
FFC0000001FFC0
FFC0000001FF80
FFC0000003FF80
FFC0000003FF00
FFC0000007FF00
FFC0000007FE00
FFC000000FFE00
FFC000000FFC00
FFC000001FFC00
FFC000001FFC00
FFC000001FF800
FFC000003FF800
FFC000003FF000
FFC000007FF000
FFC000007FE000
FFC00000FFE000
FFC00000FFC000
FFC00001FFC000
FFC00001FF8000
FFC00001FF8000
FFC00003FF0000
FFC00003FF0000
FFC00007FF0000
FFC00007FE0000
FFC0000FFE0000
FFC0000FFC0000
FFC0001FFC0000
FFC0001FF80000
FFC0003FF80000
FFC000FFF00000
FFFFFFFFE00000
FFFFFFFFC00000
FFFFFFFF800000
FFFFFFFE000000
FFFFFFFF000000
FFFFFFFFC00000
FFFFFFFFE00000
FFFFFFFFF00000
FFC000FFF00000
FFC0003FF80000
FFC0001FFC0000
FFC0001FFC0000
FFC0000FFC0000
FFC0000FFE0000
FFC00007FE0000
FFC00007FF0000
FFC00003FF0000
FFC00003FF8000
FFC00003FF8000
FFC00001FFC000
FFC00001FFC000
FFC00000FFC000
FFC00000FFE000
FFC000007FE000
FFC000007FF000
FFC000007FF000
FFC000003FF800
FFC000003FF800
FFC000001FF800
FFC000001FFC00
FFC000000FFC00
FFC000000FFE00
FFC000000FFE00
FFC0000007FF00
FFC0000007FF00
FFC0000003FF80
FFC0000003FF80
FFC0000001FF80
FFC0000001FFC0
FFC0000001FFC0
FFC0000000FFE0
FFC0000000FFE0
FFC00000007FF0
FFC00000007FF0
FFC00000007FF0
FFC00000003FF8
FFC00000003FF8
FFC00000001FFC
FFC00000001FFC
FFC00000000FFE
FFC00000000FFE
FFC00000000FFF
FFC000000007FF
ENDCHAR
STARTCHAR 004C
ENCODING 76
SWIDTH 454 0
DWIDTH 60 0
BBX 48 92 10 1
BITMAP
FF8000000000
FF8000000000
FF8000000000
FF8000000000
FF8000000000
FF8000000000
FF8000000000
FF8000000000
FF8000000000
FF8000000000
FF8000000000
FF8000000000
FF8000000000
FF8000000000
FF8000000000
FF8000000000
FF8000000000
FF8000000000
FF8000000000
FF8000000000
FF8000000000
FF8000000000
FF8000000000
FF8000000000
FF8000000000
FF8000000000
FF8000000000
FF8000000000
FF8000000000
FF8000000000
FF8000000000
FF8000000000
FF8000000000
FF8000000000
FF8000000000
FF8000000000
FF8000000000
FF8000000000
FF8000000000
FF8000000000
FF8000000000
FF8000000000
FF8000000000
FF8000000000
FF8000000000
FF8000000000
FF8000000000
FF8000000000
FF8000000000
FF8000000000
FF8000000000
FF8000000000
FF8000000000
FF8000000000
FF8000000000
FF8000000000
FF8000000000
FF8000000000
FF8000000000
FF8000000000
FF8000000000
FF8000000000
FF8000000000
FF8000000000
FF8000000000
FF8000000000
FF8000000000
FF8000000000
FF8000000000
FF8000000000
FF8000000000
FF8000000000
FF8000000000
FF8000000000
FF8000000000
FF8000000000
FF8000000000
FF8000000000
FF8000000000
FF8000000000
FF8000000000
FF8000000000
FF8000000000
FF8000000001
FFFFFFFFFFFF
FFFFFFFFFFFF
FFFFFFFFFFFF
FFFFFFFFFFFF
FFFFFFFFFFFF
FFFFFFFFFFFF
FFFFFFFFFFFF
FFFFFFFFFFFF
ENDCHAR
STARTCHAR 004D
ENCODING 77
SWIDTH 651 0
DWIDTH 86 0
BBX 66 92 10 1
BITMAP
FFFE000000000FFFC0
FFFE000000000FFFC0
FFFE000000001FFFC0
FFFF000000001FFFC0
FFFF000000001FFFC0
FFFF000000003FFFC0
FFFF800000003FFFC0
FFFF800000003FFFC0
FFFF800000007FFFC0
FFFFC00000007FFFC0
FFFFC00000007FFFC0
FFFFC0000000FFFFC0
FFBFE0000000FF7FC0
FFBFE0000000FF7FC0
FFBFE0000001FF7FC0
FF9FF0000001FE7FC0
FF9FF0000001FE7FC0
FF9FF0000003FE7FC0
FF8FF8000003FC7FC0
FF8FF8000003FC7FC0
FF8FF8000007FC7FC0
FF87FC000007F87FC0
FF87FC000007F87FC0
FF87FC00000FF87FC0
FF83FE00000FF07FC0
FF83FE00000FF07FC0
FF83FE00001FF07FC0
FF81FF00001FE07FC0
FF81FF00001FE07FC0
FF81FF00003FE07FC0
FF80FF80003FC07FC0
FF80FF80003FC07FC0
FF80FF80007FC07FC0
FF807F80007F807FC0
FF807FC0007F807FC0
FF807FC000FF807FC0
FF807FC000FF007FC0
FF803FE000FF007FC0
FF803FE001FF007FC0
FF803FE001FE007FC0
FF801FF001FE007FC0
FF801FF003FE007FC0
FF801FF003FC007FC0
FF800FF803FC007FC0
FF800FF807FC007FC0
FF800FF807F8007FC0
FF8007FC07F8007FC0
FF8007FC0FF8007FC0
FF8007FC0FF0007FC0
FF8003FE0FF0007FC0
FF8003FE1FF0007FC0
FF8003FE1FE0007FC0
FF8001FF1FE0007FC0
FF8001FF3FE0007FC0
FF8001FF3FC0007FC0
FF8000FFBFC0007FC0
FF8000FFFFC0007FC0
FF8000FFFF80007FC0
FF80007FFF80007FC0
FF80007FFF80007FC0
FF80007FFF00007FC0
FF80003FFF00007FC0
FF80003FFF00007FC0
FF80003FFE00007FC0
FF80001FFE00007FC0
FF80001FFE00007FC0
FF80001FFC00007FC0
FF80000FFC00007FC0
FF8000000000007FC0
FF8000000000007FC0
FF8000000000007FC0
FF8000000000007FC0
FF8000000000007FC0
FF8000000000007FC0
FF8000000000007FC0
FF8000000000007FC0
FF8000000000007FC0
FF8000000000007FC0
FF8000000000007FC0
FF8000000000007FC0
FF8000000000007FC0
FF8000000000007FC0
FF8000000000007FC0
FF8000000000007FC0
FF8000000000007FC0
FF8000000000007FC0
FF8000000000007FC0
FF8000000000007FC0
FF8000000000007FC0
FF8000000000007FC0
FF8000000000007FC0
FF8000000000007FC0
ENDCHAR
STARTCHAR 004E
ENCODING 78
SWIDTH 560 0
DWIDTH 74 0
BBX 54 92 10 1
BITMAP
FFE000000007FC
FFF000000007FC
FFF000000007FC
FFF000000007FC
FFF800000007FC
FFF800000007FC
FFFC00000007FC
FFFC00000007FC
FFFE00000007FC
FFFE00000007FC
FFFF00000007FC
FFFF00000007FC
FFFF80000007FC
FFFF80000007FC
FFFF80000007FC
FFFFC0000007FC
FFFFC0000007FC
FFBFE0000007FC
FFBFE0000007FC
FF9FF0000007FC
FF9FF0000007FC
FF9FF8000007FC
FF8FF8000007FC
FF8FFC000007FC
FF87FC000007FC
FF87FC000007FC
FF83FE000007FC
FF83FE000007FC
FF81FF000007FC
FF81FF000007FC
FF81FF800007FC
FF80FF800007FC
FF80FFC00007FC
FF807FC00007FC
FF807FC00007FC
FF803FE00007FC
FF803FE00007FC
FF801FF00007FC
FF801FF00007FC
FF800FF80007FC
FF800FF80007FC
FF800FFC0007FC
FF8007FC0007FC
FF8007FE0007FC
FF8003FE0007FC
FF8003FE0007FC
FF8001FF0007FC
FF8001FF0007FC
FF8000FF8007FC
FF8000FF8007FC
FF8000FFC007FC
FF80007FC007FC
FF80007FE007FC
FF80003FE007FC
FF80003FF007FC
FF80001FF007FC
FF80001FF007FC
FF80000FF807FC
FF80000FF807FC
FF80000FFC07FC
FF800007FC07FC
FF800007FE07FC
FF800003FE07FC
FF800003FF07FC
FF800001FF07FC
FF800001FF07FC
FF800000FF87FC
FF800000FF87FC
FF8000007FC7FC
FF8000007FC7FC
FF8000007FE7FC
FF8000003FE7FC
FF8000003FF7FC
FF8000001FF7FC
FF8000001FFFFC
FF8000000FFFFC
FF8000000FFFFC
FF80000007FFFC
FF80000007FFFC
FF80000007FFFC
FF80000003FFFC
FF80000003FFFC
FF80000001FFFC
FF80000001FFFC
FF80000000FFFC
FF80000000FFFC
FF800000007FFC
FF800000007FFC
FF800000003FFC
FF800000003FFC
FF800000003FFC
FF800000001FFC
ENDCHAR
STARTCHAR 004F
ENCODING 79
SWIDTH 553 0
DWIDTH 73 0
BBX 52 92 10 0
BITMAP
007FFFFFFFE000
03FFFFFFFFFC00
0FFFFFFFFFFF00
1FFFFFFFFFFF80
1FFFFFFFFFFFC0
3FFFFFFFFFFFC0
7FFFFFFFFFFFE0
7FFFFFFFFFFFE0
7FFFFFFFFFFFE0
FFE0000000FFF0
FFC00000003FF0
FFC00000003FF0
FF800000001FF0
FF800000001FF0
FF800000001FF0
FF800000001FF0
FF800000001FF0
FF800000001FF0
FF800000001FF0
FF800000001FF0
FF800000001FF0
FF800000001FF0
FF800000001FF0
FF800000001FF0
FF800000001FF0
FF800000001FF0
FF800000001FF0
FF800000001FF0
FF800000001FF0
FF800000001FF0
FF800000001FF0
FF800000001FF0
FF800000001FF0
FF800000001FF0
FF800000001FF0
FF800000001FF0
FF800000001FF0
FF800000001FF0
FF800000001FF0
FF800000001FF0
FF800000001FF0
FF800000001FF0
FF800000001FF0
FF800000001FF0
FF800000001FF0
FF800000001FF0
FF800000001FF0
FF800000001FF0
FF800000001FF0
FF800000001FF0
FF800000001FF0
FF800000001FF0
FF800000001FF0
FF800000001FF0
FF800000001FF0
FF800000001FF0
FF800000001FF0
FF800000001FF0
FF800000001FF0
FF800000001FF0
FF800000001FF0
FF800000001FF0
FF800000001FF0
FF800000001FF0
FF800000001FF0
FF800000001FF0
FF800000001FF0
FF800000001FF0
FF800000001FF0
FF800000001FF0
FF800000001FF0
FF800000001FF0
FF800000001FF0
FF800000001FF0
FF800000001FF0
FF800000001FF0
FF800000001FF0
FF800000001FF0
FF800000001FF0
FF800000001FF0
FFC00000003FF0
FFC00000003FF0
FFF00000007FF0
7FFFFFFFFFFFE0
7FFFFFFFFFFFE0
7FFFFFFFFFFFE0
3FFFFFFFFFFFC0
3FFFFFFFFFFF80
1FFFFFFFFFFF80
0FFFFFFFFFFE00
03FFFFFFFFFC00
007FFFFFFFE000
ENDCHAR
STARTCHAR 0050
ENCODING 80
SWIDTH 522 0
DWIDTH 69 0
BBX 52 92 10 0
BITMAP
FFFFFFFFFFE000
FFFFFFFFFFFC00
FFFFFFFFFFFF00
FFFFFFFFFFFF80
FFFFFFFFFFFFC0
FFFFFFFFFFFFC0
FFFFFFFFFFFFE0
FFFFFFFFFFFFE0
FFFFFFFFFFFFE0
FF800000007FF0
FF800000003FF0
FF800000003FF0
FF800000001FF0
FF800000001FF0
FF800000001FF0
FF800000001FF0
FF800000001FF0
FF800000001FF0
FF800000001FF0
FF800000001FF0
FF800000001FF0
FF800000001FF0
FF800000001FF0
FF800000001FF0
FF800000001FF0
FF800000001FF0
FF800000001FF0
FF800000001FF0
FF800000001FF0
FF800000001FF0
FF800000001FF0
FF800000001FF0
FF800000001FF0
FF800000001FF0
FF800000001FF0
FF800000001FF0
FF800000001FF0
FF800000001FF0
FF800000003FF0
FF800000007FF0
FF80000000FFF0
FFFFFFFFFFFFE0
FFFFFFFFFFFFE0
FFFFFFFFFFFFE0
FFFFFFFFFFFFC0
FFFFFFFFFFFFC0
FFFFFFFFFFFF80
FFFFFFFFFFFF00
FFFFFFFFFFFC00
FFFFFFFFFFF000
FF800000000000
FF800000000000
FF800000000000
FF800000000000
FF800000000000
FF800000000000
FF800000000000
FF800000000000
FF800000000000
FF800000000000
FF800000000000
FF800000000000
FF800000000000
FF800000000000
FF800000000000
FF800000000000
FF800000000000
FF800000000000
FF800000000000
FF800000000000
FF800000000000
FF800000000000
FF800000000000
FF800000000000
FF800000000000
FF800000000000
FF800000000000
FF800000000000
FF800000000000
FF800000000000
FF800000000000
FF800000000000
FF800000000000
FF800000000000
FF800000000000
FF800000000000
FF800000000000
FF800000000000
FF800000000000
FF800000000000
FF800000000000
FF800000000000
ENDCHAR
STARTCHAR 0051
ENCODING 81
SWIDTH 553 0
DWIDTH 73 0
BBX 52 118 10 -27
BITMAP
007FFFFFFFE000
03FFFFFFFFFC00
0FFFFFFFFFFF00
1FFFFFFFFFFF80
1FFFFFFFFFFFC0
3FFFFFFFFFFFC0
7FFFFFFFFFFFE0
7FFFFFFFFFFFE0
7FFFFFFFFFFFE0
FFE0000000FFF0
FFC00000003FF0
FFC00000003FF0
FF800000001FF0
FF800000001FF0
FF800000001FF0
FF800000001FF0
FF800000001FF0
FF800000001FF0
FF800000001FF0
FF800000001FF0
FF800000001FF0
FF800000001FF0
FF800000001FF0
FF800000001FF0
FF800000001FF0
FF800000001FF0
FF800000001FF0
FF800000001FF0
FF800000001FF0
FF800000001FF0
FF800000001FF0
FF800000001FF0
FF800000001FF0
FF800000001FF0
FF800000001FF0
FF800000001FF0
FF800000001FF0
FF800000001FF0
FF800000001FF0
FF800000001FF0
FF800000001FF0
FF800000001FF0
FF800000001FF0
FF800000001FF0
FF800000001FF0
FF800000001FF0
FF800000001FF0
FF800000001FF0
FF800000001FF0
FF800000001FF0
FF800000001FF0
FF800000001FF0
FF800000001FF0
FF800000001FF0
FF800000001FF0
FF800000001FF0
FF800000001FF0
FF800000001FF0
FF800000001FF0
FF800000001FF0
FF800000001FF0
FF800000001FF0
FF800000001FF0
FF800000001FF0
FF800000001FF0
FF800000001FF0
FF800000001FF0
FF800000001FF0
FF800000001FF0
FF800000001FF0
FF8003F0001FF0
FF8003F0001FF0
FF8001F8001FF0
FF8001F8001FF0
FF8001F8001FF0
FF8000FC001FF0
FF8000FC001FF0
FF8000FC001FF0
FF80007E001FF0
FF80007E001FF0
FFC0003F003FF0
FFC0003F003FF0
FFF0003F007FF0
7FFFFFFFFFFFE0
7FFFFFFFFFFFE0
7FFFFFFFFFFFE0
3FFFFFFFFFFFC0
3FFFFFFFFFFF80
1FFFFFFFFFFF80
0FFFFFFFFFFF00
03FFFFFFFFFC00
00FFFFFFFFF000
00000007F00000
00000007F80000
00000003F80000
00000003F80000
00000003FC0000
00000001FC0000
00000001FC0000
00000001FE0000
00000000FE0000
00000000FF0000
00000000FF0000
000000007F0000
000000007F8000
000000007F8000
000000003F8000
000000003FC000
000000003FC000
000000001FC000
000000001FE000
000000001FE000
000000000FF000
000000000FF000
000000000FF000
0000000007F800
0000000007F800
0000000007F800
ENDCHAR
STARTCHAR 0052
ENCODING 82
SWIDTH 568 0
DWIDTH 75 0
BBX 56 92 10 0
BITMAP
FFFFFFFFFFE000
FFFFFFFFFFFC00
FFFFFFFFFFFF00
FFFFFFFFFFFF80
FFFFFFFFFFFF80
FFFFFFFFFFFFC0
FFFFFFFFFFFFE0
FFFFFFFFFFFFE0
FFFFFFFFFFFFE0
FF80000000FFF0
FF800000003FF0
FF800000003FF0
FF800000001FF0
FF800000001FF0
FF800000001FF0
FF800000001FF0
FF800000001FF0
FF800000001FF0
FF800000001FF0
FF800000001FF0
FF800000001FF0
FF800000001FF0
FF800000001FF0
FF800000001FF0
FF800000001FF0
FF800000001FF0
FF800000001FF0
FF800000001FF0
FF800000001FF0
FF800000001FF0
FF800000001FF0
FF800000001FF0
FF800000001FF0
FF800000001FF0
FF800000001FF0
FF800000001FF0
FF800000001FF0
FF800000003FF0
FF800000007FF0
FF80000000FFE0
FFFFFFFFFFFFE0
FFFFFFFFFFFFE0
FFFFFFFFFFFFC0
FFFFFFFFFFFFC0
FFFFFFFFFFFF80
FFFFFFFFFFFF00
FFFFFFFFFFFE00
FFFFFFFFFFF800
FF800001FF0000
FF800000FF8000
FF800000FF8000
FF800000FFC000
FF8000007FC000
FF8000007FC000
FF8000007FE000
FF8000003FE000
FF8000003FE000
FF8000003FF000
FF8000001FF000
FF8000001FF800
FF8000001FF800
FF8000000FF800
FF8000000FFC00
FF8000000FFC00
FF80000007FC00
FF80000007FE00
FF80000003FE00
FF80000003FE00
FF80000003FF00
FF80000001FF00
FF80000001FF80
FF80000001FF80
FF80000000FF80
FF80000000FFC0
FF80000000FFC0
FF800000007FC0
FF800000007FE0
FF800000007FE0
FF800000003FF0
FF800000003FF0
FF800000003FF0
FF800000001FF8
FF800000001FF8
FF800000000FF8
FF800000000FFC
FF800000000FFC
FF8000000007FE
FF8000000007FE
FF8000000007FE
FF8000000003FF
FF8000000003FF
FF8000000003FF
ENDCHAR
STARTCHAR 0053
ENCODING 83
SWIDTH 500 0
DWIDTH 66 0
BBX 49 92 8 0
BITMAP
007FFFFFFFFF80
03FFFFFFFFFF80
07FFFFFFFFFF80
0FFFFFFFFFFF80
1FFFFFFFFFFF80
3FFFFFFFFFFF80
7FFFFFFFFFFF80
7FFFFFFFFFFF80
7FFFFFFFFFFF80
FFF00000000000
FFC00000000000
FFC00000000000
FF800000000000
FF800000000000
FF800000000000
FF800000000000
FF800000000000
FF800000000000
FF800000000000
FF800000000000
FF800000000000
FF800000000000
FF800000000000
FF800000000000
FF800000000000
FFC00000000000
FFC00000000000
7FE00000000000
7FF00000000000
7FF80000000000
3FFC0000000000
3FFE0000000000
1FFF0000000000
0FFFC000000000
07FFE000000000
03FFF000000000
01FFF800000000
00FFFE00000000
007FFF00000000
001FFF80000000
000FFFC0000000
0007FFF0000000
0003FFF8000000
0000FFFC000000
00007FFE000000
00003FFF800000
00001FFFC00000
000007FFE00000
000003FFF00000
000001FFFC0000
000000FFFE0000
0000003FFF0000
0000001FFF8000
0000000FFFE000
00000007FFF000
00000001FFF800
00000000FFFC00
000000007FFC00
000000003FFE00
000000000FFF00
0000000007FF00
0000000003FF00
0000000001FF80
0000000001FF80
0000000000FF80
0000000000FF80
0000000000FF80
0000000000FF80
0000000000FF80
0000000000FF80
0000000000FF80
0000000000FF80
0000000000FF80
0000000000FF80
0000000000FF80
0000000000FF80
0000000000FF80
0000000000FF80
0000000000FF80
0000000000FF80
0000000001FF80
0000000001FF80
0000000003FF80
FFFFFFFFFFFF00
FFFFFFFFFFFF00
FFFFFFFFFFFF00
FFFFFFFFFFFE00
FFFFFFFFFFFE00
FFFFFFFFFFFC00
FFFFFFFFFFF800
FFFFFFFFFFE000
FFFFFFFFFF0000
ENDCHAR
STARTCHAR 0054
ENCODING 84
SWIDTH 462 0
DWIDTH 61 0
BBX 53 92 4 0
BITMAP
FFFFFFFFFFFFF8
FFFFFFFFFFFFF8
FFFFFFFFFFFFF8
FFFFFFFFFFFFF8
FFFFFFFFFFFFF8
FFFFFFFFFFFFF8
FFFFFFFFFFFFF8
FFFFFFFFFFFFF8
FFFFFFFFFFFFF8
000003FE000000
000003FE000000
000003FE000000
000003FE000000
000003FE000000
000003FE000000
000003FE000000
000003FE000000
000003FE000000
000003FE000000
000003FE000000
000003FE000000
000003FE000000
000003FE000000
000003FE000000
000003FE000000
000003FE000000
000003FE000000
000003FE000000
000003FE000000
000003FE000000
000003FE000000
000003FE000000
000003FE000000
000003FE000000
000003FE000000
000003FE000000
000003FE000000
000003FE000000
000003FE000000
000003FE000000
000003FE000000
000003FE000000
000003FE000000
000003FE000000
000003FE000000
000003FE000000
000003FE000000
000003FE000000
000003FE000000
000003FE000000
000003FE000000
000003FE000000
000003FE000000
000003FE000000
000003FE000000
000003FE000000
000003FE000000
000003FE000000
000003FE000000
000003FE000000
000003FE000000
000003FE000000
000003FE000000
000003FE000000
000003FE000000
000003FE000000
000003FE000000
000003FE000000
000003FE000000
000003FE000000
000003FE000000
000003FE000000
000003FE000000
000003FE000000
000003FE000000
000003FE000000
000003FE000000
000003FE000000
000003FE000000
000003FE000000
000003FE000000
000003FE000000
000003FE000000
000003FE000000
000003FE000000
000003FE000000
000003FE000000
000003FE000000
000003FE000000
000003FE000000
000003FE000000
000003FE000000
ENDCHAR
STARTCHAR 0055
ENCODING 85
SWIDTH 553 0
DWIDTH 73 0
BBX 52 92 10 1
BITMAP
FF800000001FF0
FF800000001FF0
FF800000001FF0
FF800000001FF0
FF800000001FF0
FF800000001FF0
FF800000001FF0
FF800000001FF0
FF800000001FF0
FF800000001FF0
FF800000001FF0
FF800000001FF0
FF800000001FF0
FF800000001FF0
FF800000001FF0
FF800000001FF0
FF800000001FF0
FF800000001FF0
FF800000001FF0
FF800000001FF0
FF800000001FF0
FF800000001FF0
FF800000001FF0
FF800000001FF0
FF800000001FF0
FF800000001FF0
FF800000001FF0
FF800000001FF0
FF800000001FF0
FF800000001FF0
FF800000001FF0
FF800000001FF0
FF800000001FF0
FF800000001FF0
FF800000001FF0
FF800000001FF0
FF800000001FF0
FF800000001FF0
FF800000001FF0
FF800000001FF0
FF800000001FF0
FF800000001FF0
FF800000001FF0
FF800000001FF0
FF800000001FF0
FF800000001FF0
FF800000001FF0
FF800000001FF0
FF800000001FF0
FF800000001FF0
FF800000001FF0
FF800000001FF0
FF800000001FF0
FF800000001FF0
FF800000001FF0
FF800000001FF0
FF800000001FF0
FF800000001FF0
FF800000001FF0
FF800000001FF0
FF800000001FF0
FF800000001FF0
FF800000001FF0
FF800000001FF0
FF800000001FF0
FF800000001FF0
FF800000001FF0
FF800000001FF0
FF800000001FF0
FF800000001FF0
FF800000001FF0
FF800000001FF0
FF800000001FF0
FF800000001FF0
FF800000001FF0
FF800000001FF0
FF800000001FF0
FF800000001FF0
FF800000001FF0
FF800000001FF0
FFC00000003FF0
FFC00000003FF0
FFF00000007FF0
7FFFFFFFFFFFE0
7FFFFFFFFFFFE0
7FFFFFFFFFFFE0
3FFFFFFFFFFFC0
3FFFFFFFFFFF80
1FFFFFFFFFFF80
0FFFFFFFFFFE00
03FFFFFFFFFC00
007FFFFFFFE000
ENDCHAR
STARTCHAR 0056
ENCODING 86
SWIDTH 500 0
DWIDTH 66 0
BBX 64 92 1 1
BITMAP
FFE00000000003FF
7FE00000000003FE
7FE00000000007FE
7FE00000000007FE
7FF00000000007FE
3FF00000000007FC
3FF0000000000FFC
3FF0000000000FFC
3FF8000000000FF8
1FF8000000000FF8
1FF8000000001FF8
1FFC000000001FF8
0FFC000000001FF0
0FFC000000003FF0
0FFC000000003FF0
0FFE000000003FF0
07FE000000003FE0
07FE000000007FE0
07FE000000007FE0
07FF000000007FC0
03FF000000007FC0
03FF00000000FFC0
03FF00000000FFC0
01FF80000000FF80
01FF80000001FF80
01FF80000001FF80
01FFC0000001FF00
00FFC0000001FF00
00FFC0000003FF00
00FFC0000003FF00
007FE0000003FE00
007FE0000003FE00
007FE0000007FE00
007FE0000007FC00
003FF0000007FC00
003FF000000FFC00
003FF000000FFC00
003FF000000FF800
001FF800000FF800
001FF800001FF800
001FF800001FF000
000FFC00001FF000
000FFC00001FF000
000FFC00003FF000
000FFC00003FE000
0007FE00003FE000
0007FE00003FE000
0007FE00007FC000
0007FE00007FC000
0003FF00007FC000
0003FF0000FFC000
0003FF0000FF8000
0001FF8000FF8000
0001FF8000FF8000
0001FF8001FF8000
0001FF8001FF0000
0000FFC001FF0000
0000FFC001FF0000
0000FFC003FE0000
00007FC003FE0000
00007FE003FE0000
00007FE007FE0000
00007FE007FC0000
00003FE007FC0000
00003FF007FC0000
00003FF00FF80000
00003FF00FF80000
00001FF80FF80000
00001FF80FF80000
00001FF81FF00000
00000FF81FF00000
00000FFC1FF00000
00000FFC3FE00000
00000FFC3FE00000
000007FC3FE00000
000007FE3FE00000
000007FE7FC00000
000007FE7FC00000
000003FE7FC00000
000003FF7F800000
000003FFFF800000
000001FFFF800000
000001FFFF800000
000001FFFF000000
000001FFFF000000
000000FFFF000000
000000FFFF000000
000000FFFE000000
0000007FFE000000
0000007FFE000000
0000007FFC000000
0000007FFC000000
ENDCHAR
STARTCHAR 0057
ENCODING 87
SWIDTH 765 0
DWIDTH 101 0
BBX 96 92 2 1
BITMAP
FFC00000000FF800000003FF
FFC00000001FF800000003FF
7FE00000001FF800000003FE
7FE00000001FFC00000003FE
7FE00000001FFC00000003FE
7FE00000001FFC00000007FE
3FE00000003FFC00000007FC
3FF00000003FFC00000007FC
3FF00000003FFE00000007FC
3FF00000003FFE0000000FFC
1FF00000003FFE0000000FF8
1FF80000007FFE0000000FF8
1FF80000007FFE0000000FF8
1FF80000007FFF0000000FF8
1FF80000007FFF0000001FF0
0FF80000007FFF0000001FF0
0FFC000000FFFF0000001FF0
0FFC000000FFFF0000001FF0
0FFC000000FFFF8000003FF0
07FC000000FE7F8000003FE0
07FE000000FE7F8000003FE0
07FE000001FE7F8000003FE0
07FE000001FE7F8000007FE0
03FE000001FE7FC000007FC0
03FE000001FC7FC000007FC0
03FF000001FC3FC000007FC0
03FF000003FC3FC000007FC0
03FF000003FC3FC00000FF80
01FF000003FC3FE00000FF80
01FF800003F83FE00000FF80
01FF800003F81FE00000FF80
01FF800007F81FE00001FF00
00FF800007F81FE00001FF00
00FF800007F81FF00001FF00
00FFC00007F01FF00001FF00
00FFC00007F00FF00001FF00
007FC0000FF00FF00003FE00
007FC0000FF00FF00003FE00
007FE0000FF00FF80003FE00
007FE0000FE00FF80003FE00
007FE0000FE007F80007FC00
003FE0001FE007F80007FC00
003FE0001FE007F80007FC00
003FF0001FE007FC0007FC00
003FF0001FC007FC0007F800
001FF0001FC003FC000FF800
001FF0003FC003FC000FF800
001FF8003FC003FC000FF800
001FF8003FC003FC000FF000
000FF8003F8003FE001FF000
000FF8003F8001FE001FF000
000FF8007F8001FE001FF000
000FFC007F8001FE001FE000
0007FC007F8001FE003FE000
0007FC007F0001FF003FE000
0007FC007F0000FF003FE000
0007FE00FF0000FF003FE000
0007FE00FF0000FF003FC000
0003FE00FF0000FF007FC000
0003FE00FE0000FF807FC000
0003FE00FE00007F807FC000
0003FF01FE00007F807F8000
0001FF01FE00007F80FF8000
0001FF01FE00007F80FF8000
0001FF01FC00007FC0FF8000
0001FF81FC00003FC0FF0000
0000FF83FC00003FC0FF0000
0000FF83FC00003FC1FF0000
0000FF83FC00003FC1FF0000
0000FF83F800003FE1FE0000
0000FFC3F800001FE1FE0000
00007FC7F800001FE3FE0000
00007FC7F800001FE3FE0000
00007FC7F800001FE3FC0000
00007FE7F000001FF3FC0000
00003FE7F000000FF3FC0000
00003FEFF000000FF7FC0000
00003FEFF000000FF7FC0000
00003FEFF000000FF7F80000
00001FFFE000000FFFF80000
00001FFFE000000FFFF80000
00001FFFE0000007FFF80000
00001FFFE0000007FFF00000
00001FFFE0000007FFF00000
00000FFFC0000007FFF00000
00000FFFC0000007FFF00000
00000FFFC0000003FFE00000
00000FFFC0000003FFE00000
000007FFC0000003FFE00000
000007FF80000003FFE00000
000007FF80000003FFC00000
000007FF80000001FFC00000
ENDCHAR
STARTCHAR 0058
ENCODING 88
SWIDTH 530 0
DWIDTH 70 0
BBX 68 92 1 1
BITMAP
0FFF0000000007FF00
07FF000000000FFE00
07FF800000001FFC00
03FF800000001FFC00
01FFC00000003FF800
01FFC00000003FF800
00FFE00000007FF000
00FFE00000007FF000
007FF0000000FFE000
007FF0000000FFC000
003FF8000001FFC000
003FFC000001FF8000
001FFC000003FF8000
000FFE000003FF0000
000FFE000007FF0000
0007FF000007FE0000
0007FF00000FFE0000
0003FF80000FFC0000
0003FF80001FF80000
0001FFC0001FF80000
0001FFC0003FF00000
0000FFE0003FF00000
00007FE0007FE00000
00007FF0007FE00000
00003FF000FFC00000
00003FF800FFC00000
00001FF801FF800000
00001FFC03FF000000
00000FFC03FF000000
00000FFE07FE000000
000007FE07FE000000
000003FF0FFC000000
000003FF0FFC000000
000001FF9FF8000000
000001FF9FF0000000
000000FFFFF0000000
000000FFFFE0000000
0000007FFFE0000000
0000007FFFC0000000
0000003FFFC0000000
0000001FFF80000000
0000001FFF80000000
0000000FFF00000000
0000001FFF80000000
0000001FFF80000000
0000003FFFC0000000
0000003FFFC0000000
0000007FFFE0000000
0000007FFFE0000000
000000FFFFF0000000
000000FFFFF8000000
000001FF9FF8000000
000003FF1FFC000000
000003FF0FFC000000
000007FE0FFE000000
000007FE07FE000000
00000FFC07FF000000
00000FFC03FF000000
00001FF803FF800000
00003FF801FFC00000
00003FF001FFC00000
00007FF000FFE00000
00007FE0007FE00000
0000FFE0007FF00000
0000FFC0003FF00000
0001FF80003FF80000
0003FF80001FFC0000
0003FF00001FFC0000
0007FF00000FFE0000
0007FE00000FFE0000
000FFE000007FF0000
000FFC000007FF0000
001FFC000003FF8000
003FF8000001FFC000
003FF8000001FFC000
007FF0000000FFE000
007FE0000000FFE000
00FFE00000007FF000
00FFC00000007FF000
01FFC00000003FF800
01FF800000003FFC00
03FF800000001FFC00
07FF000000001FFE00
07FF000000000FFE00
0FFE000000000FFF00
0FFE0000000007FF00
1FFC0000000003FF80
1FF80000000003FF80
3FF80000000001FFC0
7FF00000000001FFE0
7FF00000000000FFE0
FFE00000000000FFF0
ENDCHAR
STARTCHAR 0059
ENCODING 89
SWIDTH 522 0
DWIDTH 69 0
BBX 67 92 1 1
BITMAP
FFE00000000000FFE0
FFF00000000001FFC0
7FF00000000001FFC0
7FF80000000003FF80
3FF80000000003FF80
3FFC0000000007FF00
1FFC0000000007FE00
0FFE000000000FFE00
0FFE000000001FFC00
07FF000000001FFC00
07FF800000003FF800
03FF800000003FF800
03FFC00000007FF000
01FFC00000007FF000
01FFE0000000FFE000
00FFE0000000FFC000
007FF0000001FFC000
007FF0000001FF8000
003FF8000003FF8000
003FF8000003FF0000
001FFC000007FF0000
001FFC000007FE0000
000FFE00000FFE0000
0007FF00001FFC0000
0007FF00001FF80000
0003FF80003FF80000
0003FF80003FF00000
0001FFC0007FF00000
0001FFC0007FE00000
0000FFE000FFE00000
00007FE000FFC00000
00007FF001FFC00000
00003FF001FF800000
00003FF803FF000000
00001FF803FF000000
00001FFC07FE000000
00000FFE07FE000000
000007FE0FFC000000
000007FF1FFC000000
000003FF1FF8000000
000003FFBFF8000000
000001FFBFF0000000
000001FFFFE0000000
000000FFFFE0000000
0000007FFFC0000000
0000007FFFC0000000
0000003FFF80000000
0000003FFF80000000
0000001FFF00000000
0000001FFF00000000
0000000FFE00000000
00000007FC00000000
00000007FC00000000
00000007FC00000000
00000007FC00000000
00000007FC00000000
00000007FC00000000
00000007FC00000000
00000007FC00000000
00000007FC00000000
00000007FC00000000
00000007FC00000000
00000007FC00000000
00000007FC00000000
00000007FC00000000
00000007FC00000000
00000007FC00000000
00000007FC00000000
00000007FC00000000
00000007FC00000000
00000007FC00000000
00000007FC00000000
00000007FC00000000
00000007FC00000000
00000007FC00000000
00000007FC00000000
00000007FC00000000
00000007FC00000000
00000007FC00000000
00000007FC00000000
00000007FC00000000
00000007FC00000000
00000007FC00000000
00000007FC00000000
00000007FC00000000
00000007FC00000000
00000007FC00000000
00000007FC00000000
00000007FC00000000
00000007FC00000000
00000007FC00000000
00000007FC00000000
ENDCHAR
STARTCHAR 005A
ENCODING 90
SWIDTH 500 0
DWIDTH 66 0
BBX 54 92 6 0
BITMAP
FFFFFFFFFFFFFC
FFFFFFFFFFFFFC
FFFFFFFFFFFFFC
FFFFFFFFFFFFFC
FFFFFFFFFFFFFC
FFFFFFFFFFFFF8
FFFFFFFFFFFFF8
FFFFFFFFFFFFF0
FFFFFFFFFFFFF0
00000000003FE0
00000000007FC0
00000000007FC0
0000000000FF80
0000000000FF80
0000000001FF00
0000000001FF00
0000000003FE00
0000000007FE00
0000000007FC00
000000000FFC00
000000000FF800
000000001FF800
000000001FF000
000000003FF000
000000003FE000
000000007FE000
000000007FC000
00000000FFC000
00000000FF8000
00000001FF0000
00000001FF0000
00000003FE0000
00000007FE0000
00000007FC0000
0000000FFC0000
0000000FF80000
0000001FF80000
0000001FF00000
0000003FF00000
0000003FE00000
0000007FE00000
0000007FC00000
000000FFC00000
000000FF800000
000001FF800000
000001FF000000
000003FF000000
000007FE000000
000007FE000000
00000FFC000000
00000FF8000000
00001FF8000000
00001FF0000000
00003FF0000000
00003FE0000000
00007FE0000000
00007FC0000000
0000FFC0000000
0000FF80000000
0001FF80000000
0001FF00000000
0003FF00000000
0007FE00000000
0007FE00000000
000FFC00000000
000FFC00000000
001FF800000000
001FF800000000
003FF000000000
003FE000000000
007FE000000000
007FC000000000
00FFC000000000
00FF8000000000
01FF8000000000
01FF0000000000
03FF0000000000
07FE0000000000
07FE0000000000
0FFC0000000000
0FFC0000000000
1FF80000000000
1FF80000000000
3FF00000000004
3FFFFFFFFFFFFC
7FFFFFFFFFFFFC
7FFFFFFFFFFFFC
FFFFFFFFFFFFFC
FFFFFFFFFFFFFC
FFFFFFFFFFFFFC
FFFFFFFFFFFFFC
FFFFFFFFFFFFFC
ENDCHAR
STARTCHAR 005B
ENCODING 91
SWIDTH 386 0
DWIDTH 51 0
BBX 27 118 11 -26
BITMAP
FFFFFFE0
FFFFFFE0
FFFFFFE0
FFFFFFE0
FFFFFFE0
FFFFFFE0
FFFFFFE0
FFFFFFE0
FF800020
FF800000
FF800000
FF800000
FF800000
FF800000
FF800000
FF800000
FF800000
FF800000
FF800000
FF800000
FF800000
FF800000
FF800000
FF800000
FF800000
FF800000
FF800000
FF800000
FF800000
FF800000
FF800000
FF800000
FF800000
FF800000
FF800000
FF800000
FF800000
FF800000
FF800000
FF800000
FF800000
FF800000
FF800000
FF800000
FF800000
FF800000
FF800000
FF800000
FF800000
FF800000
FF800000
FF800000
FF800000
FF800000
FF800000
FF800000
FF800000
FF800000
FF800000
FF800000
FF800000
FF800000
FF800000
FF800000
FF800000
FF800000
FF800000
FF800000
FF800000
FF800000
FF800000
FF800000
FF800000
FF800000
FF800000
FF800000
FF800000
FF800000
FF800000
FF800000
FF800000
FF800000
FF800000
FF800000
FF800000
FF800000
FF800000
FF800000
FF800000
FF800000
FF800000
FF800000
FF800000
FF800000
FF800000
FF800000
FF800000
FF800000
FF800000
FF800000
FF800000
FF800000
FF800000
FF800000
FF800000
FF800000
FF800000
FF800000
FF800000
FF800020
FFFFFFE0
FFFFFFE0
FFFFFFE0
FFFFFFE0
FFFFFFE0
FFFFFFE0
FFFFFFE0
FFFFFFE0
ENDCHAR
STARTCHAR 005C
ENCODING 92
SWIDTH 424 0
DWIDTH 56 0
BBX 56 92 0 1
BITMAP
FFE00000000000
7FE00000000000
7FF00000000000
3FF00000000000
3FF80000000000
1FF80000000000
1FFC0000000000
0FFC0000000000
0FFE0000000000
07FE0000000000
07FF0000000000
03FF0000000000
03FF8000000000
01FF8000000000
01FFC000000000
00FFC000000000
00FFE000000000
007FE000000000
007FF000000000
003FF000000000
003FF800000000
001FF800000000
001FFC00000000
000FFC00000000
000FFE00000000
0007FE00000000
0007FF00000000
0003FF00000000
0003FF80000000
0001FF80000000
0001FFC0000000
0000FFC0000000
0000FFE0000000
00007FE0000000
00007FF0000000
00003FF0000000
00003FF8000000
00001FF8000000
00001FFC000000
00000FFC000000
00000FFE000000
000007FE000000
000007FF000000
000003FF000000
000003FF000000
000001FF800000
000001FF800000
000000FFC00000
000000FFC00000
0000007FE00000
0000007FE00000
0000003FF00000
0000003FF00000
0000001FF80000
0000001FF80000
0000000FFC0000
0000000FFC0000
00000007FE0000
00000007FE0000
00000003FF0000
00000003FF0000
00000001FF8000
00000001FF8000
00000000FFC000
00000000FFC000
000000007FE000
000000007FE000
000000003FF000
000000003FF000
000000001FF800
000000001FF800
000000000FFC00
000000000FFC00
0000000007FE00
0000000007FE00
0000000003FF00
0000000003FF00
0000000001FF80
0000000001FF80
0000000000FFC0
0000000000FFC0
00000000007FE0
00000000007FE0
00000000003FF0
00000000003FF0
00000000001FF8
00000000001FF8
00000000000FFC
00000000000FFC
000000000007FE
000000000007FE
000000000003FF
ENDCHAR
STARTCHAR 005D
ENCODING 93
SWIDTH 348 0
DWIDTH 46 0
BBX 27 118 8 -26
BITMAP
FFFFFFE0
FFFFFFE0
FFFFFFE0
FFFFFFE0
FFFFFFE0
FFFFFFE0
FFFFFFE0
FFFFFFE0
80003FE0
00003FE0
00003FE0
00003FE0
00003FE0
00003FE0
00003FE0
00003FE0
00003FE0
00003FE0
00003FE0
00003FE0
00003FE0
00003FE0
00003FE0
00003FE0
00003FE0
00003FE0
00003FE0
00003FE0
00003FE0
00003FE0
00003FE0
00003FE0
00003FE0
00003FE0
00003FE0
00003FE0
00003FE0
00003FE0
00003FE0
00003FE0
00003FE0
00003FE0
00003FE0
00003FE0
00003FE0
00003FE0
00003FE0
00003FE0
00003FE0
00003FE0
00003FE0
00003FE0
00003FE0
00003FE0
00003FE0
00003FE0
00003FE0
00003FE0
00003FE0
00003FE0
00003FE0
00003FE0
00003FE0
00003FE0
00003FE0
00003FE0
00003FE0
00003FE0
00003FE0
00003FE0
00003FE0
00003FE0
00003FE0
00003FE0
00003FE0
00003FE0
00003FE0
00003FE0
00003FE0
00003FE0
00003FE0
00003FE0
00003FE0
00003FE0
00003FE0
00003FE0
00003FE0
00003FE0
00003FE0
00003FE0
00003FE0
00003FE0
00003FE0
00003FE0
00003FE0
00003FE0
00003FE0
00003FE0
00003FE0
00003FE0
00003FE0
00003FE0
00003FE0
00003FE0
00003FE0
00003FE0
00003FE0
00003FE0
00003FE0
80003FE0
FFFFFFE0
FFFFFFE0
FFFFFFE0
FFFFFFE0
FFFFFFE0
FFFFFFE0
FFFFFFE0
FFFFFFE0
ENDCHAR
STARTCHAR 005E
ENCODING 94
SWIDTH 363 0
DWIDTH 48 0
BBX 45 35 1 58
BITMAP
00001FC00000
00001FC00000
00003FE00000
00003FE00000
00007FF00000
0000FFF00000
0000FFF80000
0001FFFC0000
0001FFFC0000
0003FDFE0000
0003F9FE0000
0007F8FF0000
0007F0FF0000
000FE07F8000
001FE03FC000
001FC03FC000
003FC01FE000
003F801FE000
007F000FF000
007F0007F000
00FE0007F800
00FE0003F800
01FC0001FC00
03F80001FE00
03F80000FE00
07F00000FF00
07F000007F00
0FE000003F80
0FC000003F80
1FC000001FC0
3F8000001FE0
3F8000000FE0
7F00000007F0
7E00000007F0
FE00000003F8
ENDCHAR
STARTCHAR 005F
ENCODING 95
SWIDTH 719 0
DWIDTH 95 0
BBX 80 8 8 -18
BITMAP
FFFFFFFFFFFFFFFFFFFF
FFFFFFFFFFFFFFFFFFFF
FFFFFFFFFFFFFFFFFFFF
FFFFFFFFFFFFFFFFFFFF
FFFFFFFFFFFFFFFFFFFF
FFFFFFFFFFFFFFFFFFFF
FFFFFFFFFFFFFFFFFFFF
FFFFFFFFFFFFFFFFFFFF
ENDCHAR
STARTCHAR 0060
ENCODING 96
SWIDTH 333 0
DWIDTH 44 0
BBX 22 18 12 75
BITMAP
FF8000
7FC000
7FC000
3FE000
1FF000
0FF800
07F800
03FC00
01FE00
00FF00
00FF00
007F80
003FC0
001FE0
000FE0
0007F0
0003F8
0003FC
ENDCHAR
STARTCHAR 0061
ENCODING 97
SWIDTH 462 0
DWIDTH 61 0
BBX 44 66 8 0
BITMAP
FFFFFFFFE000
FFFFFFFFFC00
FFFFFFFFFE00
FFFFFFFFFF00
FFFFFFFFFF80
FFFFFFFFFFC0
FFFFFFFFFFE0
FFFFFFFFFFE0
00000000FFE0
000000003FF0
000000003FF0
000000001FF0
000000001FF0
000000001FF0
000000001FF0
000000001FF0
000000001FF0
000000001FF0
000000001FF0
000000001FF0
000000001FF0
000000001FF0
000000001FF0
000000001FF0
000000001FF0
007FFFFFFFF0
03FFFFFFFFF0
07FFFFFFFFF0
1FFFFFFFFFF0
1FFFFFFFFFF0
3FFFFFFFFFF0
7FFFFFFFFFF0
7FF000001FF0
7FE000001FF0
FFC000001FF0
FF8000001FF0
FF8000001FF0
FF8000001FF0
FF8000001FF0
FF8000001FF0
FF8000001FF0
FF8000001FF0
FF8000001FF0
FF8000001FF0
FF8000001FF0
FF8000001FF0
FF8000001FF0
FF8000001FF0
FF8000001FF0
FF8000001FF0
FF8000001FF0
FF8000001FF0
FF8000001FF0
FF8000001FF0
FF8000001FF0
FFC000001FF0
FFE000001FF0
7FF000001FF0
7FFFFFFFFFF0
7FFFFFFFFFF0
3FFFFFFFFFF0
1FFFFFFFFFF0
1FFFFFFFFFF0
07FFFFFFFFF0
03FFFFFFFFF0
007FFFFFFFF0
ENDCHAR
STARTCHAR 0062
ENCODING 98
SWIDTH 469 0
DWIDTH 62 0
BBX 44 92 9 1
BITMAP
FF8000000000
FF8000000000
FF8000000000
FF8000000000
FF8000000000
FF8000000000
FF8000000000
FF8000000000
FF8000000000
FF8000000000
FF8000000000
FF8000000000
FF8000000000
FF8000000000
FF8000000000
FF8000000000
FF8000000000
FF8000000000
FF8000000000
FF8000000000
FF8000000000
FF8000000000
FF8000000000
FF8000000000
FF8000000000
FF8000000000
FFFFFFFFE000
FFFFFFFFFC00
FFFFFFFFFF00
FFFFFFFFFF80
FFFFFFFFFF80
FFFFFFFFFFC0
FFFFFFFFFFE0
FFFFFFFFFFE0
FF800000FFE0
FF8000007FF0
FF8000003FF0
FF8000001FF0
FF8000001FF0
FF8000001FF0
FF8000001FF0
FF8000001FF0
FF8000001FF0
FF8000001FF0
FF8000001FF0
FF8000001FF0
FF8000001FF0
FF8000001FF0
FF8000001FF0
FF8000001FF0
FF8000001FF0
FF8000001FF0
FF8000001FF0
FF8000001FF0
FF8000001FF0
FF8000001FF0
FF8000001FF0
FF8000001FF0
FF8000001FF0
FF8000001FF0
FF8000001FF0
FF8000001FF0
FF8000001FF0
FF8000001FF0
FF8000001FF0
FF8000001FF0
FF8000001FF0
FF8000001FF0
FF8000001FF0
FF8000001FF0
FF8000001FF0
FF8000001FF0
FF8000001FF0
FF8000001FF0
FF8000001FF0
FF8000001FF0
FF8000001FF0
FF8000001FF0
FF8000001FF0
FF8000001FF0
FF8000001FF0
FF8000003FF0
FF8000003FF0
FF800000FFE0
FFFFFFFFFFE0
FFFFFFFFFFE0
FFFFFFFFFFC0
FFFFFFFFFF80
FFFFFFFFFF80
FFFFFFFFFE00
FFFFFFFFFC00
FFFFFFFFE000
ENDCHAR
STARTCHAR 0063
ENCODING 99
SWIDTH 386 0
DWIDTH 51 0
BBX 38 66 9 0
BITMAP
007FFFFFFC
03FFFFFFFC
07FFFFFFFC
1FFFFFFFFC
1FFFFFFFFC
3FFFFFFFFC
7FFFFFFFFC
7FFFFFFFFC
7FF0000004
FFE0000000
FFC0000000
FFC0000000
FF80000000
FF80000000
FF80000000
FF80000000
FF80000000
FF80000000
FF80000000
FF80000000
FF80000000
FF80000000
FF80000000
FF80000000
FF80000000
FF80000000
FF80000000
FF80000000
FF80000000
FF80000000
FF80000000
FF80000000
FF80000000
FF80000000
FF80000000
FF80000000
FF80000000
FF80000000
FF80000000
FF80000000
FF80000000
FF80000000
FF80000000
FF80000000
FF80000000
FF80000000
FF80000000
FF80000000
FF80000000
FF80000000
FF80000000
FF80000000
FF80000000
FF80000000
FFC0000000
FFC0000000
FFE0000000
7FF0000000
7FFFFFFFFC
7FFFFFFFFC
3FFFFFFFFC
1FFFFFFFFC
1FFFFFFFFC
07FFFFFFFC
03FFFFFFFC
007FFFFFFC
ENDCHAR
STARTCHAR 0064
ENCODING 100
SWIDTH 469 0
DWIDTH 62 0
BBX 44 92 9 1
BITMAP
000000001FF0
000000001FF0
000000001FF0
000000001FF0
000000001FF0
000000001FF0
000000001FF0
000000001FF0
000000001FF0
000000001FF0
000000001FF0
000000001FF0
000000001FF0
000000001FF0
000000001FF0
000000001FF0
000000001FF0
000000001FF0
000000001FF0
000000001FF0
000000001FF0
000000001FF0
000000001FF0
000000001FF0
000000001FF0
000000001FF0
007FFFFFFFF0
03FFFFFFFFF0
07FFFFFFFFF0
1FFFFFFFFFF0
1FFFFFFFFFF0
3FFFFFFFFFF0
7FFFFFFFFFF0
7FFFFFFFFFF0
7FF000001FF0
FFE000001FF0
FFC000001FF0
FF8000001FF0
FF8000001FF0
FF8000001FF0
FF8000001FF0
FF8000001FF0
FF8000001FF0
FF8000001FF0
FF8000001FF0
FF8000001FF0
FF8000001FF0
FF8000001FF0
FF8000001FF0
FF8000001FF0
FF8000001FF0
FF8000001FF0
FF8000001FF0
FF8000001FF0
FF8000001FF0
FF8000001FF0
FF8000001FF0
FF8000001FF0
FF8000001FF0
FF8000001FF0
FF8000001FF0
FF8000001FF0
FF8000001FF0
FF8000001FF0
FF8000001FF0
FF8000001FF0
FF8000001FF0
FF8000001FF0
FF8000001FF0
FF8000001FF0
FF8000001FF0
FF8000001FF0
FF8000001FF0
FF8000001FF0
FF8000001FF0
FF8000001FF0
FF8000001FF0
FF8000001FF0
FF8000001FF0
FF8000001FF0
FF8000001FF0
FFC000001FF0
FFC000001FF0
7FF000001FF0
7FFFFFFFFFF0
7FFFFFFFFFF0
3FFFFFFFFFF0
1FFFFFFFFFF0
1FFFFFFFFFF0
07FFFFFFFFF0
03FFFFFFFFF0
007FFFFFFFF0
ENDCHAR
STARTCHAR 0065
ENCODING 101
SWIDTH 454 0
DWIDTH 60 0
BBX 43 66 9 0
BITMAP
007FFFFFC000
03FFFFFFF800
07FFFFFFFC00
0FFFFFFFFF00
1FFFFFFFFF00
3FFFFFFFFF80
7FFFFFFFFFC0
7FFFFFFFFFC0
7FE00000FFC0
FFC000007FE0
FFC000007FE0
FF8000003FE0
FF8000003FE0
FF8000003FE0
FF8000003FE0
FF8000003FE0
FF8000003FE0
FF8000003FE0
FF8000003FE0
FF8000003FE0
FF8000003FE0
FF8000003FE0
FF8000003FE0
FF8000003FE0
FF8000003FE0
FFFFFFFFFFE0
FFFFFFFFFFE0
FFFFFFFFFFE0
FFFFFFFFFFE0
FFFFFFFFFFE0
FFFFFFFFFFE0
FFFFFFFFFFE0
FF8000000000
FF8000000000
FF8000000000
FF8000000000
FF8000000000
FF8000000000
FF8000000000
FF8000000000
FF8000000000
FF8000000000
FF8000000000
FF8000000000
FF8000000000
FF8000000000
FF8000000000
FF8000000000
FF8000000000
FF8000000000
FF8000000000
FF8000000000
FF8000000000
FF8000000000
FF8000000000
FFC000000000
FFE000000000
7FF000000000
7FFFFFFFFFE0
7FFFFFFFFFE0
3FFFFFFFFFE0
1FFFFFFFFFE0
0FFFFFFFFFE0
07FFFFFFFFE0
03FFFFFFFFE0
007FFFFFFFE0
ENDCHAR
STARTCHAR 0066
ENCODING 102
SWIDTH 272 0
DWIDTH 36 0
BBX 27 92 9 0
BITMAP
007FFFE0
03FFFFE0
07FFFFE0
1FFFFFE0
1FFFFFE0
3FFFFFE0
7FFFFFE0
7FFFFFE0
7FF00020
FFE00000
FFC00000
FF800000
FF800000
FF800000
FF800000
FF800000
FF800000
FF800000
FF800000
FF800000
FF800000
FF800000
FF800000
FF800000
FF800000
FF800000
FFFFFFE0
FFFFFFE0
FFFFFFE0
FFFFFFE0
FFFFFFE0
FFFFFFE0
FFFFFFE0
FFFFFFE0
FF800000
FF800000
FF800000
FF800000
FF800000
FF800000
FF800000
FF800000
FF800000
FF800000
FF800000
FF800000
FF800000
FF800000
FF800000
FF800000
FF800000
FF800000
FF800000
FF800000
FF800000
FF800000
FF800000
FF800000
FF800000
FF800000
FF800000
FF800000
FF800000
FF800000
FF800000
FF800000
FF800000
FF800000
FF800000
FF800000
FF800000
FF800000
FF800000
FF800000
FF800000
FF800000
FF800000
FF800000
FF800000
FF800000
FF800000
FF800000
FF800000
FF800000
FF800000
FF800000
FF800000
FF800000
FF800000
FF800000
FF800000
FF800000
ENDCHAR
STARTCHAR 0067
ENCODING 103
SWIDTH 469 0
DWIDTH 62 0
BBX 44 92 9 -26
BITMAP
007FFFFFFFF0
03FFFFFFFFF0
07FFFFFFFFF0
0FFFFFFFFFF0
1FFFFFFFFFF0
3FFFFFFFFFF0
7FFFFFFFFFF0
7FFFFFFFFFF0
7FF000001FF0
FFE000001FF0
FFC000001FF0
FF8000001FF0
FF8000001FF0
FF8000001FF0
FF8000001FF0
FF8000001FF0
FF8000001FF0
FF8000001FF0
FF8000001FF0
FF8000001FF0
FF8000001FF0
FF8000001FF0
FF8000001FF0
FF8000001FF0
FF8000001FF0
FF8000001FF0
FF8000001FF0
FF8000001FF0
FF8000001FF0
FF8000001FF0
FF8000001FF0
FF8000001FF0
FF8000001FF0
FF8000001FF0
FF8000001FF0
FF8000001FF0
FF8000001FF0
FF8000001FF0
FF8000001FF0
FF8000001FF0
FF8000001FF0
FF8000001FF0
FF8000001FF0
FF8000001FF0
FF8000001FF0
FF8000001FF0
FF8000001FF0
FF8000001FF0
FF8000001FF0
FF8000001FF0
FF8000001FF0
FF8000001FF0
FF8000001FF0
FF8000001FF0
FF8000001FF0
FFC000001FF0
FFC000001FF0
7FF000001FF0
7FFFFFFFFFF0
7FFFFFFFFFF0
3FFFFFFFFFF0
1FFFFFFFFFF0
1FFFFFFFFFF0
07FFFFFFFFF0
03FFFFFFFFF0
007FFFFFFFF0
000000001FF0
000000001FF0
000000001FF0
000000001FF0
000000001FF0
000000001FF0
000000001FF0
000000001FF0
000000001FF0
000000001FF0
000000001FF0
000000001FF0
000000001FF0
000000001FF0
000000001FF0
000000003FF0
000000003FF0
80000000FFE0
FFFFFFFFFFE0
FFFFFFFFFFE0
FFFFFFFFFFC0
FFFFFFFFFF80
FFFFFFFFFF00
FFFFFFFFFE00
FFFFFFFFF800
FFFFFFFFC000
ENDCHAR
STARTCHAR 0068
ENCODING 104
SWIDTH 469 0
DWIDTH 62 0
BBX 44 92 9 1
BITMAP
FF8000000000
FF8000000000
FF8000000000
FF8000000000
FF8000000000
FF8000000000
FF8000000000
FF8000000000
FF8000000000
FF8000000000
FF8000000000
FF8000000000
FF8000000000
FF8000000000
FF8000000000
FF8000000000
FF8000000000
FF8000000000
FF8000000000
FF8000000000
FF8000000000
FF8000000000
FF8000000000
FF8000000000
FF8000000000
FF8000000000
FFFFFFFFE000
FFFFFFFFFC00
FFFFFFFFFE00
FFFFFFFFFF80
FFFFFFFFFF80
FFFFFFFFFFC0
FFFFFFFFFFE0
FFFFFFFFFFE0
FF800000FFE0
FF8000007FF0
FF8000003FF0
FF8000001FF0
FF8000001FF0
FF8000001FF0
FF8000001FF0
FF8000001FF0
FF8000001FF0
FF8000001FF0
FF8000001FF0
FF8000001FF0
FF8000001FF0
FF8000001FF0
FF8000001FF0
FF8000001FF0
FF8000001FF0
FF8000001FF0
FF8000001FF0
FF8000001FF0
FF8000001FF0
FF8000001FF0
FF8000001FF0
FF8000001FF0
FF8000001FF0
FF8000001FF0
FF8000001FF0
FF8000001FF0
FF8000001FF0
FF8000001FF0
FF8000001FF0
FF8000001FF0
FF8000001FF0
FF8000001FF0
FF8000001FF0
FF8000001FF0
FF8000001FF0
FF8000001FF0
FF8000001FF0
FF8000001FF0
FF8000001FF0
FF8000001FF0
FF8000001FF0
FF8000001FF0
FF8000001FF0
FF8000001FF0
FF8000001FF0
FF8000001FF0
FF8000001FF0
FF8000001FF0
FF8000001FF0
FF8000001FF0
FF8000001FF0
FF8000001FF0
FF8000001FF0
FF8000001FF0
FF8000001FF0
FF8000001FF0
ENDCHAR
STARTCHAR 0069
ENCODING 105
SWIDTH 204 0
DWIDTH 27 0
BBX 9 86 9 0
BITMAP
FF80
FF80
FF80
FF80
FF80
FF80
FF80
FF80
FF80
FF80
0000
0000
0000
0000
0000
0000
0000
0000
0000
0000
FF80
FF80
FF80
FF80
FF80
FF80
FF80
FF80
FF80
FF80
FF80
FF80
FF80
FF80
FF80
FF80
FF80
FF80
FF80
FF80
FF80
FF80
FF80
FF80
FF80
FF80
FF80
FF80
FF80
FF80
FF80
FF80
FF80
FF80
FF80
FF80
FF80
FF80
FF80
FF80
FF80
FF80
FF80
FF80
FF80
FF80
FF80
FF80
FF80
FF80
FF80
FF80
FF80
FF80
FF80
FF80
FF80
FF80
FF80
FF80
FF80
FF80
FF80
FF80
FF80
FF80
ENDCHAR
STARTCHAR 006A
ENCODING 106
SWIDTH 204 0
DWIDTH 27 0
BBX 14 112 4 -26
BITMAP
07FC
07FC
07FC
07FC
07FC
07FC
07FC
07FC
07FC
07FC
0000
0000
0000
0000
0000
0000
0000
0000
0000
07FC
07FC
07FC
07FC
07FC
07FC
07FC
07FC
07FC
07FC
07FC
07FC
07FC
07FC
07FC
07FC
07FC
07FC
07FC
07FC
07FC
07FC
07FC
07FC
07FC
07FC
07FC
07FC
07FC
07FC
07FC
07FC
07FC
07FC
07FC
07FC
07FC
07FC
07FC
07FC
07FC
07FC
07FC
07FC
07FC
07FC
07FC
07FC
07FC
07FC
07FC
07FC
07FC
07FC
07FC
07FC
07FC
07FC
07FC
07FC
07FC
07FC
07FC
07FC
07FC
07FC
07FC
07FC
07FC
07FC
07FC
07FC
07FC
07FC
07FC
0FFC
0FF8
0FF8
0FF8
0FF8
0FF8
0FF8
1FF8
1FF0
1FF0
1FF0
3FF0
3FE0
3FE0
7FE0
7FE0
7FC0
FFC0
ENDCHAR
STARTCHAR 006B
ENCODING 107
SWIDTH 446 0
DWIDTH 59 0
BBX 45 92 9 1
BITMAP
FF8000000000
FF8000000000
FF8000000000
FF8000000000
FF8000000000
FF8000000000
FF8000000000
FF8000000000
FF8000000000
FF8000000000
FF8000000000
FF8000000000
FF8000000000
FF8000000000
FF8000000000
FF8000000000
FF8000000000
FF8000000000
FF8000000000
FF8000000000
FF8000000000
FF8000000000
FF8000000000
FF8000000000
FF8000000000
FF8000000000
FF8000003FF0
FF8000003FE0
FF8000007FE0
FF8000007FC0
FF800000FFC0
FF800000FFC0
FF800001FF80
FF800001FF80
FF800003FF00
FF800003FF00
FF800003FE00
FF800007FE00
FF800007FC00
FF80000FFC00
FF80000FF800
FF80001FF800
FF80001FF000
FF80003FF000
FF80003FF000
FF80007FE000
FF80007FE000
FF80007FC000
FF8000FFC000
FF8001FF8000
FF8001FF8000
FF8007FF0000
FFFFFFFE0000
FFFFFFFE0000
FFFFFFFC0000
FFFFFFF00000
FFFFFFF80000
FFFFFFFC0000
FFFFFFFE0000
FFFFFFFF0000
FF8007FF0000
FF8001FF8000
FF8001FF8000
FF8000FFC000
FF80007FC000
FF80007FE000
FF80007FE000
FF80003FE000
FF80003FF000
FF80001FF000
FF80001FF800
FF80001FF800
FF80000FF800
FF80000FFC00
FF80000FFC00
FF800007FE00
FF800007FE00
FF800003FF00
FF800003FF00
FF800003FF00
FF800001FF80
FF800001FF80
FF800000FFC0
FF800000FFC0
FF800000FFC0
FF8000007FE0
FF8000007FE0
FF8000003FF0
FF8000003FF0
FF8000003FF8
FF8000001FF8
FF8000001FF8
ENDCHAR
STARTCHAR 006C
ENCODING 108
SWIDTH 204 0
DWIDTH 27 0
BBX 9 92 9 1
BITMAP
FF80
FF80
FF80
FF80
FF80
FF80
FF80
FF80
FF80
FF80
FF80
FF80
FF80
FF80
FF80
FF80
FF80
FF80
FF80
FF80
FF80
FF80
FF80
FF80
FF80
FF80
FF80
FF80
FF80
FF80
FF80
FF80
FF80
FF80
FF80
FF80
FF80
FF80
FF80
FF80
FF80
FF80
FF80
FF80
FF80
FF80
FF80
FF80
FF80
FF80
FF80
FF80
FF80
FF80
FF80
FF80
FF80
FF80
FF80
FF80
FF80
FF80
FF80
FF80
FF80
FF80
FF80
FF80
FF80
FF80
FF80
FF80
FF80
FF80
FF80
FF80
FF80
FF80
FF80
FF80
FF80
FF80
FF80
FF80
FF80
FF80
FF80
FF80
FF80
FF80
FF80
FF80
ENDCHAR
STARTCHAR 006D
ENCODING 109
SWIDTH 674 0
DWIDTH 89 0
BBX 71 66 9 0
BITMAP
FFFFFFF0001FFFFC00
FFFFFFFE007FFFFF80
FFFFFFFF81FFFFFFE0
FFFFFFFFC3FFFFFFF0
FFFFFFFFE7FFFFFFF0
FFFFFFFFE7FFFFFFF8
FFFFFFFFEFFFFFFFFC
FFFFFFFFFFFFFFFFFC
FF80000FFFE0001FFC
FF800007FFC00007FE
FF800003FF800007FE
FF800001FF000003FE
FF800001FF000003FE
FF800001FF000003FE
FF800001FF000003FE
FF800001FF000003FE
FF800001FF000003FE
FF800001FF000003FE
FF800001FF000003FE
FF800001FF000003FE
FF800001FF000003FE
FF800001FF000003FE
FF800001FF000003FE
FF800001FF000003FE
FF800001FF000003FE
FF800001FF000003FE
FF800001FF000003FE
FF800001FF000003FE
FF800001FF000003FE
FF800001FF000003FE
FF800001FF000003FE
FF800001FF000003FE
FF800001FF000003FE
FF800001FF000003FE
FF800001FF000003FE
FF800001FF000003FE
FF800001FF000003FE
FF800001FF000003FE
FF800001FF000003FE
FF800001FF000003FE
FF800001FF000003FE
FF800001FF000003FE
FF800001FF000003FE
FF800001FF000003FE
FF800001FF000003FE
FF800001FF000003FE
FF800001FF000003FE
FF800001FF000003FE
FF800001FF000003FE
FF800001FF000003FE
FF800001FF000003FE
FF800001FF000003FE
FF800001FF000003FE
FF800001FF000003FE
FF800001FF000003FE
FF800001FF000003FE
FF800001FF000003FE
FF800001FF000003FE
FF800001FF000003FE
FF800001FF000003FE
FF800001FF000003FE
FF800001FF000003FE
FF800001FF000003FE
FF800001FF000003FE
FF800001FF000003FE
FF800001FF000003FE
ENDCHAR
STARTCHAR 006E
ENCODING 110
SWIDTH 469 0
DWIDTH 62 0
BBX 44 66 9 0
BITMAP
FFFFFFFFE000
FFFFFFFFFC00
FFFFFFFFFE00
FFFFFFFFFF80
FFFFFFFFFF80
FFFFFFFFFFC0
FFFFFFFFFFE0
FFFFFFFFFFE0
FF800000FFE0
FF8000007FF0
FF8000003FF0
FF8000001FF0
FF8000001FF0
FF8000001FF0
FF8000001FF0
FF8000001FF0
FF8000001FF0
FF8000001FF0
FF8000001FF0
FF8000001FF0
FF8000001FF0
FF8000001FF0
FF8000001FF0
FF8000001FF0
FF8000001FF0
FF8000001FF0
FF8000001FF0
FF8000001FF0
FF8000001FF0
FF8000001FF0
FF8000001FF0
FF8000001FF0
FF8000001FF0
FF8000001FF0
FF8000001FF0
FF8000001FF0
FF8000001FF0
FF8000001FF0
FF8000001FF0
FF8000001FF0
FF8000001FF0
FF8000001FF0
FF8000001FF0
FF8000001FF0
FF8000001FF0
FF8000001FF0
FF8000001FF0
FF8000001FF0
FF8000001FF0
FF8000001FF0
FF8000001FF0
FF8000001FF0
FF8000001FF0
FF8000001FF0
FF8000001FF0
FF8000001FF0
FF8000001FF0
FF8000001FF0
FF8000001FF0
FF8000001FF0
FF8000001FF0
FF8000001FF0
FF8000001FF0
FF8000001FF0
FF8000001FF0
FF8000001FF0
ENDCHAR
STARTCHAR 006F
ENCODING 111
SWIDTH 469 0
DWIDTH 62 0
BBX 44 66 9 0
BITMAP
007FFFFFE000
03FFFFFFFC00
07FFFFFFFE00
0FFFFFFFFF80
1FFFFFFFFF80
3FFFFFFFFFC0
7FFFFFFFFFE0
7FFFFFFFFFE0
7FF00000FFE0
FFE000007FF0
FFC000003FF0
FF8000001FF0
FF8000001FF0
FF8000001FF0
FF8000001FF0
FF8000001FF0
FF8000001FF0
FF8000001FF0
FF8000001FF0
FF8000001FF0
FF8000001FF0
FF8000001FF0
FF8000001FF0
FF8000001FF0
FF8000001FF0
FF8000001FF0
FF8000001FF0
FF8000001FF0
FF8000001FF0
FF8000001FF0
FF8000001FF0
FF8000001FF0
FF8000001FF0
FF8000001FF0
FF8000001FF0
FF8000001FF0
FF8000001FF0
FF8000001FF0
FF8000001FF0
FF8000001FF0
FF8000001FF0
FF8000001FF0
FF8000001FF0
FF8000001FF0
FF8000001FF0
FF8000001FF0
FF8000001FF0
FF8000001FF0
FF8000001FF0
FF8000001FF0
FF8000001FF0
FF8000001FF0
FF8000001FF0
FF8000001FF0
FF8000001FF0
FFC000003FF0
FFC000003FF0
7FF00000FFE0
7FFFFFFFFFE0
7FFFFFFFFFE0
3FFFFFFFFFC0
1FFFFFFFFF80
1FFFFFFFFF80
07FFFFFFFE00
03FFFFFFFC00
007FFFFFE000
ENDCHAR
STARTCHAR 0070
ENCODING 112
SWIDTH 469 0
DWIDTH 62 0
BBX 44 92 9 -27
BITMAP
FFFFFFFFE000
FFFFFFFFFC00
FFFFFFFFFE00
FFFFFFFFFF80
FFFFFFFFFF80
FFFFFFFFFFC0
FFFFFFFFFFE0
FFFFFFFFFFE0
FF800000FFE0
FF8000007FF0
FF8000003FF0
FF8000001FF0
FF8000001FF0
FF8000001FF0
FF8000001FF0
FF8000001FF0
FF8000001FF0
FF8000001FF0
FF8000001FF0
FF8000001FF0
FF8000001FF0
FF8000001FF0
FF8000001FF0
FF8000001FF0
FF8000001FF0
FF8000001FF0
FF8000001FF0
FF8000001FF0
FF8000001FF0
FF8000001FF0
FF8000001FF0
FF8000001FF0
FF8000001FF0
FF8000001FF0
FF8000001FF0
FF8000001FF0
FF8000001FF0
FF8000001FF0
FF8000001FF0
FF8000001FF0
FF8000001FF0
FF8000001FF0
FF8000001FF0
FF8000001FF0
FF8000001FF0
FF8000001FF0
FF8000001FF0
FF8000001FF0
FF8000001FF0
FF8000001FF0
FF8000001FF0
FF8000001FF0
FF8000001FF0
FF8000001FF0
FF8000001FF0
FF8000003FF0
FF8000003FF0
FF800000FFE0
FFFFFFFFFFE0
FFFFFFFFFFE0
FFFFFFFFFFC0
FFFFFFFFFF80
FFFFFFFFFF80
FFFFFFFFFE00
FFFFFFFFFC00
FFFFFFFFE000
FF8000000000
FF8000000000
FF8000000000
FF8000000000
FF8000000000
FF8000000000
FF8000000000
FF8000000000
FF8000000000
FF8000000000
FF8000000000
FF8000000000
FF8000000000
FF8000000000
FF8000000000
FF8000000000
FF8000000000
FF8000000000
FF8000000000
FF8000000000
FF8000000000
FF8000000000
FF8000000000
FF8000000000
FF8000000000
FF8000000000
ENDCHAR
STARTCHAR 0071
ENCODING 113
SWIDTH 469 0
DWIDTH 62 0
BBX 44 92 9 -27
BITMAP
007FFFFFFFF0
03FFFFFFFFF0
07FFFFFFFFF0
1FFFFFFFFFF0
1FFFFFFFFFF0
3FFFFFFFFFF0
7FFFFFFFFFF0
7FFFFFFFFFF0
7FF000001FF0
FFE000001FF0
FFC000001FF0
FF8000001FF0
FF8000001FF0
FF8000001FF0
FF8000001FF0
FF8000001FF0
FF8000001FF0
FF8000001FF0
FF8000001FF0
FF8000001FF0
FF8000001FF0
FF8000001FF0
FF8000001FF0
FF8000001FF0
FF8000001FF0
FF8000001FF0
FF8000001FF0
FF8000001FF0
FF8000001FF0
FF8000001FF0
FF8000001FF0
FF8000001FF0
FF8000001FF0
FF8000001FF0
FF8000001FF0
FF8000001FF0
FF8000001FF0
FF8000001FF0
FF8000001FF0
FF8000001FF0
FF8000001FF0
FF8000001FF0
FF8000001FF0
FF8000001FF0
FF8000001FF0
FF8000001FF0
FF8000001FF0
FF8000001FF0
FF8000001FF0
FF8000001FF0
FF8000001FF0
FF8000001FF0
FF8000001FF0
FF8000001FF0
FF8000001FF0
FFC000001FF0
FFC000001FF0
7FF000001FF0
7FFFFFFFFFF0
7FFFFFFFFFF0
3FFFFFFFFFF0
1FFFFFFFFFF0
1FFFFFFFFFF0
0FFFFFFFFFF0
03FFFFFFFFF0
007FFFFFFFF0
000000001FF0
000000001FF0
000000001FF0
000000001FF0
000000001FF0
000000001FF0
000000001FF0
000000001FF0
000000001FF0
000000001FF0
000000001FF0
000000001FF0
000000001FF0
000000001FF0
000000001FF0
000000001FF0
000000001FF0
000000001FF0
000000001FF0
000000001FF0
000000001FF0
000000001FF0
000000001FF0
000000001FF0
000000001FF0
000000001FF0
ENDCHAR
STARTCHAR 0072
ENCODING 114
SWIDTH 303 0
DWIDTH 40 0
BBX 29 66 9 0
BITMAP
FF81FFF8
FF8FFFF8
FF9FFFF8
FFBFFFF8
FFBFFFF8
FFFFFFF8
FFFFFFF8
FFFFFFF8
FFFC0038
FFF00000
FFE00000
FFC00000
FFC00000
FF800000
FF800000
FF800000
FF800000
FF800000
FF800000
FF800000
FF800000
FF800000
FF800000
FF800000
FF800000
FF800000
FF800000
FF800000
FF800000
FF800000
FF800000
FF800000
FF800000
FF800000
FF800000
FF800000
FF800000
FF800000
FF800000
FF800000
FF800000
FF800000
FF800000
FF800000
FF800000
FF800000
FF800000
FF800000
FF800000
FF800000
FF800000
FF800000
FF800000
FF800000
FF800000
FF800000
FF800000
FF800000
FF800000
FF800000
FF800000
FF800000
FF800000
FF800000
FF800000
FF800000
ENDCHAR
STARTCHAR 0073
ENCODING 115
SWIDTH 409 0
DWIDTH 54 0
BBX 40 66 7 0
BITMAP
003FFFFFFF
01FFFFFFFF
07FFFFFFFF
0FFFFFFFFF
1FFFFFFFFF
3FFFFFFFFF
3FFFFFFFFF
7FFFFFFFFF
7FF0000001
FFE0000000
FFC0000000
FF80000000
FF80000000
FF80000000
FF80000000
FF80000000
FF80000000
FF80000000
FFC0000000
FFC0000000
7FE0000000
7FF0000000
7FF8000000
3FFE000000
3FFF000000
1FFFC00000
0FFFE00000
07FFF80000
01FFFE0000
00FFFF0000
003FFFC000
001FFFF000
0007FFF800
0003FFFE00
0000FFFF00
00003FFFC0
00001FFFE0
000007FFF0
000003FFF8
000000FFFC
0000007FFC
0000001FFE
0000000FFE
00000007FF
00000003FF
00000003FF
00000001FF
00000001FF
00000001FF
00000001FF
00000001FF
00000001FF
00000001FF
00000001FF
00000001FF
00000003FF
00000003FF
0000000FFE
FFFFFFFFFE
FFFFFFFFFE
FFFFFFFFFC
FFFFFFFFF8
FFFFFFFFF8
FFFFFFFFE0
FFFFFFFFC0
FFFFFFFE00
ENDCHAR
STARTCHAR 0074
ENCODING 116
SWIDTH 303 0
DWIDTH 40 0
BBX 26 84 9 0
BITMAP
00800000
01800000
07800000
1F800000
3F800000
FF800000
FF800000
FF800000
FF800000
FF800000
FF800000
FF800000
FF800000
FF800000
FF800000
FF800000
FF800000
FF800000
FFFFFFC0
FFFFFFC0
FFFFFFC0
FFFFFFC0
FFFFFFC0
FFFFFFC0
FFFFFFC0
FFFFFFC0
FF800000
FF800000
FF800000
FF800000
FF800000
FF800000
FF800000
FF800000
FF800000
FF800000
FF800000
FF800000
FF800000
FF800000
FF800000
FF800000
FF800000
FF800000
FF800000
FF800000
FF800000
FF800000
FF800000
FF800000
FF800000
FF800000
FF800000
FF800000
FF800000
FF800000
FF800000
FF800000
FF800000
FF800000
FF800000
FF800000
FF800000
FF800000
FF800000
FF800000
FF800000
FF800000
FF800000
FF800000
FF800000
FF800000
FFC00000
FFC00000
FFE00000
7FF00000
7FFFFFC0
7FFFFFC0
3FFFFFC0
1FFFFFC0
1FFFFFC0
07FFFFC0
03FFFFC0
007FFFC0
ENDCHAR
STARTCHAR 0075
ENCODING 117
SWIDTH 469 0
DWIDTH 62 0
BBX 44 66 9 0
BITMAP
FF8000001FF0
FF8000001FF0
FF8000001FF0
FF8000001FF0
FF8000001FF0
FF8000001FF0
FF8000001FF0
FF8000001FF0
FF8000001FF0
FF8000001FF0
FF8000001FF0
FF8000001FF0
FF8000001FF0
FF8000001FF0
FF8000001FF0
FF8000001FF0
FF8000001FF0
FF8000001FF0
FF8000001FF0
FF8000001FF0
FF8000001FF0
FF8000001FF0
FF8000001FF0
FF8000001FF0
FF8000001FF0
FF8000001FF0
FF8000001FF0
FF8000001FF0
FF8000001FF0
FF8000001FF0
FF8000001FF0
FF8000001FF0
FF8000001FF0
FF8000001FF0
FF8000001FF0
FF8000001FF0
FF8000001FF0
FF8000001FF0
FF8000001FF0
FF8000001FF0
FF8000001FF0
FF8000001FF0
FF8000001FF0
FF8000001FF0
FF8000001FF0
FF8000001FF0
FF8000001FF0
FF8000001FF0
FF8000001FF0
FF8000001FF0
FF8000001FF0
FF8000001FF0
FF8000001FF0
FF8000001FF0
FF8000001FF0
FFC000001FF0
FFC000001FF0
7FF000001FF0
7FFFFFFFFFF0
7FFFFFFFFFF0
3FFFFFFFFFF0
1FFFFFFFFFF0
1FFFFFFFFFF0
07FFFFFFFFF0
03FFFFFFFFF0
007FFFFFFFF0
ENDCHAR
STARTCHAR 0076
ENCODING 118
SWIDTH 409 0
DWIDTH 54 0
BBX 51 66 2 0
BITMAP
FFC00000007FE0
FFE00000007FE0
7FE0000000FFC0
7FE0000000FFC0
7FF0000000FFC0
3FF0000000FF80
3FF0000001FF80
3FF0000001FF80
1FF8000001FF00
1FF8000001FF00
1FF8000003FF00
1FF8000003FF00
0FFC000003FE00
0FFC000007FE00
0FFC000007FE00
07FE000007FC00
07FE000007FC00
07FE00000FFC00
03FE00000FF800
03FF00000FF800
03FF00000FF800
03FF00001FF000
01FF00001FF000
01FF80001FF000
01FF80003FF000
00FF80003FE000
00FFC0003FE000
00FFC0003FE000
007FC0007FC000
007FC0007FC000
007FE0007FC000
003FE0007F8000
003FE000FF8000
003FE000FF8000
003FF000FF8000
001FF001FF0000
001FF001FF0000
001FF801FF0000
000FF801FE0000
000FF803FE0000
000FF803FE0000
0007FC03FC0000
0007FC03FC0000
0007FC07FC0000
0007FC07F80000
0003FE07F80000
0003FE07F80000
0003FE0FF80000
0001FF0FF00000
0001FF0FF00000
0001FF1FF00000
0000FF1FE00000
0000FF9FE00000
0000FF9FE00000
0000FFBFC00000
00007FBFC00000
00007FFFC00000
00007FFFC00000
00003FFF800000
00003FFF800000
00003FFF800000
00001FFF000000
00001FFF000000
00001FFF000000
00001FFE000000
00000FFE000000
ENDCHAR
STARTCHAR 0077
ENCODING 119
SWIDTH 636 0
DWIDTH 84 0
BBX 79 66 3 0
BITMAP
FFC000001FF8000007FE
FFE000003FF8000007FE
7FE000003FF8000007FC
7FE000003FF800000FFC
7FE000003FFC00000FFC
7FE000003FFC00000FFC
3FF000007FFC00000FF8
3FF000007FFC00001FF8
3FF000007FFC00001FF8
1FF000007FFE00001FF0
1FF800007FFE00001FF0
1FF80000FFFE00003FF0
1FF80000FFFE00003FF0
0FF80000FEFE00003FE0
0FFC0000FEFF00003FE0
0FFC0000FEFF00007FE0
0FFC0001FEFF00007FC0
07FC0001FCFF00007FC0
07FE0001FC7F00007FC0
07FE0001FC7F80007FC0
07FE0001FC7F8000FF80
03FE0003FC7F8000FF80
03FF0003F87F8000FF80
03FF0003F83F8000FF80
01FF0003F83FC001FF00
01FF0003F83FC001FF00
01FF0003F83FC001FF00
01FF8007F03FC001FE00
00FF8007F01FC003FE00
00FF8007F01FE003FE00
00FF8007F01FE003FE00
00FFC007F01FE003FC00
007FC00FE01FE007FC00
007FC00FE00FE007FC00
007FC00FE00FF007FC00
007FE00FE00FF007F800
003FE00FE00FF007F800
003FE01FC00FF00FF800
003FE01FC007F00FF000
001FF01FC007F80FF000
001FF01FC007F80FF000
001FF01FC007F81FF000
001FF03F8007F81FE000
000FF83F8003F81FE000
000FF83F8003FC1FE000
000FF83F8003FC3FE000
000FF83F8003FC3FC000
0007F87F0003FC3FC000
0007FC7F0001FC3FC000
0007FC7F0001FC7F8000
0007FC7F0001FE7F8000
0003FC7F0001FE7F8000
0003FEFE0001FE7F8000
0003FEFE0000FEFF0000
0001FEFE0000FEFF0000
0001FEFE0000FFFF0000
0001FFFE0000FFFF0000
0001FFFC0000FFFE0000
0000FFFC00007FFE0000
0000FFFC00007FFE0000
0000FFFC00007FFC0000
0000FFFC00007FFC0000
00007FF800007FFC0000
00007FF800003FFC0000
00007FF800003FF80000
00007FF800003FF80000
ENDCHAR
STARTCHAR 0078
ENCODING 120
SWIDTH 431 0
DWIDTH 57 0
BBX 51 66 3 0
BITMAP
FFE0000000FFE0
7FF0000000FFC0
3FF0000001FF80
3FF8000001FF80
1FF8000003FF00
1FFC000003FF00
0FFC000007FE00
07FE00000FFC00
07FF00000FFC00
03FF00001FF800
03FF80001FF800
01FF80003FF000
00FFC0007FE000
00FFC0007FE000
007FE000FFC000
003FF000FF8000
003FF001FF8000
001FF801FF0000
001FF803FF0000
000FFC07FE0000
0007FE07FC0000
0007FE0FFC0000
0003FF0FF80000
0003FF1FF00000
0001FF9FF00000
0000FFBFE00000
0000FFFFE00000
00007FFFC00000
00003FFF800000
00003FFF800000
00001FFF000000
00001FFF000000
00000FFE000000
00000FFE000000
00000FFF000000
00001FFF000000
00003FFF800000
00003FFFC00000
00007FFFC00000
0000FFFFE00000
0000FFBFE00000
0001FFBFF00000
0001FF1FF80000
0003FE1FF80000
0007FE0FFC0000
0007FC07FC0000
000FFC07FE0000
000FF803FF0000
001FF803FF0000
003FF001FF8000
003FE001FFC000
007FE000FFC000
00FFC0007FE000
00FFC0007FE000
01FF80003FF000
01FF80003FF800
03FF00001FF800
07FE00001FFC00
07FE00000FFC00
0FFC000007FE00
0FFC000007FF00
1FF8000003FF00
3FF0000003FF80
3FF0000001FF80
7FE0000000FFC0
FFE0000000FFE0
ENDCHAR
STARTCHAR 0079
ENCODING 121
SWIDTH 409 0
DWIDTH 54 0
BBX 51 92 2 -27
BITMAP
FFC00000007FE0
FFE00000007FE0
7FE0000000FFC0
7FE0000000FFC0
7FF0000000FFC0
3FF0000000FF80
3FF0000001FF80
3FF0000001FF80
1FF8000001FF00
1FF8000001FF00
1FF8000003FF00
1FF8000003FE00
0FFC000003FE00
0FFC000007FE00
0FFC000007FE00
07FE000007FC00
07FE000007FC00
07FE00000FFC00
03FE00000FF800
03FF00000FF800
03FF00000FF800
03FF00001FF000
01FF00001FF000
01FF80001FF000
01FF80001FE000
00FF80003FE000
00FF80003FE000
00FFC0003FE000
007FC0007FC000
007FC0007FC000
007FE0007FC000
003FE0007F8000
003FE000FF8000
003FE000FF8000
003FF000FF0000
001FF000FF0000
001FF001FF0000
001FF001FF0000
000FF801FE0000
000FF803FE0000
000FF803FE0000
0007FC03FC0000
0007FC03FC0000
0007FC07FC0000
0007FC07F80000
0003FE07F80000
0003FE07F80000
0003FE0FF00000
0001FE0FF00000
0001FF0FF00000
0001FF0FF00000
0000FF1FE00000
0000FF9FE00000
0000FF9FE00000
0000FFBFC00000
00007FBFC00000
00007FFFC00000
00007FFF800000
00003FFF800000
00003FFF800000
00003FFF000000
00001FFF000000
00001FFF000000
00001FFF000000
00001FFE000000
00000FFE000000
000007FE000000
000007FC000000
000007FC000000
00000FFC000000
00000FF8000000
00000FF8000000
00001FF8000000
00001FF0000000
00001FF0000000
00003FF0000000
00003FF0000000
00003FE0000000
00007FE0000000
00007FE0000000
00007FC0000000
0000FFC0000000
0000FFC0000000
0001FF80000000
0001FF80000000
0001FF80000000
0003FF80000000
0003FF00000000
0003FF00000000
0007FF00000000
0007FE00000000
0007FE00000000
ENDCHAR
STARTCHAR 007A
ENCODING 122
SWIDTH 409 0
DWIDTH 54 0
BBX 44 66 5 0
BITMAP
FFFFFFFFFFF0
FFFFFFFFFFF0
FFFFFFFFFFF0
FFFFFFFFFFF0
FFFFFFFFFFF0
FFFFFFFFFFE0
FFFFFFFFFFC0
FFFFFFFFFFC0
00000000FF80
00000000FF80
00000001FF00
00000001FE00
00000003FE00
00000007FC00
00000007FC00
0000000FF800
0000000FF000
0000001FF000
0000003FE000
0000003FE000
0000007FC000
0000007F8000
000000FF8000
000001FF0000
000001FF0000
000003FE0000
000007FC0000
000007FC0000
00000FF80000
00000FF80000
00001FF00000
00003FE00000
00003FE00000
00007FC00000
00007FC00000
0000FF800000
0001FF000000
0001FF000000
0003FE000000
0003FE000000
0007FC000000
000FF8000000
000FF8000000
001FF0000000
003FF0000000
003FE0000000
007FE0000000
007FC0000000
00FF80000000
01FF80000000
01FF00000000
03FF00000000
03FE00000000
07FC00000000
0FFC00000000
0FF800000000
1FF800000000
1FF000000000
3FFFFFFFFFF0
7FFFFFFFFFF0
7FFFFFFFFFF0
FFFFFFFFFFF0
FFFFFFFFFFF0
FFFFFFFFFFF0
FFFFFFFFFFF0
FFFFFFFFFFF0
ENDCHAR
STARTCHAR 007B
ENCODING 123
SWIDTH 333 0
DWIDTH 44 0
BBX 34 118 3 -26
BITMAP
0000003FC0
000007FFC0
00003FFFC0
0000FFFFC0
0001FFFFC0
0007FFFFC0
000FFFFFC0
000FFFFFC0
001FFFF000
001FFF0000
003FFC0000
003FF00000
007FE00000
007FE00000
007FC00000
007FC00000
00FFC00000
00FF800000
00FF800000
00FF800000
00FF800000
00FF800000
00FF800000
00FF800000
00FF800000
00FF800000
00FF800000
00FF800000
00FF800000
00FF800000
00FF800000
00FF800000
00FF800000
00FF800000
00FF800000
00FF800000
00FF800000
00FF800000
00FF800000
00FF800000
00FF800000
00FF800000
00FF800000
00FF800000
00FF800000
00FF800000
00FF800000
00FF800000
00FF800000
01FF800000
01FF800000
03FF000000
07FF000000
0FFE000000
FFFC000000
FFF8000000
FFF0000000
FFF0000000
FFFC000000
FFFE000000
1FFE000000
07FF000000
03FF000000
01FF800000
01FF800000
00FF800000
00FF800000
00FF800000
00FF800000
00FF800000
00FF800000
00FF800000
00FF800000
00FF800000
00FF800000
00FF800000
00FF800000
00FF800000
00FF800000
00FF800000
00FF800000
00FF800000
00FF800000
00FF800000
00FF800000
00FF800000
00FF800000
00FF800000
00FF800000
00FF800000
00FF800000
00FF800000
00FF800000
00FF800000
00FF800000
00FF800000
00FF800000
00FF800000
00FF800000
00FF800000
00FF800000
00FFC00000
007FC00000
007FC00000
007FE00000
007FE00000
003FF00000
003FF80000
003FFE0000
001FFFE000
000FFFFFC0
000FFFFFC0
0007FFFFC0
0003FFFFC0
0000FFFFC0
00003FFFC0
000007FFC0
0000003FC0
ENDCHAR
STARTCHAR 007C
ENCODING 124
SWIDTH 212 0
DWIDTH 28 0
BBX 9 118 10 -26
BITMAP
FF80
FF80
FF80
FF80
FF80
FF80
FF80
FF80
FF80
FF80
FF80
FF80
FF80
FF80
FF80
FF80
FF80
FF80
FF80
FF80
FF80
FF80
FF80
FF80
FF80
FF80
FF80
FF80
FF80
FF80
FF80
FF80
FF80
FF80
FF80
FF80
FF80
FF80
FF80
FF80
FF80
FF80
FF80
FF80
FF80
FF80
FF80
FF80
FF80
FF80
FF80
FF80
FF80
FF80
FF80
FF80
FF80
FF80
FF80
FF80
FF80
FF80
FF80
FF80
FF80
FF80
FF80
FF80
FF80
FF80
FF80
FF80
FF80
FF80
FF80
FF80
FF80
FF80
FF80
FF80
FF80
FF80
FF80
FF80
FF80
FF80
FF80
FF80
FF80
FF80
FF80
FF80
FF80
FF80
FF80
FF80
FF80
FF80
FF80
FF80
FF80
FF80
FF80
FF80
FF80
FF80
FF80
FF80
FF80
FF80
FF80
FF80
FF80
FF80
FF80
FF80
FF80
FF80
ENDCHAR
STARTCHAR 007D
ENCODING 125
SWIDTH 333 0
DWIDTH 44 0
BBX 34 118 6 -26
BITMAP
FF80000000
FFFC000000
FFFF000000
FFFFC00000
FFFFF00000
FFFFF80000
FFFFFC0000
FFFFFC0000
03FFFE0000
003FFF0000
000FFF0000
0003FF0000
0001FF8000
0001FF8000
0000FF8000
0000FF8000
0000FFC000
00007FC000
00007FC000
00007FC000
00007FC000
00007FC000
00007FC000
00007FC000
00007FC000
00007FC000
00007FC000
00007FC000
00007FC000
00007FC000
00007FC000
00007FC000
00007FC000
00007FC000
00007FC000
00007FC000
00007FC000
00007FC000
00007FC000
00007FC000
00007FC000
00007FC000
00007FC000
00007FC000
00007FC000
00007FC000
00007FC000
00007FC000
00007FC000
00007FE000
00007FE000
00003FF000
00003FF800
00001FFE00
00000FFFC0
000007FFC0
000003FFC0
000003FFC0
000007FFC0
00000FFFC0
00001FFE00
00003FF800
00003FF000
00007FE000
00007FE000
00007FC000
00007FC000
00007FC000
00007FC000
00007FC000
00007FC000
00007FC000
00007FC000
00007FC000
00007FC000
00007FC000
00007FC000
00007FC000
00007FC000
00007FC000
00007FC000
00007FC000
00007FC000
00007FC000
00007FC000
00007FC000
00007FC000
00007FC000
00007FC000
00007FC000
00007FC000
00007FC000
00007FC000
00007FC000
00007FC000
00007FC000
00007FC000
00007FC000
00007FC000
00007FC000
00007FC000
0000FFC000
0000FFC000
0000FF8000
0001FF8000
0001FF8000
0003FF0000
0007FF0000
001FFF0000
00FFFE0000
FFFFFC0000
FFFFFC0000
FFFFF80000
FFFFF00000
FFFFC00000
FFFF000000
FFF8000000
FF00000000
ENDCHAR
STARTCHAR 007E
ENCODING 126
SWIDTH 469 0
DWIDTH 62 0
BBX 51 22 6 56
BITMAP
003F80000007E0
01FFE0000007E0
03FFF8000007E0
07FFFE000007E0
0FFFFF000007E0
1FFFFF800007E0
3FFFFFC00007E0
3FFFFFE00007E0
3FFFFFF0000FE0
7FC0FFFC000FE0
7F803FFE000FE0
7F000FFF001FC0
7E0007FF801FC0
FE0003FFF07FC0
FE0000FFFFFFC0
FC00007FFFFF80
FC00003FFFFF80
FC00001FFFFF00
FC000007FFFE00
FC000003FFFC00
FC000000FFF800
FC0000001FC000
ENDCHAR
STARTCHAR 00A0
ENCODING 160
SWIDTH 265 0
DWIDTH 35 0
BBX 0 0 0 0
BITMAP
ENDCHAR
STARTCHAR 00A1
ENCODING 161
SWIDTH 196 0
DWIDTH 26 0
BBX 10 92 8 -27
BITMAP
FFC0
FFC0
FFC0
FFC0
FFC0
FFC0
FFC0
FFC0
FFC0
FFC0
0000
0000
0000
0000
0000
0000
0000
0000
0000
0000
FFC0
FFC0
FFC0
FFC0
FFC0
FFC0
FFC0
FFC0
FFC0
FFC0
FFC0
FFC0
FFC0
FFC0
FFC0
FFC0
FFC0
FFC0
FFC0
FFC0
FFC0
FFC0
FFC0
FFC0
FFC0
FFC0
FFC0
FFC0
FFC0
FFC0
FFC0
FFC0
FFC0
FFC0
FFC0
FFC0
FFC0
FFC0
FFC0
FFC0
FFC0
FFC0
FFC0
FFC0
FFC0
FFC0
FFC0
FFC0
FFC0
FFC0
FFC0
FFC0
FFC0
FFC0
FFC0
FFC0
FFC0
FFC0
FFC0
FFC0
FFC0
FFC0
FFC0
FFC0
FFC0
FFC0
FFC0
FFC0
FFC0
FFC0
FFC0
FFC0
ENDCHAR
STARTCHAR 00A2
ENCODING 162
SWIDTH 378 0
DWIDTH 50 0
BBX 39 93 6 0
BITMAP
00003FC000
00003FC000
00003FC000
00003FC000
00003FC000
00003FC000
00003FC000
00003FC000
00003FC000
00003FC000
00003FC000
00003FC000
00003FC000
007FFFFFFE
03FFFFFFFE
07FFFFFFFE
0FFFFFFFFE
1FFFFFFFFE
3FFFFFFFFE
3FFFFFFFFE
7FFFFFFFFE
7FF0000002
7FE0000000
FFC0000000
FFC0000000
FF80000000
FF80000000
FF80000000
FF80000000
FF80000000
FF80000000
FF80000000
FF80000000
FF80000000
FF80000000
FF80000000
FF80000000
FF80000000
FF80000000
FF80000000
FF80000000
FF80000000
FF80000000
FF80000000
FF80000000
FF80000000
FF80000000
FF80000000
FF80000000
FF80000000
FF80000000
FF80000000
FF80000000
FF80000000
FF80000000
FF80000000
FF80000000
FF80000000
FF80000000
FF80000000
FF80000000
FF80000000
FF80000000
FF80000000
FF80000000
FF80000000
FF80000000
FF80000000
FFC0000000
FFC0000000
FFE0000000
7FF8000002
7FFFFFFFFE
7FFFFFFFFE
3FFFFFFFFE
1FFFFFFFFE
1FFFFFFFFE
07FFFFFFFE
03FFFFFFFE
00FFFFFFFE
00003FC000
00003FC000
00003FC000
00003FC000
00003FC000
00003FC000
00003FC000
00003FC000
00003FC000
00003FC000
00003FC000
00003FC000
00003FC000
ENDCHAR
STARTCHAR 00A3
ENCODING 163
SWIDTH 462 0
DWIDTH 61 0
BBX 54 92 5 0
BITMAP
0003FFFFF00000
001FFFFFF00000
007FFFFFF00000
00FFFFFFF00000
01FFFFFFF00000
01FFFFFFF00000
03FFFFFFF00000
03FFFFFFF00000
03FFFFFFF00000
07FF8000000000
07FE0000000000
07FE0000000000
07FC0000000000
07FC0000000000
07FC0000000000
07FC0000000000
07FC0000000000
07FC0000000000
07FC0000000000
07FC0000000000
07FC0000000000
07FC0000000000
07FC0000000000
07FC0000000000
07FC0000000000
07FC0000000000
07FC0000000000
07FC0000000000
07FC0000000000
07FC0000000000
07FC0000000000
07FC0000000000
07FC0000000000
07FC0000000000
07FC0000000000
07FC0000000000
07FC0000000000
07FC0000000000
07FC0000000000
07FC0000000000
07FC0000000000
07FC0000000000
FFFFFFFFE00000
FFFFFFFFE00000
FFFFFFFFE00000
FFFFFFFFE00000
FFFFFFFFE00000
FFFFFFFFE00000
FFFFFFFFE00000
FFFFFFFFE00000
07FC0000000000
07FC0000000000
07FC0000000000
07FC0000000000
07FC0000000000
07FC0000000000
07FC0000000000
07FC0000000000
07FC0000000000
07FC0000000000
07FC0000000000
07FC0000000000
07FC0000000000
07FC0000000000
07FC0000000000
07FC0000000000
07FC0000000000
07FC0000000000
07FC0000000000
07FC0000000000
07FC0000000000
07FC0000000000
07FC0000000000
07FC0000000000
07FC0000000000
07FC0000000000
07FC0000000000
07FC0000000000
07FC0000000000
07FC0000000000
07FC0000000000
07FC0000000000
07FC0000000000
07FC000000001C
07FFFFFFFFFFFC
07FFFFFFFFFFFC
07FFFFFFFFFFFC
07FFFFFFFFFFFC
07FFFFFFFFFFFC
07FFFFFFFFFFFC
07FFFFFFFFFFFC
07FFFFFFFFFFFC
ENDCHAR
STARTCHAR 00A4
ENCODING 164
SWIDTH 515 0
DWIDTH 68 0
BBX 62 93 3 0
BITMAP
FF800000000007FC
FFC0000000000FF8
7FC0000000001FF8
7FE0000000001FF0
3FF0000000003FF0
3FF0000000003FE0
1FF8000000007FE0
1FF800000000FFC0
0FFC00000000FFC0
0FFE00000001FF80
07FE00000001FF80
07FF00000003FF00
03FF80000007FF00
03FF80000007FE00
01FFC000000FFE00
01FFC000001FFC00
00FFFFFFFFFFFC00
00FFFFFFFFFFF800
007FFFFFFFFFF800
007FFFFFFFFFF000
007FFFFFFFFFF000
007FFFFFFFFFF000
007FFFFFFFFFF000
007FFFFFFFFFF000
007FF80000FFF000
007FF000007FF000
007FE000003FF000
007FC000001FF000
007FC000001FF000
007FC000001FF000
007FC000001FF000
007FC000001FF000
007FC000001FF000
007FC000001FF000
007FC000001FF000
007FC000001FF000
007FC000001FF000
007FC000001FF000
007FC000001FF000
007FC000001FF000
007FC000001FF000
007FC000001FF000
007FC000001FF000
007FC000001FF000
007FC000001FF000
007FC000001FF000
007FC000001FF000
007FC000001FF000
007FC000001FF000
007FC000001FF000
007FC000001FF000
007FC000001FF000
007FC000001FF000
007FC000001FF000
007FC000001FF000
007FC000001FF000
007FC000001FF000
007FC000001FF000
007FC000001FF000
007FC000001FF000
007FC000001FF000
007FC000001FF000
007FC000001FF000
007FC000001FF000
007FC000001FF000
007FC000001FF000
007FE000001FF000
007FE000003FF000
007FF000007FF000
007FF80000FFF000
007FFFFFFFFFF000
007FFFFFFFFFF000
007FFFFFFFFFF000
007FFFFFFFFFF000
007FFFFFFFFFF000
00FFFFFFFFFFF800
00FFFFFFFFFFF800
01FFFFFFFFFFFC00
01FFC000000FFE00
03FFC000000FFE00
03FF80000007FF00
07FF00000003FF00
07FF00000003FF80
0FFE00000001FF80
0FFC00000000FFC0
1FFC00000000FFC0
1FF8000000007FE0
3FF0000000007FE0
3FF0000000003FF0
7FE0000000001FF0
7FC0000000001FF8
FFC0000000000FF8
FF800000000007FC
ENDCHAR
STARTCHAR 00A5
ENCODING 165
SWIDTH 522 0
DWIDTH 69 0
BBX 68 92 0 1
BITMAP
FFF000000000007FF0
7FF00000000000FFF0
7FF80000000000FFE0
3FFC0000000001FFE0
3FFC0000000001FFC0
1FFE0000000003FFC0
1FFE0000000003FF80
0FFF0000000007FF00
07FF0000000007FF00
07FF800000000FFE00
03FF800000000FFE00
03FFC00000001FFC00
01FFC00000001FFC00
01FFE00000003FF800
00FFE00000007FF000
007FF00000007FF000
007FF8000000FFE000
003FF8000000FFE000
003FFC000001FFC000
001FFC000001FFC000
000FFE000003FF8000
000FFE000003FF0000
0007FF000007FF0000
0007FF000007FE0000
0003FF80000FFE0000
0003FF80000FFC0000
0001FFC0001FFC0000
0000FFC0003FF80000
0000FFE0003FF80000
00007FF0007FF00000
00007FF0007FE00000
00003FF800FFE00000
00003FF800FFC00000
00001FFC01FFC00000
00000FFC01FF800000
00000FFE03FF800000
000007FE03FF000000
000007FF07FE000000
000003FF07FE000000
000003FF8FFC000000
000001FFCFFC000000
000000FFDFF8000000
000000FFFFF8000000
0000007FFFF0000000
0000007FFFF0000000
0000003FFFE0000000
0000003FFFC0000000
0000001FFFC0000000
0000000FFF80000000
0000000FFF80000000
00000007FF00000000
00000007FF00000000
00000003FE00000000
00000003FE00000000
00000003FE00000000
00000003FE00000000
00000003FE00000000
00000003FE00000000
00000003FE00000000
00000FFFFFFF800000
00000FFFFFFF800000
00000FFFFFFF800000
00000FFFFFFF800000
00000FFFFFFF800000
00000FFFFFFF800000
00000FFFFFFF800000
00000003FE00000000
00000003FE00000000
00000003FE00000000
00000003FE00000000
00000003FE00000000
00000003FE00000000
00000003FE00000000
00000003FE00000000
00000003FE00000000
00000003FE00000000
00000003FE00000000
00000003FE00000000
00000003FE00000000
00000003FE00000000
00000003FE00000000
00000003FE00000000
00000003FE00000000
00000003FE00000000
00000003FE00000000
00000003FE00000000
00000003FE00000000
00000003FE00000000
00000003FE00000000
00000003FE00000000
00000003FE00000000
00000003FE00000000
ENDCHAR
STARTCHAR 00A7
ENCODING 167
SWIDTH 431 0
DWIDTH 57 0
BBX 44 118 7 -26
BITMAP
003FFFFFFFF0
01FFFFFFFFF0
07FFFFFFFFF0
0FFFFFFFFFF0
1FFFFFFFFFF0
3FFFFFFFFFF0
3FFFFFFFFFF0
7FFFFFFFFFF0
7FF000000010
7FE000000000
FFC000000000
FF8000000000
FF8000000000
FF8000000000
FF8000000000
FF8000000000
FF8000000000
FF8000000000
FF8000000000
FF8000000000
FFC000000000
FFE000000000
FFE000000000
FFF000000000
FFFC00000000
FFFE00000000
FFFF00000000
FFFFC0000000
FFFFE0000000
FFFFF0000000
FFBFFC000000
FFBFFE000000
FF9FFF000000
FF8FFF800000
FF87FFE00000
FF81FFF00000
FF80FFF80000
FF807FFE0000
FF801FFF0000
FF800FFF8000
FF8007FFE000
FF8001FFF000
FF8000FFF800
FF80003FFC00
FF80001FFF00
FF80000FFF00
FF800003FF80
FF800001FFC0
FF800000FFC0
FF8000007FE0
FF8000003FE0
FF8000003FF0
FF8000003FF0
FF8000001FF0
FF8000001FF0
FF8000001FF0
FF8000001FF0
FF8000001FF0
FF8000001FF0
FF8000001FF0
FF8000001FF0
FFC000001FF0
7FC000001FF0
7FE000001FF0
7FE000001FF0
3FF000001FF0
3FF800001FF0
1FFE00001FF0
0FFF00001FF0
07FF80001FF0
03FFE0001FF0
01FFF0001FF0
007FF8001FF0
003FFE001FF0
001FFF001FF0
000FFF801FF0
0003FFE01FF0
0001FFF01FF0
0000FFFC1FF0
00003FFE1FF0
00001FFF1FF0
00000FFF9FF0
000007FFDFF0
000001FFFFF0
000000FFFFF0
0000007FFFF0
0000003FFFF0
0000000FFFF0
00000007FFF0
00000003FFF0
00000000FFF0
000000007FF0
000000003FF0
000000003FF0
000000001FF0
000000001FF0
000000001FF0
000000001FF0
000000001FF0
000000001FF0
000000001FF0
000000001FF0
000000001FF0
000000001FF0
000000001FF0
000000001FF0
000000001FF0
000000003FF0
000000003FF0
00000000FFE0
FFFFFFFFFFE0
FFFFFFFFFFE0
FFFFFFFFFFC0
FFFFFFFFFF80
FFFFFFFFFF80
FFFFFFFFFE00
FFFFFFFFFC00
FFFFFFFFE000
ENDCHAR
STARTCHAR 00A8
ENCODING 168
SWIDTH 356 0
DWIDTH 47 0
BBX 26 9 10 78
BITMAP
FE001FC0
FE001FC0
FE001FC0
FE001FC0
FE001FC0
FE001FC0
FE001FC0
FE001FC0
FE001FC0
ENDCHAR
STARTCHAR 00A9
ENCODING 169
SWIDTH 666 0
DWIDTH 88 0
BBX 67 92 10 0
BITMAP
007FFFFFFFFFFFC000
03FFFFFFFFFFFFF800
07FFFFFFFFFFFFFE00
1FFFFFFFFFFFFFFF00
1FFFFFFFFFFFFFFF80
3FFFFFFFFFFFFFFF80
7FE00000000000FFC0
7F8000000000003FC0
7F0000000000001FC0
FF0000000000001FE0
FE0000000000000FE0
FE0000000000000FE0
FE0000000000000FE0
FE0000000000000FE0
FE0007FFFFFFF80FE0
FE001FFFFFFFF80FE0
FE003FFFFFFFF80FE0
FE007FFFFFFFF80FE0
FE007FFFFFFFF80FE0
FE00FFFFFFFFF80FE0
FE00FFC00000080FE0
FE00FF000000000FE0
FE00FF000000000FE0
FE00FE000000000FE0
FE00FE000000000FE0
FE00FE000000000FE0
FE00FE000000000FE0
FE00FE000000000FE0
FE00FE000000000FE0
FE00FE000000000FE0
FE00FE000000000FE0
FE00FE000000000FE0
FE00FE000000000FE0
FE00FE000000000FE0
FE00FE000000000FE0
FE00FE000000000FE0
FE00FE000000000FE0
FE00FE000000000FE0
FE00FE000000000FE0
FE00FE000000000FE0
FE00FE000000000FE0
FE00FE000000000FE0
FE00FE000000000FE0
FE00FE000000000FE0
FE00FE000000000FE0
FE00FE000000000FE0
FE00FE000000000FE0
FE00FE000000000FE0
FE00FE000000000FE0
FE00FE000000000FE0
FE00FE000000000FE0
FE00FE000000000FE0
FE00FE000000000FE0
FE00FE000000000FE0
FE00FE000000000FE0
FE00FE000000000FE0
FE00FE000000000FE0
FE00FE000000000FE0
FE00FE000000000FE0
FE00FE000000000FE0
FE00FE000000000FE0
FE00FE000000000FE0
FE00FE000000000FE0
FE00FE000000000FE0
FE00FE000000000FE0
FE00FE000000000FE0
FE00FE000000000FE0
FE00FE000000000FE0
FE00FF000000000FE0
FE00FF000000000FE0
FE00FFC00000080FE0
FE00FFFFFFFFF80FE0
FE007FFFFFFFF80FE0
FE007FFFFFFFF80FE0
FE003FFFFFFFF80FE0
FE001FFFFFFFF80FE0
FE0007FFFFFFF80FE0
FE0000000000000FE0
FE0000000000000FE0
FE0000000000000FE0
FE0000000000000FE0
FE0000000000000FE0
FF0000000000001FE0
7F0000000000001FC0
7F8000000000003FC0
7FF00000000000FFC0
3FFFFFFFFFFFFFFF80
1FFFFFFFFFFFFFFF00
1FFFFFFFFFFFFFFF00
07FFFFFFFFFFFFFC00
03FFFFFFFFFFFFF800
007FFFFFFFFFFFC000
ENDCHAR
STARTCHAR 00AA
ENCODING 170
SWIDTH 462 0
DWIDTH 61 0
BBX 44 92 8 0
BITMAP
FFFFFFFFE000
FFFFFFFFFC00
FFFFFFFFFE00
FFFFFFFFFF00
FFFFFFFFFF80
FFFFFFFFFFC0
FFFFFFFFFFE0
FFFFFFFFFFE0
00000000FFE0
000000003FF0
000000003FF0
000000001FF0
000000001FF0
000000001FF0
000000001FF0
000000001FF0
000000001FF0
000000001FF0
000000001FF0
000000001FF0
000000001FF0
000000001FF0
000000001FF0
000000001FF0
007FFFFFFFF0
03FFFFFFFFF0
07FFFFFFFFF0
0FFFFFFFFFF0
1FFFFFFFFFF0
3FFFFFFFFFF0
7FFFFFFFFFF0
7FF000001FF0
7FE000001FF0
FFC000001FF0
FFC000001FF0
FF8000001FF0
FF8000001FF0
FF8000001FF0
FF8000001FF0
FF8000001FF0
FF8000001FF0
FF8000001FF0
FF8000001FF0
FF8000001FF0
FF8000001FF0
FF8000001FF0
FF8000001FF0
FF8000001FF0
FF8000001FF0
FF8000001FF0
FF8000001FF0
FF8000001FF0
FF8000001FF0
FF8000001FF0
FFC000001FF0
FFC000001FF0
FFE000001FF0
7FF800001FF0
7FFFFFFFFFF0
7FFFFFFFFFF0
3FFFFFFFFFF0
1FFFFFFFFFF0
0FFFFFFFFFF0
07FFFFFFFFF0
03FFFFFFFFF0
007FFFFFFFF0
000000000000
000000000000
000000000000
000000000000
000000000000
000000000000
000000000000
000000000000
000000000000
000000000000
000000000000
000000000000
000000000000
000000000000
000000000000
000000000000
000000000000
000000000000
FFFFFFFFFFF0
FFFFFFFFFFF0
FFFFFFFFFFF0
FFFFFFFFFFF0
FFFFFFFFFFF0
FFFFFFFFFFF0
FFFFFFFFFFF0
FFFFFFFFFFF0
ENDCHAR
STARTCHAR 00AB
ENCODING 171
SWIDTH 598 0
DWIDTH 79 0
BBX 69 60 5 9
BITMAP
000000001000000008
000000007000000018
00000000F000000078
00000001F0000000F8
00000007F0000001F8
0000000FF0000007F8
0000001FF000000FF8
0000007FF000001FF8
000000FFF000007FF8
000001FFC00000FFF0
000007FF800001FFE0
00000FFF000007FF80
00001FFE00000FFF00
00007FF800001FFE00
0000FFF000007FFC00
0001FFE00000FFF000
0007FFC00001FFE000
000FFF800007FFC000
001FFE00000FFF8000
007FFC00001FFE0000
00FFF800007FFC0000
03FFF00000FFF80000
07FFC00001FFF00000
0FFF800007FFC00000
3FFF00000FFF800000
7FFE00001FFF000000
FFF800007FFE000000
FFF000007FFC000000
FFE000007FF0000000
FFC000007FE0000000
FFC000007FF0000000
FFE000007FF8000000
FFF800007FFC000000
FFFC00007FFE000000
7FFE00003FFF800000
3FFF00000FFFC00000
0FFFC00007FFE00000
07FFE00003FFF00000
03FFF00000FFF80000
00FFF800007FFE0000
007FFE00003FFF0000
003FFF00000FFF8000
000FFF800007FFC000
0007FFC00003FFF000
0003FFF00000FFF800
0000FFF800007FFC00
00007FFC00003FFE00
00003FFE00000FFF80
00000FFF000007FFC0
000007FFC00003FFE0
000003FFE00000FFF0
000000FFF000007FF8
0000007FF000003FF8
0000003FF000000FF8
0000000FF0000007F8
00000007F0000003F8
00000003F0000000F8
00000000F000000078
000000007000000038
000000003000000008
ENDCHAR
STARTCHAR 00AC
ENCODING 172
SWIDTH 462 0
DWIDTH 61 0
BBX 46 42 7 0
BITMAP
FFFFFFFFFFFC
FFFFFFFFFFFC
FFFFFFFFFFFC
FFFFFFFFFFFC
FFFFFFFFFFFC
FFFFFFFFFFFC
FFFFFFFFFFFC
FFFFFFFFFFFC
0000000007FC
0000000007FC
0000000007FC
0000000007FC
0000000007FC
0000000007FC
0000000007FC
0000000007FC
0000000007FC
0000000007FC
0000000007FC
0000000007FC
0000000007FC
0000000007FC
0000000007FC
0000000007FC
0000000007FC
0000000007FC
0000000007FC
0000000007FC
0000000007FC
0000000007FC
0000000007FC
0000000007FC
0000000007FC
0000000007FC
0000000007FC
0000000007FC
0000000007FC
0000000007FC
0000000007FC
0000000007FC
0000000007FC
0000000007FC
ENDCHAR
STARTCHAR 00AE
ENCODING 174
SWIDTH 666 0
DWIDTH 88 0
BBX 67 92 10 0
BITMAP
007FFFFFFFFFFFC000
03FFFFFFFFFFFFF800
07FFFFFFFFFFFFFE00
1FFFFFFFFFFFFFFF00
1FFFFFFFFFFFFFFF80
3FFFFFFFFFFFFFFF80
7FE00000000000FFC0
7F8000000000003FC0
7F0000000000001FC0
FF0000000000001FE0
FE0000000000000FE0
FE0000000000000FE0
FE0000000000000FE0
FE0000000000000FE0
FE00FFFFFFFE000FE0
FE00FFFFFFFF800FE0
FE00FFFFFFFFC00FE0
FE00FFFFFFFFE00FE0
FE00FFFFFFFFE00FE0
FE00FFFFFFFFF00FE0
FE00FE00001FF00FE0
FE00FE00000FF00FE0
FE00FE000007F00FE0
FE00FE000007F00FE0
FE00FE000007F00FE0
FE00FE000007F00FE0
FE00FE000007F00FE0
FE00FE000007F00FE0
FE00FE000007F00FE0
FE00FE000007F00FE0
FE00FE000007F00FE0
FE00FE000007F00FE0
FE00FE000007F00FE0
FE00FE000007F00FE0
FE00FE000007F00FE0
FE00FE000007F00FE0
FE00FE000007F00FE0
FE00FE000007F00FE0
FE00FE000007F00FE0
FE00FE000007F00FE0
FE00FE00000FF00FE0
FE00FE00001FF00FE0
FE00FFFFFFFFF00FE0
FE00FFFFFFFFE00FE0
FE00FFFFFFFFE00FE0
FE00FFFFFFFFC00FE0
FE00FFFFFFFF800FE0
FE00FFFFFFFE000FE0
FE00FE0007E0000FE0
FE00FE0007F0000FE0
FE00FE0003F0000FE0
FE00FE0003F0000FE0
FE00FE0001F8000FE0
FE00FE0001F8000FE0
FE00FE0001FC000FE0
FE00FE0000FC000FE0
FE00FE0000FE000FE0
FE00FE00007E000FE0
FE00FE00007F000FE0
FE00FE00007F000FE0
FE00FE00003F000FE0
FE00FE00003F800FE0
FE00FE00003F800FE0
FE00FE00001FC00FE0
FE00FE00001FC00FE0
FE00FE00000FE00FE0
FE00FE00000FE00FE0
FE00FE00000FE00FE0
FE00FE000007F00FE0
FE00FE000007F00FE0
FE00FE000003F80FE0
FE00FE000003F80FE0
FE00FE000003FC0FE0
FE00FE000001FC0FE0
FE00FE000001FC0FE0
FE00FE000000FE0FE0
FE00FE000000FE0FE0
FE0000000000000FE0
FE0000000000000FE0
FE0000000000000FE0
FE0000000000000FE0
FE0000000000000FE0
FF0000000000001FE0
7F0000000000001FC0
7F8000000000003FC0
7FF00000000000FFC0
3FFFFFFFFFFFFFFF80
1FFFFFFFFFFFFFFF00
1FFFFFFFFFFFFFFF00
07FFFFFFFFFFFFFC00
03FFFFFFFFFFFFF800
007FFFFFFFFFFFC000
ENDCHAR
STARTCHAR 00AF
ENCODING 175
SWIDTH 371 0
DWIDTH 49 0
BBX 28 7 11 79
BITMAP
FFFFFFF0
FFFFFFF0
FFFFFFF0
FFFFFFF0
FFFFFFF0
FFFFFFF0
FFFFFFF0
ENDCHAR
STARTCHAR 00B0
ENCODING 176
SWIDTH 333 0
DWIDTH 44 0
BBX 30 44 7 48
BITMAP
00FFFC00
07FFFF80
0FFFFFC0
1FFFFFE0
3FFFFFF0
3FFFFFF8
7FFFFFF8
7FC00FF8
FF0003FC
FF0003FC
FE0001FC
FE0001FC
FE0001FC
FE0001FC
FE0001FC
FE0001FC
FE0001FC
FE0001FC
FE0001FC
FE0001FC
FE0001FC
FE0001FC
FE0001FC
FE0001FC
FE0001FC
FE0001FC
FE0001FC
FE0001FC
FE0001FC
FE0001FC
FE0001FC
FE0001FC
FE0001FC
FE0001FC
FF0003FC
FF8007FC
7FC00FF8
7FFFFFF8
7FFFFFF8
3FFFFFF0
1FFFFFE0
0FFFFFC0
07FFFF80
00FFFC00
ENDCHAR
STARTCHAR 00B1
ENCODING 177
SWIDTH 462 0
DWIDTH 61 0
BBX 46 65 8 1
BITMAP
00001FE00000
00001FE00000
00001FE00000
00001FE00000
00001FE00000
00001FE00000
00001FE00000
00001FE00000
00001FE00000
00001FE00000
00001FE00000
00001FE00000
00001FE00000
00001FE00000
00001FE00000
00001FE00000
00001FE00000
00001FE00000
00001FE00000
FFFFFFFFFFFC
FFFFFFFFFFFC
FFFFFFFFFFFC
FFFFFFFFFFFC
FFFFFFFFFFFC
FFFFFFFFFFFC
FFFFFFFFFFFC
FFFFFFFFFFFC
00001FE00000
00001FE00000
00001FE00000
00001FE00000
00001FE00000
00001FE00000
00001FE00000
00001FE00000
00001FE00000
00001FE00000
00001FE00000
00001FE00000
00001FE00000
00001FE00000
00001FE00000
00001FE00000
00001FE00000
00001FE00000
00001FE00000
000000000000
000000000000
000000000000
000000000000
000000000000
000000000000
000000000000
000000000000
000000000000
000000000000
000000000000
FFFFFFFFFFFC
FFFFFFFFFFFC
FFFFFFFFFFFC
FFFFFFFFFFFC
FFFFFFFFFFFC
FFFFFFFFFFFC
FFFFFFFFFFFC
FFFFFFFFFFFC
ENDCHAR
STARTCHAR 00B4
ENCODING 180
SWIDTH 333 0
DWIDTH 44 0
BBX 22 18 11 75
BITMAP
0007FC
000FF8
000FF0
001FF0
003FE0
007FC0
007F80
00FF00
01FE00
03FC00
03FC00
07F800
0FF000
1FE000
1FC000
3F8000
7F0000
FF0000
ENDCHAR
STARTCHAR 00B5
ENCODING 181
SWIDTH 469 0
DWIDTH 62 0
BBX 44 92 9 -27
BITMAP
FF8000001FF0
FF8000001FF0
FF8000001FF0
FF8000001FF0
FF8000001FF0
FF8000001FF0
FF8000001FF0
FF8000001FF0
FF8000001FF0
FF8000001FF0
FF8000001FF0
FF8000001FF0
FF8000001FF0
FF8000001FF0
FF8000001FF0
FF8000001FF0
FF8000001FF0
FF8000001FF0
FF8000001FF0
FF8000001FF0
FF8000001FF0
FF8000001FF0
FF8000001FF0
FF8000001FF0
FF8000001FF0
FF8000001FF0
FF8000001FF0
FF8000001FF0
FF8000001FF0
FF8000001FF0
FF8000001FF0
FF8000001FF0
FF8000001FF0
FF8000001FF0
FF8000001FF0
FF8000001FF0
FF8000001FF0
FF8000001FF0
FF8000001FF0
FF8000001FF0
FF8000001FF0
FF8000001FF0
FF8000001FF0
FF8000001FF0
FF8000001FF0
FF8000001FF0
FF8000001FF0
FF8000001FF0
FF8000001FF0
FF8000001FF0
FF8000001FF0
FF8000001FF0
FF8000001FF0
FF8000001FF0
FF8000001FF0
FFC000001FF0
FFC000001FF0
FFF000001FF0
FFFFFFFFFFF0
FFFFFFFFFFF0
FFFFFFFFFFF0
FFFFFFFFFFF0
FFFFFFFFFFF0
FFFFFFFFFFF0
FFFFFFFFFFF0
FFFFFFFFFFF0
FF8000000000
FF8000000000
FF8000000000
FF8000000000
FF8000000000
FF8000000000
FF8000000000
FF8000000000
FF8000000000
FF8000000000
FF8000000000
FF8000000000
FF8000000000
FF8000000000
FF8000000000
FF8000000000
FF8000000000
FF8000000000
FF8000000000
FF8000000000
FF8000000000
FF8000000000
FF8000000000
FF8000000000
FF8000000000
FF8000000000
ENDCHAR
STARTCHAR 00B6
ENCODING 182
SWIDTH 522 0
DWIDTH 69 0
BBX 52 92 10 1
BITMAP
03FFFFFFFFFFF0
0FFFFFFFFFFFF0
1FFFFFFFFFFFF0
3FFFFFFFFFFFF0
7FFFFFFFFFFFF0
7FFFFFFFFFFFF0
7FFFFFFFFFFFF0
FFFFFFFFFFFFF0
FFFFFFFFFFFFF0
FFFFFFFFFFFFF0
FFFFFFFFFFFFF0
FFFFFFFFFFFFF0
FFFFFFFFFFFFF0
FFFFFFFFFFFFF0
FFFFFFFFFFFFF0
FFFFFFFFFFFFF0
FFFFFFFFFFFFF0
FFFFFFFFFFFFF0
FFFFFFFFFFFFF0
FFFFFFFFFFFFF0
FFFFFFFFFFFFF0
FFFFFFFFFFFFF0
FFFFFFFFFFFFF0
FFFFFFFFFFFFF0
FFFFFFFFFFFFF0
FFFFFFFFFFFFF0
FFFFFFFFFFFFF0
FFFFFFFFFFFFF0
FFFFFFFFFFFFF0
FFFFFFFFFFFFF0
FFFFFFFFFFFFF0
FFFFFFFFFFFFF0
FFFFFFFFFFFFF0
FFFFFFFFFFFFF0
FFFFFFFFFFFFF0
FFFFFFFFFFFFF0
FFFFFFFFFFFFF0
FFFFFFFFFFFFF0
FFFFFFFFFFFFF0
FFFFFFFFFFFFF0
FFFFFFFFFFFFF0
FFFFFFFFFFFFF0
7FFFFFFFFFFFF0
7FFFFFFFFFFFF0
7FFFFFFFFFFFF0
3FFFFFFFFFFFF0
1FFFFFFFFFFFF0
0FFFFFFFFFFFF0
07FFFFFFFFFFF0
007FFFFFFFFFF0
00000000001FF0
00000000001FF0
00000000001FF0
00000000001FF0
00000000001FF0
00000000001FF0
00000000001FF0
00000000001FF0
00000000001FF0
00000000001FF0
00000000001FF0
00000000001FF0
00000000001FF0
00000000001FF0
00000000001FF0
00000000001FF0
00000000001FF0
00000000001FF0
00000000001FF0
00000000001FF0
00000000001FF0
00000000001FF0
00000000001FF0
00000000001FF0
00000000001FF0
00000000001FF0
00000000001FF0
00000000001FF0
00000000001FF0
00000000001FF0
00000000001FF0
00000000001FF0
00000000001FF0
00000000001FF0
00000000001FF0
00000000001FF0
00000000001FF0
00000000001FF0
00000000001FF0
00000000001FF0
00000000001FF0
00000000001FF0
ENDCHAR
STARTCHAR 00B7
ENCODING 183
SWIDTH 196 0
DWIDTH 26 0
BBX 11 11 7 33
BITMAP
FFE0
FFE0
FFE0
FFE0
FFE0
FFE0
FFE0
FFE0
FFE0
FFE0
FFE0
ENDCHAR
STARTCHAR 00B8
ENCODING 184
SWIDTH 348 0
DWIDTH 46 0
BBX 26 27 10 -25
BITMAP
007E0000
007E0000
007C0000
00FC0000
00FC0000
00F80000
01FFF000
01FFFE00
01FFFF00
03FFFF80
00007F80
00003FC0
00001FC0
00001FC0
00001FC0
00001FC0
00001FC0
00001FC0
00001FC0
00001FC0
00003FC0
00007F80
3FFFFF80
7FFFFF00
7FFFFF00
7FFFFC00
FFFFF000
ENDCHAR
STARTCHAR 00BA
ENCODING 186
SWIDTH 469 0
DWIDTH 62 0
BBX 44 92 9 0
BITMAP
007FFFFFE000
03FFFFFFFC00
07FFFFFFFE00
0FFFFFFFFF80
1FFFFFFFFF80
3FFFFFFFFFC0
7FFFFFFFFFE0
7FFFFFFFFFE0
7FF00000FFE0
FFE000007FF0
FFC000003FF0
FF8000001FF0
FF8000001FF0
FF8000001FF0
FF8000001FF0
FF8000001FF0
FF8000001FF0
FF8000001FF0
FF8000001FF0
FF8000001FF0
FF8000001FF0
FF8000001FF0
FF8000001FF0
FF8000001FF0
FF8000001FF0
FF8000001FF0
FF8000001FF0
FF8000001FF0
FF8000001FF0
FF8000001FF0
FF8000001FF0
FF8000001FF0
FF8000001FF0
FF8000001FF0
FF8000001FF0
FF8000001FF0
FF8000001FF0
FF8000001FF0
FF8000001FF0
FF8000001FF0
FF8000001FF0
FF8000001FF0
FF8000001FF0
FF8000001FF0
FF8000001FF0
FF8000001FF0
FF8000001FF0
FF8000001FF0
FF8000001FF0
FF8000001FF0
FF8000001FF0
FF8000001FF0
FF8000001FF0
FF8000001FF0
FFC000001FF0
FFC000003FF0
FFE000007FF0
7FF00000FFE0
7FFFFFFFFFE0
7FFFFFFFFFE0
3FFFFFFFFFC0
1FFFFFFFFF80
1FFFFFFFFF80
07FFFFFFFE00
03FFFFFFFC00
007FFFFFE000
000000000000
000000000000
000000000000
000000000000
000000000000
000000000000
000000000000
000000000000
000000000000
000000000000
000000000000
000000000000
000000000000
000000000000
000000000000
000000000000
000000000000
000000000000
FFFFFFFFFFF0
FFFFFFFFFFF0
FFFFFFFFFFF0
FFFFFFFFFFF0
FFFFFFFFFFF0
FFFFFFFFFFF0
FFFFFFFFFFF0
FFFFFFFFFFF0
ENDCHAR
STARTCHAR 00BB
ENCODING 187
SWIDTH 598 0
DWIDTH 79 0
BBX 69 60 5 9
BITMAP
800000004000000000
C00000007000000000
F00000007800000000
F80000007C00000000
FC0000007F00000000
FF0000007F80000000
FF8000007FC0000000
FFC000007FF0000000
FFF000007FF8000000
7FF800003FFC000000
3FFC00001FFF000000
1FFF00000FFF800000
0FFF800003FFE00000
07FFC00001FFF00000
01FFF00000FFF80000
00FFF800007FFE0000
007FFC00001FFF0000
003FFF00000FFF8000
000FFF800007FFE000
0007FFC00003FFF000
0003FFF00001FFF800
0001FFF800007FFE00
00007FFC00003FFF00
00003FFF00001FFF80
00001FFF80000FFFE0
00000FFFC00003FFF0
000003FFF00001FFF8
000001FFF00000FFF8
000000FFF000007FF8
0000007FF000001FF8
0000003FF000001FF8
0000007FF000003FF8
000000FFF000007FF8
000003FFF00000FFF8
000007FFE00001FFF0
00000FFF800007FFE0
00001FFF00000FFF80
00007FFE00001FFF00
0000FFF800003FFE00
0001FFF00000FFF800
0003FFE00001FFF000
000FFF800003FFE000
001FFF000007FF8000
003FFE00001FFF0000
007FF800003FFE0000
00FFF000007FF80000
03FFE00000FFF00000
07FF800003FFE00000
0FFF000007FF800000
1FFE00000FFF000000
7FF800001FFE000000
FFF000007FF8000000
FFE000007FF0000000
FF8000007FE0000000
FF0000007F80000000
FE0000007F00000000
F80000007E00000000
F00000007800000000
E00000007000000000
800000006000000000
ENDCHAR
STARTCHAR 00BF
ENCODING 191
SWIDTH 401 0
DWIDTH 53 0
BBX 44 92 6 -26
BITMAP
000007FE0000
000007FE0000
000007FE0000
000007FE0000
000007FE0000
000007FE0000
000007FE0000
000007FE0000
000007FE0000
000007FE0000
000000000000
000000000000
000000000000
000000000000
000000000000
000000000000
000000000000
000000000000
000000000000
000000000000
000007FE0000
000007FE0000
000007FE0000
000007FE0000
000007FE0000
000007FE0000
000007FE0000
000007FE0000
000007FE0000
000007FE0000
000007FE0000
000007FE0000
000007FE0000
000007FE0000
000007FE0000
000007FE0000
000007FE0000
000007FE0000
000007FE0000
000007FE0000
000007FE0000
000007FE0000
000007FE0000
000007FE0000
000007FE0000
000007FE0000
000007FE0000
00000FFE0000
00000FFC0000
00001FFC0000
00003FFC0000
00007FF80000
0000FFF00000
0001FFF00000
0003FFE00000
0007FFC00000
000FFF800000
001FFF000000
003FFE000000
007FF8000000
00FFF0000000
01FFE0000000
03FFC0000000
07FF80000000
0FFF00000000
1FFE00000000
3FF800000000
3FF000000000
7FE000000000
7FC000000000
7FC000000000
FF8000000000
FF8000000000
FF8000000000
FF8000000000
FF8000000000
FF8000000000
FF8000000000
FF8000000000
FF8000000000
FFC000000000
FFC000000000
FFE000000000
FFF800000030
7FFFFFFFFFF0
7FFFFFFFFFF0
7FFFFFFFFFF0
3FFFFFFFFFF0
1FFFFFFFFFF0
0FFFFFFFFFF0
07FFFFFFFFF0
00FFFFFFFFF0
ENDCHAR
STARTCHAR 00C0
ENCODING 192
SWIDTH 500 0
DWIDTH 66 0
BBX 64 106 1 0
BITMAP
00003FFFFFFC0000
00003FFFFFFC0000
00003FFFFFFC0000
00003FFFFFFC0000
00003FFFFFFC0000
00003FFFFFFC0000
0000000000000000
0000000000000000
0000000000000000
0000000000000000
0000000000000000
0000000000000000
0000000000000000
0000000000000000
0000003FFE000000
0000007FFE000000
0000007FFE000000
0000007FFE000000
0000007FFF000000
000000FFFF000000
000000FFFF000000
000000FFFF800000
000000FFFF800000
000001FFFF800000
000001FFFF800000
000001FFFFC00000
000003FEFFC00000
000003FE7FC00000
000003FE7FE00000
000003FC7FE00000
000007FC7FE00000
000007FC3FE00000
000007FC3FF00000
00000FF83FF00000
00000FF83FF00000
00000FF81FF00000
00000FF81FF80000
00001FF01FF80000
00001FF00FF80000
00001FF00FFC0000
00003FE00FFC0000
00003FE00FFC0000
00003FE007FC0000
00003FE007FE0000
00007FC007FE0000
00007FC007FE0000
00007FC003FF0000
0000FFC003FF0000
0000FF8003FF0000
0000FF8003FF0000
0000FF8001FF8000
0001FF0001FF8000
0001FF0001FF8000
0001FF0000FF8000
0001FF0000FFC000
0003FE0000FFC000
0003FE0000FFC000
0003FE00007FE000
0007FE00007FE000
0007FC00007FE000
0007FC00007FE000
0007FC00003FF000
000FFC00003FF000
000FF800003FF000
000FF800003FF800
001FF800001FF800
001FF000001FF800
001FF000001FF800
001FF000000FFC00
003FF000000FFC00
003FE000000FFC00
003FE000000FFC00
007FE0000007FE00
007FE0000007FE00
007FC0000007FE00
007FFFFFFFFFFF00
00FFFFFFFFFFFF00
00FFFFFFFFFFFF00
00FFFFFFFFFFFF00
01FFFFFFFFFFFF80
01FFFFFFFFFFFF80
01FFFFFFFFFFFF80
01FF80000001FF80
03FF00000001FFC0
03FF00000001FFC0
03FF00000000FFC0
03FF00000000FFE0
07FE00000000FFE0
07FE00000000FFE0
07FE000000007FE0
0FFE000000007FF0
0FFC000000007FF0
0FFC000000007FF0
0FFC000000003FF8
1FFC000000003FF8
1FF8000000003FF8
1FF8000000001FF8
3FF8000000001FFC
3FF8000000001FFC
3FF0000000001FFC
3FF0000000000FFC
7FF0000000000FFE
7FE0000000000FFE
7FE0000000000FFE
FFE00000000007FF
FFE00000000007FF
ENDCHAR
STARTCHAR 00C1
ENCODING 193
SWIDTH 500 0
DWIDTH 66 0
BBX 64 109 1 0
BITMAP
00007E00003F0000
00007E00003F0000
00007E00003F0000
00007E00003F0000
00007E00003F0000
00007F00007F0000
00007F00007F0000
00003FC001FE0000
00003FFFFFFE0000
00001FFFFFFC0000
00000FFFFFF80000
000007FFFFF00000
000001FFFF800000
0000000000000000
0000000000000000
0000000000000000
0000000000000000
0000007FFC000000
0000007FFE000000
0000007FFE000000
0000007FFE000000
000000FFFE000000
000000FFFF000000
000000FFFF000000
000001FFFF000000
000001FFFF800000
000001FFFF800000
000001FFFF800000
000003FEFF800000
000003FEFFC00000
000003FEFFC00000
000007FCFFC00000
000007FC7FE00000
000007FC7FE00000
000007FC7FE00000
00000FF83FE00000
00000FF83FF00000
00000FF83FF00000
00000FF03FF00000
00001FF01FF80000
00001FF01FF80000
00001FF01FF80000
00003FE01FF80000
00003FE00FFC0000
00003FE00FFC0000
00003FE00FFC0000
00007FC00FFC0000
00007FC007FE0000
00007FC007FE0000
0000FF8007FE0000
0000FF8003FF0000
0000FF8003FF0000
0000FF8003FF0000
0001FF0003FF0000
0001FF0001FF8000
0001FF0001FF8000
0001FF0001FF8000
0003FE0001FFC000
0003FE0000FFC000
0003FE0000FFC000
0007FE0000FFC000
0007FC00007FE000
0007FC00007FE000
0007FC00007FE000
000FF800007FF000
000FF800003FF000
000FF800003FF000
000FF800003FF000
001FF000003FF800
001FF000001FF800
001FF000001FF800
003FF000001FF800
003FE000001FFC00
003FE000000FFC00
003FE000000FFC00
007FC000000FFE00
007FC0000007FE00
007FC0000007FE00
00FFFFFFFFFFFE00
00FFFFFFFFFFFF00
00FFFFFFFFFFFF00
00FFFFFFFFFFFF00
01FFFFFFFFFFFF80
01FFFFFFFFFFFF80
01FFFFFFFFFFFF80
01FF00000003FF80
03FF00000001FFC0
03FF00000001FFC0
03FF00000001FFC0
07FE00000001FFE0
07FE00000000FFE0
07FE00000000FFE0
07FE00000000FFE0
0FFC000000007FF0
0FFC000000007FF0
0FFC000000007FF0
1FFC000000007FF8
1FF8000000003FF8
1FF8000000003FF8
1FF8000000003FF8
3FF8000000003FFC
3FF0000000001FFC
3FF0000000001FFC
3FF0000000001FFC
7FF0000000001FFE
7FE0000000000FFE
7FE0000000000FFE
FFE0000000000FFF
FFE00000000007FF
ENDCHAR
STARTCHAR 00C2
ENCODING 194
SWIDTH 500 0
DWIDTH 66 0
BBX 64 106 1 0
BITMAP
00001FC003F80000
00001FC003F80000
00001FC003F80000
00001FC003F80000
00001FC003F80000
00001FC003F80000
00001FC003F80000
0000000000000000
0000000000000000
0000000000000000
0000000000000000
0000000000000000
0000000000000000
0000000000000000
0000003FFE000000
0000007FFE000000
0000007FFE000000
0000007FFF000000
000000FFFF000000
000000FFFF000000
000000FFFF000000
000000FFFF800000
000001FFFF800000
000001FFFF800000
000001FFFFC00000
000001FFFFC00000
000003FEFFC00000
000003FE7FC00000
000003FE7FE00000
000007FC7FE00000
000007FC7FE00000
000007FC3FE00000
000007FC3FF00000
00000FF83FF00000
00000FF83FF00000
00000FF81FF80000
00001FF81FF80000
00001FF01FF80000
00001FF01FF80000
00001FF00FFC0000
00003FF00FFC0000
00003FE00FFC0000
00003FE007FE0000
00007FE007FE0000
00007FC007FE0000
00007FC007FE0000
00007FC003FF0000
0000FFC003FF0000
0000FF8003FF0000
0000FF8003FF0000
0000FF8001FF8000
0001FF8001FF8000
0001FF0001FF8000
0001FF0000FFC000
0003FF0000FFC000
0003FE0000FFC000
0003FE0000FFC000
0003FE00007FE000
0007FE00007FE000
0007FC00007FE000
0007FC00007FE000
000FFC00003FF000
000FFC00003FF000
000FF800003FF000
000FF800001FF800
001FF800001FF800
001FF000001FF800
001FF000001FF800
003FF000000FFC00
003FF000000FFC00
003FE000000FFC00
003FE000000FFE00
007FE0000007FE00
007FE0000007FE00
007FC0000007FE00
007FFFFFFFFFFF00
00FFFFFFFFFFFF00
00FFFFFFFFFFFF00
00FFFFFFFFFFFF00
01FFFFFFFFFFFF80
01FFFFFFFFFFFF80
01FFFFFFFFFFFF80
01FF80000001FFC0
03FF00000001FFC0
03FF00000001FFC0
03FF00000000FFC0
07FF00000000FFE0
07FE00000000FFE0
07FE00000000FFE0
07FE000000007FE0
0FFE000000007FF0
0FFC000000007FF0
0FFC000000003FF0
1FFC000000003FF8
1FFC000000003FF8
1FF8000000003FF8
1FF8000000001FF8
3FF8000000001FFC
3FF8000000001FFC
3FF0000000001FFC
3FF0000000000FFC
7FF0000000000FFE
7FE0000000000FFE
7FE0000000000FFE
FFE00000000007FF
FFE00000000007FF
ENDCHAR
STARTCHAR 00C3
ENCODING 195
SWIDTH 386 0
DWIDTH 51 0
BBX 38 92 9 1
BITMAP
0000000FF8
0000001FF0
0000003FE0
0000007FC0
0000007F80
000000FF00
000001FF00
000003FE00
000003FC00
000007F800
00000FF000
00001FE000
00001FC000
00003FC000
00007F8000
0000FF0000
0000FE0000
0001FC0000
0000000000
0000000000
0000000000
0000000000
0000000000
0000000000
0000000000
0000000000
007FFFFFFC
03FFFFFFFC
07FFFFFFFC
0FFFFFFFFC
1FFFFFFFFC
3FFFFFFFFC
7FFFFFFFFC
7FFFFFFFFC
7FF0000004
FFE0000000
FFC0000000
FFC0000000
FF80000000
FF80000000
FF80000000
FF80000000
FF80000000
FF80000000
FF80000000
FF80000000
FF80000000
FF80000000
FF80000000
FF80000000
FF80000000
FF80000000
FF80000000
FF80000000
FF80000000
FF80000000
FF80000000
FF80000000
FF80000000
FF80000000
FF80000000
FF80000000
FF80000000
FF80000000
FF80000000
FF80000000
FF80000000
FF80000000
FF80000000
FF80000000
FF80000000
FF80000000
FF80000000
FF80000000
FF80000000
FF80000000
FF80000000
FF80000000
FF80000000
FF80000000
FFC0000000
FFC0000000
FFE0000000
7FF0000000
7FFFFFFFFC
7FFFFFFFFC
3FFFFFFFFC
1FFFFFFFFC
1FFFFFFFFC
07FFFFFFFC
03FFFFFFFC
007FFFFFFC
ENDCHAR
STARTCHAR 00C4
ENCODING 196
SWIDTH 500 0
DWIDTH 66 0
BBX 64 110 1 0
BITMAP
00007FC000000000
00003FE000000000
00000FF800000000
000007FC00000000
000003FE00000000
000001FF00000000
000000FF80000000
0000003FC0000000
0000001FE0000000
0000000FF0000000
00000007F8000000
00000003FC000000
00000000FE000000
000000007F000000
0000000000000000
0000000000000000
0000000000000000
0000003FFE000000
0000003FFE000000
0000003FFE000000
0000007FFE000000
0000007FFF000000
0000007FFF000000
000000FFFF000000
000000FFFF000000
000000FFFF800000
000000FFFF800000
000001FFFF800000
000001FFFFC00000
000001FFFFC00000
000003FEFFC00000
000003FE7FC00000
000003FE7FE00000
000003FE7FE00000
000007FC3FE00000
000007FC3FF00000
000007FC3FF00000
00000FF83FF00000
00000FF81FF00000
00000FF81FF80000
00000FF81FF80000
00001FF01FF80000
00001FF00FF80000
00001FF00FFC0000
00003FF00FFC0000
00003FE007FC0000
00003FE007FE0000
00003FE007FE0000
00007FC007FE0000
00007FC003FE0000
00007FC003FF0000
0000FFC003FF0000
0000FF8003FF0000
0000FF8001FF0000
0000FF8001FF8000
0001FF8001FF8000
0001FF0001FF8000
0001FF0000FFC000
0001FF0000FFC000
0003FE0000FFC000
0003FE00007FC000
0003FE00007FE000
0007FE00007FE000
0007FC00007FE000
0007FC00003FE000
0007FC00003FF000
000FFC00003FF000
000FF800003FF000
000FF800001FF800
001FF800001FF800
001FF000001FF800
001FF000001FF800
001FF000000FFC00
003FF000000FFC00
003FE000000FFC00
003FE0000007FE00
007FE0000007FE00
007FE0000007FE00
007FC0000007FE00
007FFFFFFFFFFF00
00FFFFFFFFFFFF00
00FFFFFFFFFFFF00
00FFFFFFFFFFFF00
01FFFFFFFFFFFF80
01FFFFFFFFFFFF80
01FFFFFFFFFFFF80
01FF80000001FFC0
03FF00000001FFC0
03FF00000001FFC0
03FF00000000FFC0
03FF00000000FFE0
07FE00000000FFE0
07FE000000007FE0
07FE000000007FE0
0FFE000000007FF0
0FFC000000007FF0
0FFC000000003FF0
0FFC000000003FF8
1FFC000000003FF8
1FF8000000003FF8
1FF8000000001FF8
3FF8000000001FFC
3FF8000000001FFC
3FF0000000001FFC
3FF0000000000FFC
7FF0000000000FFE
7FF0000000000FFE
7FE0000000000FFE
FFE00000000007FF
FFE00000000007FF
ENDCHAR
STARTCHAR 00C5
ENCODING 197
SWIDTH 500 0
DWIDTH 66 0
BBX 64 109 1 0
BITMAP
00001FC00001F000
0000FFF80001F000
0001FFFE0001F000
0003FFFF0001F000
0007FFFFC001F000
0007F07FE003F000
0007C01FF803F000
000FC007FE07E000
000FC001FFFFE000
000F8000FFFFC000
000F80003FFFC000
000F80000FFF0000
000F800003FC0000
0000000000000000
0000000000000000
0000000000000000
0000000000000000
0000003FFE000000
0000003FFE000000
0000007FFE000000
0000007FFF000000
0000007FFF000000
000000FFFF000000
000000FFFF800000
000000FFFF800000
000000FFFF800000
000001FFFF800000
000001FFFFC00000
000001FFFFC00000
000003FEFFC00000
000003FE7FC00000
000003FE7FE00000
000003FE7FE00000
000007FC3FE00000
000007FC3FF00000
000007FC3FF00000
00000FF83FF00000
00000FF81FF00000
00000FF81FF80000
00000FF81FF80000
00001FF01FF80000
00001FF00FF80000
00001FF00FFC0000
00003FF00FFC0000
00003FE007FC0000
00003FE007FE0000
00003FE007FE0000
00007FC007FE0000
00007FC003FE0000
00007FC003FF0000
00007FC003FF0000
0000FF8003FF0000
0000FF8001FF0000
0000FF8001FF8000
0001FF8001FF8000
0001FF0000FF8000
0001FF0000FFC000
0001FF0000FFC000
0003FE0000FFC000
0003FE00007FC000
0003FE00007FE000
0007FE00007FE000
0007FC00007FE000
0007FC00003FF000
0007FC00003FF000
000FFC00003FF000
000FF800001FF000
000FF800001FF800
001FF800001FF800
001FF000001FF800
001FF000000FF800
001FF000000FFC00
003FF000000FFC00
003FE000000FFC00
003FE0000007FE00
007FE0000007FE00
007FE0000007FE00
007FC0000003FE00
007FFFFFFFFFFF00
00FFFFFFFFFFFF00
00FFFFFFFFFFFF00
00FFFFFFFFFFFF00
01FFFFFFFFFFFF80
01FFFFFFFFFFFF80
01FFFFFFFFFFFF80
01FF00000001FFC0
03FF00000001FFC0
03FF00000000FFC0
03FF00000000FFC0
03FE00000000FFE0
07FE00000000FFE0
07FE000000007FE0
07FE000000007FE0
0FFC000000007FF0
0FFC000000003FF0
0FFC000000003FF0
0FF8000000003FF8
1FF8000000003FF8
1FF8000000001FF8
1FF8000000001FF8
3FF0000000001FFC
3FF0000000001FFC
3FF0000000000FFC
3FF0000000000FFE
7FE0000000000FFE
7FE0000000000FFE
7FE00000000007FE
FFE00000000007FF
FFC00000000007FF
ENDCHAR
STARTCHAR 00C6
ENCODING 198
SWIDTH 772 0
DWIDTH 102 0
BBX 103 92 -5 0
BITMAP
0000000000007FFFFFFFFFFFF8
0000000000007FFFFFFFFFFFF8
000000000000FFFFFFFFFFFFF8
000000000000FFFFFFFFFFFFF8
000000000001FFFFFFFFFFFFF8
000000000001FFFFFFFFFFFFF8
000000000003FFFFFFFFFFFFF8
000000000007FFFFFFFFFFFFF8
000000000007FFFE0000000018
00000000000FFFFE0000000000
00000000000FFFFE0000000000
00000000001FFFFE0000000000
00000000001FFBFE0000000000
00000000003FF3FE0000000000
00000000003FF3FE0000000000
00000000007FE3FE0000000000
00000000007FE3FE0000000000
0000000000FFC3FE0000000000
0000000000FFC3FE0000000000
0000000001FF83FE0000000000
0000000003FF83FE0000000000
0000000003FF03FE0000000000
0000000007FE03FE0000000000
0000000007FE03FE0000000000
000000000FFC03FE0000000000
000000000FFC03FE0000000000
000000001FF803FE0000000000
000000001FF803FE0000000000
000000003FF003FE0000000000
000000003FF003FE0000000000
000000007FE003FE0000000000
00000000FFE003FE0000000000
00000000FFC003FE0000000000
00000001FF8003FE0000000000
00000001FF8003FE0000000000
00000003FF0003FE0000000000
00000003FF0003FE0000000000
00000007FE0003FE0000000000
00000007FE0003FE0000000000
0000000FFC0003FFFFFFFFF800
0000000FFC0003FFFFFFFFF800
0000001FF80003FFFFFFFFF800
0000001FF80003FFFFFFFFF800
0000003FF00003FFFFFFFFF800
0000007FE00003FFFFFFFFF800
0000007FE00003FFFFFFFFF800
000000FFC00003FFFFFFFFF800
000000FFC00003FE0000000000
000001FF800003FE0000000000
000001FF800003FE0000000000
000003FF000003FE0000000000
000003FF000003FE0000000000
000007FE000003FE0000000000
000007FE000003FE0000000000
00000FFC000003FE0000000000
00001FF8000003FE0000000000
00001FF8000003FE0000000000
00003FF0000003FE0000000000
00003FF0000003FE0000000000
00007FE0000003FE0000000000
00007FE0000003FE0000000000
0000FFFFFFFFFFFE0000000000
0000FFFFFFFFFFFE0000000000
0001FFFFFFFFFFFE0000000000
0001FFFFFFFFFFFE0000000000
0003FFFFFFFFFFFE0000000000
0003FFFFFFFFFFFE0000000000
0007FFFFFFFFFFFE0000000000
000FFE00000003FE0000000000
000FFE00000003FE0000000000
001FFC00000003FE0000000000
001FFC00000003FE0000000000
003FF800000003FE0000000000
003FF800000003FE0000000000
007FF000000003FE0000000000
007FF000000003FE0000000000
00FFE000000003FE0000000000
00FFE000000003FE0000000000
01FFC000000003FE0000000000
01FFC000000003FE0000000000
03FF8000000003FE0000000000
07FF0000000003FE0000000000
07FF0000000003FE0000000000
0FFE0000000003FE0000000002
0FFE0000000003FFFFFFFFFFFE
1FFC0000000003FFFFFFFFFFFE
1FFC0000000003FFFFFFFFFFFE
3FF80000000003FFFFFFFFFFFE
3FF80000000003FFFFFFFFFFFE
7FF00000000003FFFFFFFFFFFE
7FF00000000003FFFFFFFFFFFE
FFE00000000003FFFFFFFFFFFE
ENDCHAR
STARTCHAR 00C7
ENCODING 199
SWIDTH 477 0
DWIDTH 63 0
BBX 49 109 10 1
BITMAP
000000FF000000
000001FF800000
000003FFC00000
000007FFE00000
00000FFFF00000
00001FE7F80000
00003FC3FC0000
00007F81FE0000
0000FF00FF0000
0001FE007F8000
0003F8003FC000
0007F0000FE000
000FE00007F000
00000000000000
00000000000000
00000000000000
00000000000000
007FFFFFFFFF80
03FFFFFFFFFF80
07FFFFFFFFFF80
1FFFFFFFFFFF80
1FFFFFFFFFFF80
3FFFFFFFFFFF80
7FFFFFFFFFFF80
7FFFFFFFFFFF80
7FFFFFFFFFFF80
FFE00000000000
FFC00000000000
FFC00000000000
FF800000000000
FF800000000000
FF800000000000
FF800000000000
FF800000000000
FF800000000000
FF800000000000
FF800000000000
FF800000000000
FF800000000000
FF800000000000
FF800000000000
FF800000000000
FF800000000000
FF800000000000
FF800000000000
FF800000000000
FF800000000000
FF800000000000
FF800000000000
FF800000000000
FF800000000000
FF800000000000
FF800000000000
FF800000000000
FF800000000000
FF800000000000
FF800000000000
FF800000000000
FF800000000000
FF800000000000
FF800000000000
FF800000000000
FF800000000000
FF800000000000
FF800000000000
FF800000000000
FF800000000000
FF800000000000
FF800000000000
FF800000000000
FF800000000000
FF800000000000
FF800000000000
FF800000000000
FF800000000000
FF800000000000
FF800000000000
FF800000000000
FF800000000000
FF800000000000
FF800000000000
FF800000000000
FF800000000000
FF800000000000
FF800000000000
FF800000000000
FF800000000000
FF800000000000
FF800000000000
FF800000000000
FF800000000000
FF800000000000
FF800000000000
FF800000000000
FF800000000000
FF800000000000
FF800000000000
FFC00000000000
FFC00000000000
FFF00000000000
7FFFFFFFFFFF80
7FFFFFFFFFFF80
7FFFFFFFFFFF80
3FFFFFFFFFFF80
3FFFFFFFFFFF80
1FFFFFFFFFFF80
0FFFFFFFFFFF80
03FFFFFFFFFF80
007FFFFFFFFF80
ENDCHAR
STARTCHAR 00C8
ENCODING 200
SWIDTH 477 0
DWIDTH 63 0
BBX 47 109 10 1
BITMAP
003FE0000000
000FF0000000
0007F8000000
0003FC000000
0001FE000000
0000FF000000
00007F800000
00003F800000
00001FC00000
00000FE00000
000007F00000
000003F80000
000000FC0000
000000000000
000000000000
000000000000
000000000000
FFFFFFFFFFF0
FFFFFFFFFFF0
FFFFFFFFFFF0
FFFFFFFFFFF0
FFFFFFFFFFF0
FFFFFFFFFFF0
FFFFFFFFFFF0
FFFFFFFFFFF0
FF8000000010
FF8000000000
FF8000000000
FF8000000000
FF8000000000
FF8000000000
FF8000000000
FF8000000000
FF8000000000
FF8000000000
FF8000000000
FF8000000000
FF8000000000
FF8000000000
FF8000000000
FF8000000000
FF8000000000
FF8000000000
FF8000000000
FF8000000000
FF8000000000
FF8000000000
FF8000000000
FF8000000000
FF8000000000
FF8000000000
FF8000000000
FF8000000000
FF8000000000
FF8000000000
FF8000000000
FFFFFFFFF800
FFFFFFFFF800
FFFFFFFFF800
FFFFFFFFF800
FFFFFFFFF800
FFFFFFFFF800
FFFFFFFFF800
FFFFFFFFF800
FF8000000000
FF8000000000
FF8000000000
FF8000000000
FF8000000000
FF8000000000
FF8000000000
FF8000000000
FF8000000000
FF8000000000
FF8000000000
FF8000000000
FF8000000000
FF8000000000
FF8000000000
FF8000000000
FF8000000000
FF8000000000
FF8000000000
FF8000000000
FF8000000000
FF8000000000
FF8000000000
FF8000000000
FF8000000000
FF8000000000
FF8000000000
FF8000000000
FF8000000000
FF8000000000
FF8000000000
FF8000000000
FF8000000000
FF8000000000
FF8000000000
FF8000000000
FF8000000002
FFFFFFFFFFFE
FFFFFFFFFFFE
FFFFFFFFFFFE
FFFFFFFFFFFE
FFFFFFFFFFFE
FFFFFFFFFFFE
FFFFFFFFFFFE
FFFFFFFFFFFE
ENDCHAR
STARTCHAR 00C9
ENCODING 201
SWIDTH 477 0
DWIDTH 63 0
BBX 51 109 10 1
BITMAP
00000001FF0000
00000003FE0000
00000007FC0000
0000000FF80000
0000001FE00000
0000003FC00000
0000007F800000
000000FF000000
000001FE000000
000003F8000000
000007F0000000
00000FE0000000
00001FC0000000
00000000000000
00000000000000
00000000000000
00000000000000
FFFFFFFFFFFF00
FFFFFFFFFFFF00
FFFFFFFFFFFF00
FFFFFFFFFFFF00
FFFFFFFFFFFF00
FFFFFFFFFFFF00
FFFFFFFFFFFF00
FFFFFFFFFFFF00
FF800000000100
FF800000000000
FF800000000000
FF800000000000
FF800000000000
FF800000000000
FF800000000000
FF800000000000
FF800000000000
FF800000000000
FF800000000000
FF800000000000
FF800000000000
FF800000000000
FF800000000000
FF800000000000
FF800000000000
FF800000000000
FF800000000000
FF800000000000
FF800000000000
FF800000000000
FF800000000000
FF800000000000
FF800000000000
FF800000000000
FF800000000000
FF800000000000
FF800000000000
FF800000000000
FF800000000000
FFFFFFFFFF8000
FFFFFFFFFF8000
FFFFFFFFFF8000
FFFFFFFFFF8000
FFFFFFFFFF8000
FFFFFFFFFF8000
FFFFFFFFFF8000
FFFFFFFFFF8000
FF800000000000
FF800000000000
FF800000000000
FF800000000000
FF800000000000
FF800000000000
FF800000000000
FF800000000000
FF800000000000
FF800000000000
FF800000000000
FF800000000000
FF800000000000
FF800000000000
FF800000000000
FF800000000000
FF800000000000
FF800000000000
FF800000000000
FF800000000000
FF800000000000
FF800000000000
FF800000000000
FF800000000000
FF800000000000
FF800000000000
FF800000000000
FF800000000000
FF800000000000
FF800000000000
FF800000000000
FF800000000000
FF800000000000
FF800000000000
FF800000000000
FF800000000000
FF800000000060
FFFFFFFFFFFFE0
FFFFFFFFFFFFE0
FFFFFFFFFFFFE0
FFFFFFFFFFFFE0
FFFFFFFFFFFFE0
FFFFFFFFFFFFE0
FFFFFFFFFFFFE0
FFFFFFFFFFFFE0
ENDCHAR
STARTCHAR 00CA
ENCODING 202
SWIDTH 477 0
DWIDTH 63 0
BBX 47 109 10 1
BITMAP
000007FE0000
00000FFE0000
00001FFF0000
00003FFF8000
00007FFFC000
0000FF9FE000
0001FF0FF000
0003FC07F000
0007F801F800
000FF000FC00
003FC0007E00
007F80001F00
00FF00000F80
000000000000
000000000000
000000000000
000000000000
FFFFFFFFFFF0
FFFFFFFFFFF0
FFFFFFFFFFF0
FFFFFFFFFFF0
FFFFFFFFFFF0
FFFFFFFFFFF0
FFFFFFFFFFF0
FFFFFFFFFFF0
FF8000000010
FF8000000000
FF8000000000
FF8000000000
FF8000000000
FF8000000000
FF8000000000
FF8000000000
FF8000000000
FF8000000000
FF8000000000
FF8000000000
FF8000000000
FF8000000000
FF8000000000
FF8000000000
FF8000000000
FF8000000000
FF8000000000
FF8000000000
FF8000000000
FF8000000000
FF8000000000
FF8000000000
FF8000000000
FF8000000000
FF8000000000
FF8000000000
FF8000000000
FF8000000000
FF8000000000
FFFFFFFFFFF0
FFFFFFFFFFF0
FFFFFFFFFFF0
FFFFFFFFFFF0
FFFFFFFFFFF0
FFFFFFFFFFF0
FFFFFFFFFFF0
FFFFFFFFFFF0
FF8000000000
FF8000000000
FF8000000000
FF8000000000
FF8000000000
FF8000000000
FF8000000000
FF8000000000
FF8000000000
FF8000000000
FF8000000000
FF8000000000
FF8000000000
FF8000000000
FF8000000000
FF8000000000
FF8000000000
FF8000000000
FF8000000000
FF8000000000
FF8000000000
FF8000000000
FF8000000000
FF8000000000
FF8000000000
FF8000000000
FF8000000000
FF8000000000
FF8000000000
FF8000000000
FF8000000000
FF8000000000
FF8000000000
FF8000000000
FF8000000000
FF8000000000
FF8000000002
FFFFFFFFFFFE
FFFFFFFFFFFE
FFFFFFFFFFFE
FFFFFFFFFFFE
FFFFFFFFFFFE
FFFFFFFFFFFE
FFFFFFFFFFFE
FFFFFFFFFFFE
ENDCHAR
STARTCHAR 00CB
ENCODING 203
SWIDTH 477 0
DWIDTH 63 0
BBX 49 106 10 0
BITMAP
0007F000FE0000
0007F000FE0000
0007F000FE0000
0007F000FE0000
0007F000FE0000
0007F000FE0000
0007F000FE0000
00000000000000
00000000000000
00000000000000
00000000000000
00000000000000
00000000000000
00000000000000
FFFFFFFFFFFC00
FFFFFFFFFFFC00
FFFFFFFFFFFC00
FFFFFFFFFFFC00
FFFFFFFFFFFC00
FFFFFFFFFFFC00
FFFFFFFFFFFC00
FFFFFFFFFFFC00
FF800000000400
FF800000000000
FF800000000000
FF800000000000
FF800000000000
FF800000000000
FF800000000000
FF800000000000
FF800000000000
FF800000000000
FF800000000000
FF800000000000
FF800000000000
FF800000000000
FF800000000000
FF800000000000
FF800000000000
FF800000000000
FF800000000000
FF800000000000
FF800000000000
FF800000000000
FF800000000000
FF800000000000
FF800000000000
FF800000000000
FF800000000000
FF800000000000
FF800000000000
FF800000000000
FF800000000000
FFFFFFFFFE0000
FFFFFFFFFE0000
FFFFFFFFFE0000
FFFFFFFFFE0000
FFFFFFFFFE0000
FFFFFFFFFE0000
FFFFFFFFFE0000
FFFFFFFFFE0000
FF800000000000
FF800000000000
FF800000000000
FF800000000000
FF800000000000
FF800000000000
FF800000000000
FF800000000000
FF800000000000
FF800000000000
FF800000000000
FF800000000000
FF800000000000
FF800000000000
FF800000000000
FF800000000000
FF800000000000
FF800000000000
FF800000000000
FF800000000000
FF800000000000
FF800000000000
FF800000000000
FF800000000000
FF800000000000
FF800000000000
FF800000000000
FF800000000000
FF800000000000
FF800000000000
FF800000000000
FF800000000000
FF800000000000
FF800000000000
FF800000000000
FF800000000000
FF800000000100
FFFFFFFFFFFF80
FFFFFFFFFFFF80
FFFFFFFFFFFF80
FFFFFFFFFFFF80
FFFFFFFFFFFF80
FFFFFFFFFFFF80
FFFFFFFFFFFF80
FFFFFFFFFFFF80
ENDCHAR
STARTCHAR 00CC
ENCODING 204
SWIDTH 227 0
DWIDTH 30 0
BBX 21 109 -2 1
BITMAP
FF8000
7FC000
3FE000
0FF000
07F800
03FC00
01FE00
00FF00
003F80
001FC0
000FE0
0007F0
0003F8
000000
000000
000000
000000
000FF8
000FF8
000FF8
000FF8
000FF8
000FF8
000FF8
000FF8
000FF8
000FF8
000FF8
000FF8
000FF8
000FF8
000FF8
000FF8
000FF8
000FF8
000FF8
000FF8
000FF8
000FF8
000FF8
000FF8
000FF8
000FF8
000FF8
000FF8
000FF8
000FF8
000FF8
000FF8
000FF8
000FF8
000FF8
000FF8
000FF8
000FF8
000FF8
000FF8
000FF8
000FF8
000FF8
000FF8
000FF8
000FF8
000FF8
000FF8
000FF8
000FF8
000FF8
000FF8
000FF8
000FF8
000FF8
000FF8
000FF8
000FF8
000FF8
000FF8
000FF8
000FF8
000FF8
000FF8
000FF8
000FF8
000FF8
000FF8
000FF8
000FF8
000FF8
000FF8
000FF8
000FF8
000FF8
000FF8
000FF8
000FF8
000FF8
000FF8
000FF8
000FF8
000FF8
000FF8
000FF8
000FF8
000FF8
000FF8
000FF8
000FF8
000FF8
000FF8
ENDCHAR
STARTCHAR 00CD
ENCODING 205
SWIDTH 227 0
DWIDTH 30 0
BBX 21 109 8 1
BITMAP
000FF8
001FF0
003FE0
007F80
00FF00
01FE00
03FC00
07F800
0FE000
1FC000
3F8000
7F0000
FE0000
000000
000000
000000
000000
3FE000
3FE000
3FE000
3FE000
3FE000
3FE000
3FE000
3FE000
3FE000
3FE000
3FE000
3FE000
3FE000
3FE000
3FE000
3FE000
3FE000
3FE000
3FE000
3FE000
3FE000
3FE000
3FE000
3FE000
3FE000
3FE000
3FE000
3FE000
3FE000
3FE000
3FE000
3FE000
3FE000
3FE000
3FE000
3FE000
3FE000
3FE000
3FE000
3FE000
3FE000
3FE000
3FE000
3FE000
3FE000
3FE000
3FE000
3FE000
3FE000
3FE000
3FE000
3FE000
3FE000
3FE000
3FE000
3FE000
3FE000
3FE000
3FE000
3FE000
3FE000
3FE000
3FE000
3FE000
3FE000
3FE000
3FE000
3FE000
3FE000
3FE000
3FE000
3FE000
3FE000
3FE000
3FE000
3FE000
3FE000
3FE000
3FE000
3FE000
3FE000
3FE000
3FE000
3FE000
3FE000
3FE000
3FE000
3FE000
3FE000
3FE000
3FE000
3FE000
ENDCHAR
STARTCHAR 00CE
ENCODING 206
SWIDTH 227 0
DWIDTH 30 0
BBX 33 109 -2 1
BITMAP
000FF80000
001FFC0000
003FFE0000
007FFF0000
00FF7F8000
01FE3FC000
03FC1FE000
07F80FF000
0FF007F800
1FE003FC00
3FC001FE00
7F0000FF00
FE00003F80
0000000000
0000000000
0000000000
0000000000
000FF80000
000FF80000
000FF80000
000FF80000
000FF80000
000FF80000
000FF80000
000FF80000
000FF80000
000FF80000
000FF80000
000FF80000
000FF80000
000FF80000
000FF80000
000FF80000
000FF80000
000FF80000
000FF80000
000FF80000
000FF80000
000FF80000
000FF80000
000FF80000
000FF80000
000FF80000
000FF80000
000FF80000
000FF80000
000FF80000
000FF80000
000FF80000
000FF80000
000FF80000
000FF80000
000FF80000
000FF80000
000FF80000
000FF80000
000FF80000
000FF80000
000FF80000
000FF80000
000FF80000
000FF80000
000FF80000
000FF80000
000FF80000
000FF80000
000FF80000
000FF80000
000FF80000
000FF80000
000FF80000
000FF80000
000FF80000
000FF80000
000FF80000
000FF80000
000FF80000
000FF80000
000FF80000
000FF80000
000FF80000
000FF80000
000FF80000
000FF80000
000FF80000
000FF80000
000FF80000
000FF80000
000FF80000
000FF80000
000FF80000
000FF80000
000FF80000
000FF80000
000FF80000
000FF80000
000FF80000
000FF80000
000FF80000
000FF80000
000FF80000
000FF80000
000FF80000
000FF80000
000FF80000
000FF80000
000FF80000
000FF80000
000FF80000
ENDCHAR
STARTCHAR 00CF
ENCODING 207
SWIDTH 227 0
DWIDTH 30 0
BBX 26 106 2 0
BITMAP
FE001FC0
FE001FC0
FE001FC0
FE001FC0
FE001FC0
FE001FC0
FE001FC0
00000000
00000000
00000000
00000000
00000000
00000000
00000000
00FF8000
00FF8000
00FF8000
00FF8000
00FF8000
00FF8000
00FF8000
00FF8000
00FF8000
00FF8000
00FF8000
00FF8000
00FF8000
00FF8000
00FF8000
00FF8000
00FF8000
00FF8000
00FF8000
00FF8000
00FF8000
00FF8000
00FF8000
00FF8000
00FF8000
00FF8000
00FF8000
00FF8000
00FF8000
00FF8000
00FF8000
00FF8000
00FF8000
00FF8000
00FF8000
00FF8000
00FF8000
00FF8000
00FF8000
00FF8000
00FF8000
00FF8000
00FF8000
00FF8000
00FF8000
00FF8000
00FF8000
00FF8000
00FF8000
00FF8000
00FF8000
00FF8000
00FF8000
00FF8000
00FF8000
00FF8000
00FF8000
00FF8000
00FF8000
00FF8000
00FF8000
00FF8000
00FF8000
00FF8000
00FF8000
00FF8000
00FF8000
00FF8000
00FF8000
00FF8000
00FF8000
00FF8000
00FF8000
00FF8000
00FF8000
00FF8000
00FF8000
00FF8000
00FF8000
00FF8000
00FF8000
00FF8000
00FF8000
00FF8000
00FF8000
00FF8000
00FF8000
00FF8000
00FF8000
00FF8000
00FF8000
00FF8000
ENDCHAR
STARTCHAR 00D1
ENCODING 209
SWIDTH 560 0
DWIDTH 74 0
BBX 54 109 10 0
BITMAP
0000FE00001F00
0007FF80001F00
000FFFE0001F00
001FFFF8001F00
003FFFFC001F00
003F83FF003F00
003E00FF803F00
007E003FE07E00
007E001FFFFE00
007C0007FFFC00
007C0003FFFC00
007C0000FFF000
007C00001FC000
00000000000000
00000000000000
00000000000000
00000000000000
FFE00000001FFC
FFF00000001FFC
FFF00000001FFC
FFF00000001FFC
FFF80000001FFC
FFF80000001FFC
FFFC0000001FFC
FFFC0000001FFC
FFFE0000001FFC
FFFE0000001FFC
FFFE0000001FFC
FFFF0000001FFC
FFFF0000001FFC
FFFF8000001FFC
FFFF8000001FFC
FFFFC000001FFC
FFFFC000001FFC
FFBFC000001FFC
FFBFE000001FFC
FFBFE000001FFC
FF9FF000001FFC
FF9FF000001FFC
FF8FF800001FFC
FF8FF800001FFC
FF87F800001FFC
FF87FC00001FFC
FF83FC00001FFC
FF83FE00001FFC
FF83FE00001FFC
FF81FE00001FFC
FF81FF00001FFC
FF80FF00001FFC
FF80FF80001FFC
FF807F80001FFC
FF807FC0001FFC
FF803FC0001FFC
FF803FC0001FFC
FF803FE0001FFC
FF801FE0001FFC
FF801FF0001FFC
FF800FF0001FFC
FF800FF8001FFC
FF8007F8001FFC
FF8007F8001FFC
FF8003FC001FFC
FF8003FC001FFC
FF8003FE001FFC
FF8001FE001FFC
FF8001FF001FFC
FF8000FF001FFC
FF8000FF001FFC
FF80007F801FFC
FF80007F801FFC
FF80003FC01FFC
FF80003FC01FFC
FF80003FE01FFC
FF80001FE01FFC
FF80001FE01FFC
FF80000FF01FFC
FF80000FF01FFC
FF800007F81FFC
FF800007F81FFC
FF800003F81FFC
FF800003FC1FFC
FF800003FC1FFC
FF800001FE1FFC
FF800001FE1FFC
FF800000FF1FFC
FF800000FF1FFC
FF8000007F1FFC
FF8000007F9FFC
FF8000003F9FFC
FF8000003FDFFC
FF8000003FDFFC
FF8000001FFFFC
FF8000001FFFFC
FF8000000FFFFC
FF8000000FFFFC
FF80000007FFFC
FF80000007FFFC
FF80000003FFFC
FF80000003FFFC
FF80000003FFFC
FF80000001FFFC
FF80000001FFFC
FF80000000FFFC
FF80000000FFFC
FF800000007FFC
FF800000007FFC
FF800000003FFC
FF800000003FFC
FF800000003FFC
ENDCHAR
STARTCHAR 00D2
ENCODING 210
SWIDTH 553 0
DWIDTH 73 0
BBX 52 109 10 1
BITMAP
000FF800000000
0007FC00000000
0003FE00000000
0000FF00000000
00007FC0000000
00003FE0000000
00001FF0000000
000007F8000000
000003FC000000
000001FE000000
000000FF000000
0000007F800000
0000001FC00000
00000000000000
00000000000000
00000000000000
00000000000000
007FFFFFFFE000
03FFFFFFFFFC00
0FFFFFFFFFFF00
1FFFFFFFFFFF80
1FFFFFFFFFFFC0
3FFFFFFFFFFFC0
7FFFFFFFFFFFE0
7FFFFFFFFFFFE0
7FFFFFFFFFFFE0
FFE0000000FFF0
FFC00000003FF0
FFC00000003FF0
FF800000001FF0
FF800000001FF0
FF800000001FF0
FF800000001FF0
FF800000001FF0
FF800000001FF0
FF800000001FF0
FF800000001FF0
FF800000001FF0
FF800000001FF0
FF800000001FF0
FF800000001FF0
FF800000001FF0
FF800000001FF0
FF800000001FF0
FF800000001FF0
FF800000001FF0
FF800000001FF0
FF800000001FF0
FF800000001FF0
FF800000001FF0
FF800000001FF0
FF800000001FF0
FF800000001FF0
FF800000001FF0
FF800000001FF0
FF800000001FF0
FF800000001FF0
FF800000001FF0
FF800000001FF0
FF800000001FF0
FF800000001FF0
FF800000001FF0
FF800000001FF0
FF800000001FF0
FF800000001FF0
FF800000001FF0
FF800000001FF0
FF800000001FF0
FF800000001FF0
FF800000001FF0
FF800000001FF0
FF800000001FF0
FF800000001FF0
FF800000001FF0
FF800000001FF0
FF800000001FF0
FF800000001FF0
FF800000001FF0
FF800000001FF0
FF800000001FF0
FF800000001FF0
FF800000001FF0
FF800000001FF0
FF800000001FF0
FF800000001FF0
FF800000001FF0
FF800000001FF0
FF800000001FF0
FF800000001FF0
FF800000001FF0
FF800000001FF0
FF800000001FF0
FF800000001FF0
FF800000001FF0
FF800000001FF0
FF800000001FF0
FF800000001FF0
FFC00000003FF0
FFC00000003FF0
FFF00000007FF0
7FFFFFFFFFFFE0
7FFFFFFFFFFFE0
7FFFFFFFFFFFE0
3FFFFFFFFFFFC0
3FFFFFFFFFFF80
1FFFFFFFFFFF80
0FFFFFFFFFFE00
03FFFFFFFFFC00
007FFFFFFFE000
ENDCHAR
STARTCHAR 00D3
ENCODING 211
SWIDTH 553 0
DWIDTH 73 0
BBX 52 109 10 1
BITMAP
000000007FC000
00000000FF8000
00000001FE0000
00000003FC0000
00000007F80000
0000000FF00000
0000001FE00000
0000003FC00000
0000007F000000
000000FE000000
000001FC000000
000003F8000000
000007F0000000
00000000000000
00000000000000
00000000000000
00000000000000
007FFFFFFFE000
03FFFFFFFFFC00
0FFFFFFFFFFF00
1FFFFFFFFFFF80
1FFFFFFFFFFFC0
3FFFFFFFFFFFC0
7FFFFFFFFFFFE0
7FFFFFFFFFFFE0
7FFFFFFFFFFFE0
FFE0000000FFF0
FFC00000003FF0
FFC00000003FF0
FF800000001FF0
FF800000001FF0
FF800000001FF0
FF800000001FF0
FF800000001FF0
FF800000001FF0
FF800000001FF0
FF800000001FF0
FF800000001FF0
FF800000001FF0
FF800000001FF0
FF800000001FF0
FF800000001FF0
FF800000001FF0
FF800000001FF0
FF800000001FF0
FF800000001FF0
FF800000001FF0
FF800000001FF0
FF800000001FF0
FF800000001FF0
FF800000001FF0
FF800000001FF0
FF800000001FF0
FF800000001FF0
FF800000001FF0
FF800000001FF0
FF800000001FF0
FF800000001FF0
FF800000001FF0
FF800000001FF0
FF800000001FF0
FF800000001FF0
FF800000001FF0
FF800000001FF0
FF800000001FF0
FF800000001FF0
FF800000001FF0
FF800000001FF0
FF800000001FF0
FF800000001FF0
FF800000001FF0
FF800000001FF0
FF800000001FF0
FF800000001FF0
FF800000001FF0
FF800000001FF0
FF800000001FF0
FF800000001FF0
FF800000001FF0
FF800000001FF0
FF800000001FF0
FF800000001FF0
FF800000001FF0
FF800000001FF0
FF800000001FF0
FF800000001FF0
FF800000001FF0
FF800000001FF0
FF800000001FF0
FF800000001FF0
FF800000001FF0
FF800000001FF0
FF800000001FF0
FF800000001FF0
FF800000001FF0
FF800000001FF0
FF800000001FF0
FFC00000003FF0
FFC00000003FF0
FFF00000007FF0
7FFFFFFFFFFFE0
7FFFFFFFFFFFE0
7FFFFFFFFFFFE0
3FFFFFFFFFFFC0
3FFFFFFFFFFF80
1FFFFFFFFFFF80
0FFFFFFFFFFE00
03FFFFFFFFFC00
007FFFFFFFE000
ENDCHAR
STARTCHAR 00D4
ENCODING 212
SWIDTH 553 0
DWIDTH 73 0
BBX 52 109 10 1
BITMAP
000003FE000000
000007FF000000
00000FFF800000
00001FFFC00000
00001FFFE00000
00003F9FF00000
00007F0FF00000
0000FE03F80000
0001FC01FC0000
0003F800FE0000
0007F0007F0000
000FE0003F8000
001FC0001FC000
00000000000000
00000000000000
00000000000000
00000000000000
007FFFFFFFE000
03FFFFFFFFFC00
0FFFFFFFFFFF00
1FFFFFFFFFFF80
1FFFFFFFFFFFC0
3FFFFFFFFFFFC0
7FFFFFFFFFFFE0
7FFFFFFFFFFFE0
7FFFFFFFFFFFE0
FFE0000000FFF0
FFC00000003FF0
FFC00000003FF0
FF800000001FF0
FF800000001FF0
FF800000001FF0
FF800000001FF0
FF800000001FF0
FF800000001FF0
FF800000001FF0
FF800000001FF0
FF800000001FF0
FF800000001FF0
FF800000001FF0
FF800000001FF0
FF800000001FF0
FF800000001FF0
FF800000001FF0
FF800000001FF0
FF800000001FF0
FF800000001FF0
FF800000001FF0
FF800000001FF0
FF800000001FF0
FF800000001FF0
FF800000001FF0
FF800000001FF0
FF800000001FF0
FF800000001FF0
FF800000001FF0
FF800000001FF0
FF800000001FF0
FF800000001FF0
FF800000001FF0
FF800000001FF0
FF800000001FF0
FF800000001FF0
FF800000001FF0
FF800000001FF0
FF800000001FF0
FF800000001FF0
FF800000001FF0
FF800000001FF0
FF800000001FF0
FF800000001FF0
FF800000001FF0
FF800000001FF0
FF800000001FF0
FF800000001FF0
FF800000001FF0
FF800000001FF0
FF800000001FF0
FF800000001FF0
FF800000001FF0
FF800000001FF0
FF800000001FF0
FF800000001FF0
FF800000001FF0
FF800000001FF0
FF800000001FF0
FF800000001FF0
FF800000001FF0
FF800000001FF0
FF800000001FF0
FF800000001FF0
FF800000001FF0
FF800000001FF0
FF800000001FF0
FF800000001FF0
FF800000001FF0
FF800000001FF0
FFC00000003FF0
FFC00000003FF0
FFF00000007FF0
7FFFFFFFFFFFE0
7FFFFFFFFFFFE0
7FFFFFFFFFFFE0
3FFFFFFFFFFFC0
3FFFFFFFFFFF80
1FFFFFFFFFFF80
0FFFFFFFFFFE00
03FFFFFFFFFC00
007FFFFFFFE000
ENDCHAR
STARTCHAR 00D5
ENCODING 213
SWIDTH 553 0
DWIDTH 73 0
BBX 52 109 10 0
BITMAP
0003F800007C00
001FFE00007C00
003FFF80007C00
007FFFE0007C00
00FFFFF0007C00
00F03FFC00FC00
00E00FFE00FC00
01C003FF81F800
01C001FFFFF800
0180007FFFF000
0180001FFFE000
01800007FFC000
01800000FF0000
00000000000000
00000000000000
00000000000000
00000000000000
007FFFFFFFE000
03FFFFFFFFFC00
0FFFFFFFFFFF00
1FFFFFFFFFFF80
1FFFFFFFFFFFC0
3FFFFFFFFFFFC0
7FFFFFFFFFFFE0
7FFFFFFFFFFFE0
7FFFFFFFFFFFE0
FFE0000001FFF0
FFC0000000FFF0
FFC0000000FFF0
FF800000007FF0
FF800000007FF0
FF800000007FF0
FF800000007FF0
FF800000007FF0
FF800000007FF0
FF800000007FF0
FF800000007FF0
FF800000007FF0
FF800000007FF0
FF800000007FF0
FF800000007FF0
FF800000007FF0
FF800000007FF0
FF800000007FF0
FF800000007FF0
FF800000007FF0
FF800000007FF0
FF800000007FF0
FF800000007FF0
FF800000007FF0
FF800000007FF0
FF800000007FF0
FF800000007FF0
FF800000007FF0
FF800000007FF0
FF800000007FF0
FF800000007FF0
FF800000007FF0
FF800000007FF0
FF800000007FF0
FF800000007FF0
FF800000007FF0
FF800000007FF0
FF800000007FF0
FF800000007FF0
FF800000007FF0
FF800000007FF0
FF800000007FF0
FF800000007FF0
FF800000007FF0
FF800000007FF0
FF800000007FF0
FF800000007FF0
FF800000007FF0
FF800000007FF0
FF800000007FF0
FF800000007FF0
FF800000007FF0
FF800000007FF0
FF800000007FF0
FF800000007FF0
FF800000007FF0
FF800000007FF0
FF800000007FF0
FF800000007FF0
FF800000007FF0
FF800000007FF0
FF800000007FF0
FF800000007FF0
FF800000007FF0
FF800000007FF0
FF800000007FF0
FF800000007FF0
FF800000007FF0
FF800000007FF0
FF800000007FF0
FF800000007FF0
FFC0000000FFF0
FFC0000000FFF0
FFE0000001FFF0
7FFFFFFFFFFFE0
7FFFFFFFFFFFE0
7FFFFFFFFFFFE0
3FFFFFFFFFFFC0
3FFFFFFFFFFF80
1FFFFFFFFFFF80
0FFFFFFFFFFE00
03FFFFFFFFFC00
007FFFFFFFE000
ENDCHAR
STARTCHAR 00D6
ENCODING 214
SWIDTH 553 0
DWIDTH 73 0
BBX 52 106 10 0
BITMAP
0003F800FE0000
0003F800FE0000
0003F800FE0000
0003F800FE0000
0003F800FE0000
0003F800FE0000
0003F800FE0000
00000000000000
00000000000000
00000000000000
00000000000000
00000000000000
00000000000000
00000000000000
007FFFFFFFE000
03FFFFFFFFFC00
0FFFFFFFFFFF00
1FFFFFFFFFFF80
1FFFFFFFFFFFC0
3FFFFFFFFFFFC0
7FFFFFFFFFFFE0
7FFFFFFFFFFFE0
7FFFFFFFFFFFE0
FFE0000000FFF0
FFC00000003FF0
FFC00000003FF0
FF800000001FF0
FF800000001FF0
FF800000001FF0
FF800000001FF0
FF800000001FF0
FF800000001FF0
FF800000001FF0
FF800000001FF0
FF800000001FF0
FF800000001FF0
FF800000001FF0
FF800000001FF0
FF800000001FF0
FF800000001FF0
FF800000001FF0
FF800000001FF0
FF800000001FF0
FF800000001FF0
FF800000001FF0
FF800000001FF0
FF800000001FF0
FF800000001FF0
FF800000001FF0
FF800000001FF0
FF800000001FF0
FF800000001FF0
FF800000001FF0
FF800000001FF0
FF800000001FF0
FF800000001FF0
FF800000001FF0
FF800000001FF0
FF800000001FF0
FF800000001FF0
FF800000001FF0
FF800000001FF0
FF800000001FF0
FF800000001FF0
FF800000001FF0
FF800000001FF0
FF800000001FF0
FF800000001FF0
FF800000001FF0
FF800000001FF0
FF800000001FF0
FF800000001FF0
FF800000001FF0
FF800000001FF0
FF800000001FF0
FF800000001FF0
FF800000001FF0
FF800000001FF0
FF800000001FF0
FF800000001FF0
FF800000001FF0
FF800000001FF0
FF800000001FF0
FF800000001FF0
FF800000001FF0
FF800000001FF0
FF800000001FF0
FF800000001FF0
FF800000001FF0
FF800000001FF0
FF800000001FF0
FF800000001FF0
FF800000001FF0
FF800000001FF0
FFC00000003FF0
FFC00000003FF0
FFF00000007FF0
7FFFFFFFFFFFE0
7FFFFFFFFFFFE0
7FFFFFFFFFFFE0
3FFFFFFFFFFFC0
3FFFFFFFFFFF80
1FFFFFFFFFFF80
0FFFFFFFFFFE00
03FFFFFFFFFC00
007FFFFFFFE000
ENDCHAR
STARTCHAR 00D8
ENCODING 216
SWIDTH 560 0
DWIDTH 74 0
BBX 75 92 -1 0
BITMAP
00000FFFFFFFFE000FE0
00007FFFFFFFFF800FC0
0000FFFFFFFFFFE01F80
0001FFFFFFFFFFF03F80
0003FFFFFFFFFFF87F00
0007FFFFFFFFFFF87E00
000FFFFFFFFFFFFCFC00
000FFFFFFFFFFFFDFC00
000FFFFFFFFFFFFFF800
001FFE0000000FFFF000
001FF800000003FFE000
001FF800000003FFC000
001FF000000001FFC000
001FF000000001FF8000
001FF000000001FF0000
001FF000000001FF0000
001FF000000001FF0000
001FF000000001FF0000
001FF000000001FF0000
001FF000000001FF0000
001FF000000003FF0000
001FF000000007FF0000
001FF00000000FFF0000
001FF00000000FFF0000
001FF00000001FFF0000
001FF00000003FFF0000
001FF00000007FFF0000
001FF00000007FFF0000
001FF0000000FFFF0000
001FF0000001FDFF0000
001FF0000003F9FF0000
001FF0000007F1FF0000
001FF0000007E1FF0000
001FF000000FE1FF0000
001FF000001FC1FF0000
001FF000003F81FF0000
001FF000003F01FF0000
001FF000007F01FF0000
001FF00000FE01FF0000
001FF00001FC01FF0000
001FF00003F801FF0000
001FF00003F001FF0000
001FF00007F001FF0000
001FF0000FE001FF0000
001FF0001FC001FF0000
001FF0001F8001FF0000
001FF0003F8001FF0000
001FF0007F0001FF0000
001FF000FE0001FF0000
001FF000FC0001FF0000
001FF001FC0001FF0000
001FF003F80001FF0000
001FF007F00001FF0000
001FF00FE00001FF0000
001FF00FC00001FF0000
001FF01FC00001FF0000
001FF03F800001FF0000
001FF07F000001FF0000
001FF07E000001FF0000
001FF0FE000001FF0000
001FF1FC000001FF0000
001FF3F8000001FF0000
001FF7F0000001FF0000
001FF7E0000001FF0000
001FFFE0000001FF0000
001FFFC0000001FF0000
001FFF80000001FF0000
001FFF00000001FF0000
001FFF00000001FF0000
001FFE00000001FF0000
001FFC00000001FF0000
001FF800000001FF0000
001FF800000001FF0000
001FF000000001FF0000
001FF000000001FF0000
001FF000000001FF0000
001FF000000001FF0000
001FF000000001FF0000
003FF000000001FF0000
003FF000000001FF0000
007FF800000003FF0000
00FFF800000003FF0000
01FFFE0000000FFF0000
03FFFFFFFFFFFFFE0000
03F7FFFFFFFFFFFE0000
07E7FFFFFFFFFFFE0000
0FE3FFFFFFFFFFFC0000
1FC3FFFFFFFFFFF80000
1F81FFFFFFFFFFF80000
3F00FFFFFFFFFFE00000
7F003FFFFFFFFFC00000
FE000FFFFFFFFE000000
ENDCHAR
STARTCHAR 00D9
ENCODING 217
SWIDTH 553 0
DWIDTH 73 0
BBX 52 109 10 1
BITMAP
000FF800000000
0007FC00000000
0003FE00000000
0001FF00000000
00007F80000000
00003FC0000000
00001FE0000000
00000FF0000000
000003F8000000
000001FE000000
000000FF000000
0000007F800000
0000003FC00000
00000000000000
00000000000000
00000000000000
00000000000000
FF800000001FF0
FF800000001FF0
FF800000001FF0
FF800000001FF0
FF800000001FF0
FF800000001FF0
FF800000001FF0
FF800000001FF0
FF800000001FF0
FF800000001FF0
FF800000001FF0
FF800000001FF0
FF800000001FF0
FF800000001FF0
FF800000001FF0
FF800000001FF0
FF800000001FF0
FF800000001FF0
FF800000001FF0
FF800000001FF0
FF800000001FF0
FF800000001FF0
FF800000001FF0
FF800000001FF0
FF800000001FF0
FF800000001FF0
FF800000001FF0
FF800000001FF0
FF800000001FF0
FF800000001FF0
FF800000001FF0
FF800000001FF0
FF800000001FF0
FF800000001FF0
FF800000001FF0
FF800000001FF0
FF800000001FF0
FF800000001FF0
FF800000001FF0
FF800000001FF0
FF800000001FF0
FF800000001FF0
FF800000001FF0
FF800000001FF0
FF800000001FF0
FF800000001FF0
FF800000001FF0
FF800000001FF0
FF800000001FF0
FF800000001FF0
FF800000001FF0
FF800000001FF0
FF800000001FF0
FF800000001FF0
FF800000001FF0
FF800000001FF0
FF800000001FF0
FF800000001FF0
FF800000001FF0
FF800000001FF0
FF800000001FF0
FF800000001FF0
FF800000001FF0
FF800000001FF0
FF800000001FF0
FF800000001FF0
FF800000001FF0
FF800000001FF0
FF800000001FF0
FF800000001FF0
FF800000001FF0
FF800000001FF0
FF800000001FF0
FF800000001FF0
FF800000001FF0
FF800000001FF0
FF800000001FF0
FF800000001FF0
FF800000001FF0
FF800000001FF0
FFC00000003FF0
FFC00000003FF0
FFF00000007FF0
7FFFFFFFFFFFE0
7FFFFFFFFFFFE0
7FFFFFFFFFFFE0
3FFFFFFFFFFFC0
3FFFFFFFFFFF80
1FFFFFFFFFFF80
0FFFFFFFFFFE00
03FFFFFFFFFC00
007FFFFFFFE000
ENDCHAR
STARTCHAR 00DA
ENCODING 218
SWIDTH 553 0
DWIDTH 73 0
BBX 52 109 10 1
BITMAP
000000007F8000
00000000FF0000
00000001FE0000
00000007FC0000
0000000FF00000
0000001FE00000
0000003FC00000
0000007F800000
000000FF000000
000001FE000000
000003F8000000
000007F0000000
00000FE0000000
00000000000000
00000000000000
00000000000000
00000000000000
FF800000001FF0
FF800000001FF0
FF800000001FF0
FF800000001FF0
FF800000001FF0
FF800000001FF0
FF800000001FF0
FF800000001FF0
FF800000001FF0
FF800000001FF0
FF800000001FF0
FF800000001FF0
FF800000001FF0
FF800000001FF0
FF800000001FF0
FF800000001FF0
FF800000001FF0
FF800000001FF0
FF800000001FF0
FF800000001FF0
FF800000001FF0
FF800000001FF0
FF800000001FF0
FF800000001FF0
FF800000001FF0
FF800000001FF0
FF800000001FF0
FF800000001FF0
FF800000001FF0
FF800000001FF0
FF800000001FF0
FF800000001FF0
FF800000001FF0
FF800000001FF0
FF800000001FF0
FF800000001FF0
FF800000001FF0
FF800000001FF0
FF800000001FF0
FF800000001FF0
FF800000001FF0
FF800000001FF0
FF800000001FF0
FF800000001FF0
FF800000001FF0
FF800000001FF0
FF800000001FF0
FF800000001FF0
FF800000001FF0
FF800000001FF0
FF800000001FF0
FF800000001FF0
FF800000001FF0
FF800000001FF0
FF800000001FF0
FF800000001FF0
FF800000001FF0
FF800000001FF0
FF800000001FF0
FF800000001FF0
FF800000001FF0
FF800000001FF0
FF800000001FF0
FF800000001FF0
FF800000001FF0
FF800000001FF0
FF800000001FF0
FF800000001FF0
FF800000001FF0
FF800000001FF0
FF800000001FF0
FF800000001FF0
FF800000001FF0
FF800000001FF0
FF800000001FF0
FF800000001FF0
FF800000001FF0
FF800000001FF0
FF800000001FF0
FF800000001FF0
FFC00000003FF0
FFC00000003FF0
FFF00000007FF0
7FFFFFFFFFFFE0
7FFFFFFFFFFFE0
7FFFFFFFFFFFE0
3FFFFFFFFFFFC0
3FFFFFFFFFFF80
1FFFFFFFFFFF80
0FFFFFFFFFFE00
03FFFFFFFFFC00
007FFFFFFFE000
ENDCHAR
STARTCHAR 00DB
ENCODING 219
SWIDTH 553 0
DWIDTH 73 0
BBX 52 109 10 1
BITMAP
000003FE000000
000007FF000000
00000FFF800000
00001FFFC00000
00003FDFE00000
00007F8FF00000
0000FF07F80000
0001FE03FC0000
0003FC01FE0000
0007F800FF0000
000FE0007F8000
001FC0001FC000
003F80000FE000
00000000000000
00000000000000
00000000000000
00000000000000
FF800000001FF0
FF800000001FF0
FF800000001FF0
FF800000001FF0
FF800000001FF0
FF800000001FF0
FF800000001FF0
FF800000001FF0
FF800000001FF0
FF800000001FF0
FF800000001FF0
FF800000001FF0
FF800000001FF0
FF800000001FF0
FF800000001FF0
FF800000001FF0
FF800000001FF0
FF800000001FF0
FF800000001FF0
FF800000001FF0
FF800000001FF0
FF800000001FF0
FF800000001FF0
FF800000001FF0
FF800000001FF0
FF800000001FF0
FF800000001FF0
FF800000001FF0
FF800000001FF0
FF800000001FF0
FF800000001FF0
FF800000001FF0
FF800000001FF0
FF800000001FF0
FF800000001FF0
FF800000001FF0
FF800000001FF0
FF800000001FF0
FF800000001FF0
FF800000001FF0
FF800000001FF0
FF800000001FF0
FF800000001FF0
FF800000001FF0
FF800000001FF0
FF800000001FF0
FF800000001FF0
FF800000001FF0
FF800000001FF0
FF800000001FF0
FF800000001FF0
FF800000001FF0
FF800000001FF0
FF800000001FF0
FF800000001FF0
FF800000001FF0
FF800000001FF0
FF800000001FF0
FF800000001FF0
FF800000001FF0
FF800000001FF0
FF800000001FF0
FF800000001FF0
FF800000001FF0
FF800000001FF0
FF800000001FF0
FF800000001FF0
FF800000001FF0
FF800000001FF0
FF800000001FF0
FF800000001FF0
FF800000001FF0
FF800000001FF0
FF800000001FF0
FF800000001FF0
FF800000001FF0
FF800000001FF0
FF800000001FF0
FF800000001FF0
FF800000001FF0
FFC00000003FF0
FFC00000003FF0
FFF00000007FF0
7FFFFFFFFFFFE0
7FFFFFFFFFFFE0
7FFFFFFFFFFFE0
3FFFFFFFFFFFC0
3FFFFFFFFFFF80
1FFFFFFFFFFF80
0FFFFFFFFFFE00
03FFFFFFFFFC00
007FFFFFFFE000
ENDCHAR
STARTCHAR 00DC
ENCODING 220
SWIDTH 553 0
DWIDTH 73 0
BBX 52 106 10 0
BITMAP
0003F800FE0000
0003F800FE0000
0003F800FE0000
0003F800FE0000
0003F800FE0000
0003F800FE0000
0003F800FE0000
00000000000000
00000000000000
00000000000000
00000000000000
00000000000000
00000000000000
00000000000000
FF800000001FF0
FF800000001FF0
FF800000001FF0
FF800000001FF0
FF800000001FF0
FF800000001FF0
FF800000001FF0
FF800000001FF0
FF800000001FF0
FF800000001FF0
FF800000001FF0
FF800000001FF0
FF800000001FF0
FF800000001FF0
FF800000001FF0
FF800000001FF0
FF800000001FF0
FF800000001FF0
FF800000001FF0
FF800000001FF0
FF800000001FF0
FF800000001FF0
FF800000001FF0
FF800000001FF0
FF800000001FF0
FF800000001FF0
FF800000001FF0
FF800000001FF0
FF800000001FF0
FF800000001FF0
FF800000001FF0
FF800000001FF0
FF800000001FF0
FF800000001FF0
FF800000001FF0
FF800000001FF0
FF800000001FF0
FF800000001FF0
FF800000001FF0
FF800000001FF0
FF800000001FF0
FF800000001FF0
FF800000001FF0
FF800000001FF0
FF800000001FF0
FF800000001FF0
FF800000001FF0
FF800000001FF0
FF800000001FF0
FF800000001FF0
FF800000001FF0
FF800000001FF0
FF800000001FF0
FF800000001FF0
FF800000001FF0
FF800000001FF0
FF800000001FF0
FF800000001FF0
FF800000001FF0
FF800000001FF0
FF800000001FF0
FF800000001FF0
FF800000001FF0
FF800000001FF0
FF800000001FF0
FF800000001FF0
FF800000001FF0
FF800000001FF0
FF800000001FF0
FF800000001FF0
FF800000001FF0
FF800000001FF0
FF800000001FF0
FF800000001FF0
FF800000001FF0
FF800000001FF0
FF800000001FF0
FF800000001FF0
FF800000001FF0
FF800000001FF0
FFC00000003FF0
FFC00000003FF0
FFF00000007FF0
7FFFFFFFFFFFE0
7FFFFFFFFFFFE0
7FFFFFFFFFFFE0
3FFFFFFFFFFFC0
3FFFFFFFFFFF80
1FFFFFFFFFFF80
0FFFFFFFFFFE00
03FFFFFFFFFC00
007FFFFFFFE000
ENDCHAR
STARTCHAR 00DD
ENCODING 221
SWIDTH 522 0
DWIDTH 69 0
BBX 68 109 1 1
BITMAP
00000000007FC00000
0000000000FF000000
0000000001FE000000
0000000003FC000000
0000000007F8000000
000000000FF0000000
000000001FC0000000
000000003F80000000
00000000FF00000000
00000001FE00000000
00000003FC00000000
00000007F000000000
0000000FE000000000
000000000000000000
000000000000000000
000000000000000000
000000000000000000
FFF000000000007FF0
7FF00000000000FFE0
7FF80000000000FFE0
3FF80000000001FFC0
3FFC0000000001FFC0
1FFC0000000003FF80
0FFE0000000003FF00
0FFF0000000007FF00
07FF000000000FFE00
07FF800000000FFE00
03FF800000001FFC00
03FFC00000001FFC00
01FFC00000003FF800
00FFE00000003FF800
00FFE00000007FF000
007FF00000007FE000
007FF8000000FFE000
003FF8000000FFC000
001FFC000001FFC000
001FFC000001FF8000
000FFE000003FF8000
000FFE000003FF0000
0007FF000007FF0000
0007FF00000FFE0000
0003FF80000FFC0000
0001FF80001FFC0000
0001FFC0001FF80000
0000FFE0003FF80000
0000FFE0003FF00000
00007FF0007FF00000
00007FF0007FE00000
00003FF800FFE00000
00001FF800FFC00000
00001FFC01FF800000
00000FFC01FF800000
00000FFE03FF000000
000007FE03FF000000
000007FF07FE000000
000003FF8FFE000000
000001FF8FFC000000
000001FFDFFC000000
000000FFDFF8000000
000000FFFFF0000000
0000007FFFF0000000
0000007FFFE0000000
0000003FFFE0000000
0000001FFFC0000000
0000001FFFC0000000
0000000FFF80000000
0000000FFF80000000
00000007FF00000000
00000003FE00000000
00000003FE00000000
00000003FE00000000
00000003FE00000000
00000003FE00000000
00000003FE00000000
00000003FE00000000
00000003FE00000000
00000003FE00000000
00000003FE00000000
00000003FE00000000
00000003FE00000000
00000003FE00000000
00000003FE00000000
00000003FE00000000
00000003FE00000000
00000003FE00000000
00000003FE00000000
00000003FE00000000
00000003FE00000000
00000003FE00000000
00000003FE00000000
00000003FE00000000
00000003FE00000000
00000003FE00000000
00000003FE00000000
00000003FE00000000
00000003FE00000000
00000003FE00000000
00000003FE00000000
00000003FE00000000
00000003FE00000000
00000003FE00000000
00000003FE00000000
00000003FE00000000
00000003FE00000000
00000003FE00000000
00000003FE00000000
00000003FE00000000
00000003FE00000000
00000003FE00000000
ENDCHAR
STARTCHAR 00DF
ENCODING 223
SWIDTH 484 0
DWIDTH 64 0
BBX 49 92 9 0
BITMAP
007FFFFFFF0000
03FFFFFFFFE000
07FFFFFFFFF800
0FFFFFFFFFFC00
1FFFFFFFFFFE00
3FFFFFFFFFFE00
7FFFFFFFFFFF00
7FFFFFFFFFFF00
7FF0000007FF80
FFE0000001FF80
FFC0000001FF80
FF80000000FF80
FF80000000FF80
FF80000000FF80
FF80000000FF80
FF80000000FF80
FF80000000FF80
FF80000000FF80
FF80000000FF80
FF80000000FF80
FF80000000FF80
FF80000001FF80
FF80000001FF80
FF80000003FF00
FF80000007FF00
FF8000001FFF00
FF8000003FFE00
FF8000007FFC00
FF800001FFF800
FF800003FFF000
FF800007FFE000
FF80001FFFC000
FF80003FFF0000
FF80007FFE0000
FF8000FFF80000
FF8001FFF00000
FF8003FFC00000
FF8003FF800000
FF8007FF000000
FF8007FE000000
FF800FFC000000
FF800FFC000000
FF800FF8000000
FF800FF8000000
FF800FF8000000
FF800FF8000000
FF800FF8000000
FF800FFC000000
FF800FFC000000
FF8007FE000000
FF8007FF000000
FF8007FF800000
FF8003FFC00000
FF8003FFF00000
FF8001FFF80000
FF8000FFFE0000
FF80007FFF0000
FF80001FFFC000
FF80000FFFE000
FF800007FFF800
FF800001FFFC00
FF800000FFFC00
FF8000003FFE00
FF8000001FFF00
FF80000007FF00
FF80000003FF00
FF80000001FF80
FF80000001FF80
FF80000000FF80
FF80000000FF80
FF80000000FF80
FF80000000FF80
FF80000000FF80
FF80000000FF80
FF80000000FF80
FF80000000FF80
FF80000000FF80
FF80000000FF80
FF80000000FF80
FF80000000FF80
FF80000000FF80
FF80000001FF80
FF80000001FF80
FF80000003FF00
FF800FFFFFFF00
FF800FFFFFFF00
FF800FFFFFFE00
FF800FFFFFFE00
FF800FFFFFFC00
FF800FFFFFF800
FF800FFFFFE000
FF800FFFFF0000
ENDCHAR
STARTCHAR 00E0
ENCODING 224
SWIDTH 462 0
DWIDTH 61 0
BBX 44 86 8 0
BITMAP
00FFFFFFF000
00FFFFFFF000
00FFFFFFF000
00FFFFFFF000
00FFFFFFF000
00FFFFFFF000
00FFFFFFF000
000000000000
000000000000
000000000000
000000000000
000000000000
000000000000
000000000000
000000000000
000000000000
000000000000
000000000000
000000000000
000000000000
FFFFFFFFE000
FFFFFFFFFC00
FFFFFFFFFE00
FFFFFFFFFF00
FFFFFFFFFF80
FFFFFFFFFFC0
FFFFFFFFFFE0
FFFFFFFFFFE0
00000000FFE0
000000003FF0
000000003FF0
000000001FF0
000000001FF0
000000001FF0
000000001FF0
000000001FF0
000000001FF0
000000001FF0
000000001FF0
000000001FF0
000000001FF0
000000001FF0
000000001FF0
000000001FF0
000000001FF0
007FFFFFFFF0
03FFFFFFFFF0
07FFFFFFFFF0
1FFFFFFFFFF0
1FFFFFFFFFF0
3FFFFFFFFFF0
7FFFFFFFFFF0
7FF000001FF0
7FE000001FF0
FFC000001FF0
FF8000001FF0
FF8000001FF0
FF8000001FF0
FF8000001FF0
FF8000001FF0
FF8000001FF0
FF8000001FF0
FF8000001FF0
FF8000001FF0
FF8000001FF0
FF8000001FF0
FF8000001FF0
FF8000001FF0
FF8000001FF0
FF8000001FF0
FF8000001FF0
FF8000001FF0
FF8000001FF0
FF8000001FF0
FF8000001FF0
FFC000001FF0
FFE000001FF0
7FF000001FF0
7FFFFFFFFFF0
7FFFFFFFFFF0
3FFFFFFFFFF0
1FFFFFFFFFF0
1FFFFFFFFFF0
07FFFFFFFFF0
03FFFFFFFFF0
007FFFFFFFF0
ENDCHAR
STARTCHAR 00E1
ENCODING 225
SWIDTH 462 0
DWIDTH 61 0
BBX 43 92 8 0
BITMAP
01F800003C00
01F800003C00
01F800003C00
01F800003C00
01F800003C00
01F800003C00
01F800003C00
01FC00003C00
01FC00007C00
01FE0000FC00
00FF8001F800
00FFFFFFF800
007FFFFFF000
007FFFFFF000
003FFFFFE000
000FFFFF8000
0003FFFE0000
000000000000
000000000000
000000000000
000000000000
000000000000
000000000000
000000000000
000000000000
000000000000
FFFFFFFFC000
FFFFFFFFF800
FFFFFFFFFC00
FFFFFFFFFF00
FFFFFFFFFF00
FFFFFFFFFF80
FFFFFFFFFFC0
FFFFFFFFFFC0
00000001FFC0
000000007FE0
000000007FE0
000000003FE0
000000003FE0
000000003FE0
000000003FE0
000000003FE0
000000003FE0
000000003FE0
000000003FE0
000000003FE0
000000003FE0
000000003FE0
000000003FE0
000000003FE0
000000003FE0
007FFFFFFFE0
03FFFFFFFFE0
0FFFFFFFFFE0
1FFFFFFFFFE0
1FFFFFFFFFE0
3FFFFFFFFFE0
7FFFFFFFFFE0
7FF000003FE0
7FE000003FE0
FFC000003FE0
FF8000003FE0
FF8000003FE0
FF8000003FE0
FF8000003FE0
FF8000003FE0
FF8000003FE0
FF8000003FE0
FF8000003FE0
FF8000003FE0
FF8000003FE0
FF8000003FE0
FF8000003FE0
FF8000003FE0
FF8000003FE0
FF8000003FE0
FF8000003FE0
FF8000003FE0
FF8000003FE0
FF8000003FE0
FF8000003FE0
FFC000003FE0
FFC000003FE0
7FF000003FE0
7FFFFFFFFFE0
7FFFFFFFFFE0
3FFFFFFFFFE0
1FFFFFFFFFE0
1FFFFFFFFFE0
07FFFFFFFFE0
03FFFFFFFFE0
007FFFFFFFE0
ENDCHAR
STARTCHAR 00E2
ENCODING 226
SWIDTH 462 0
DWIDTH 61 0
BBX 44 87 8 0
BITMAP
007F000FE000
007F000FE000
007F000FE000
007F000FE000
007F000FE000
007F000FE000
007F000FE000
007F000FE000
007F000FE000
000000000000
000000000000
000000000000
000000000000
000000000000
000000000000
000000000000
000000000000
000000000000
000000000000
000000000000
000000000000
FFFFFFFFE000
FFFFFFFFFC00
FFFFFFFFFE00
FFFFFFFFFF00
FFFFFFFFFF80
FFFFFFFFFFC0
FFFFFFFFFFE0
FFFFFFFFFFE0
00000000FFE0
000000003FF0
000000003FF0
000000001FF0
000000001FF0
000000001FF0
000000001FF0
000000001FF0
000000001FF0
000000001FF0
000000001FF0
000000001FF0
000000001FF0
000000001FF0
000000001FF0
000000001FF0
000000001FF0
007FFFFFFFF0
03FFFFFFFFF0
07FFFFFFFFF0
1FFFFFFFFFF0
1FFFFFFFFFF0
3FFFFFFFFFF0
7FFFFFFFFFF0
7FF000001FF0
7FE000001FF0
FFC000001FF0
FF8000001FF0
FF8000001FF0
FF8000001FF0
FF8000001FF0
FF8000001FF0
FF8000001FF0
FF8000001FF0
FF8000001FF0
FF8000001FF0
FF8000001FF0
FF8000001FF0
FF8000001FF0
FF8000001FF0
FF8000001FF0
FF8000001FF0
FF8000001FF0
FF8000001FF0
FF8000001FF0
FF8000001FF0
FF8000001FF0
FFC000001FF0
FFE000001FF0
7FF000001FF0
7FFFFFFFFFF0
7FFFFFFFFFF0
3FFFFFFFFFF0
1FFFFFFFFFF0
1FFFFFFFFFF0
07FFFFFFFFF0
03FFFFFFFFF0
007FFFFFFFF0
ENDCHAR
STARTCHAR 00E3
ENCODING 227
SWIDTH 500 0
DWIDTH 66 0
BBX 64 110 1 0
BITMAP
0000000003FE0000
0000000007FC0000
000000000FF00000
000000001FE00000
000000003FC00000
000000007F800000
00000001FE000000
00000003FC000000
00000007F8000000
0000000FF0000000
0000001FE0000000
0000003F80000000
0000007F00000000
000000FE00000000
0000000000000000
0000000000000000
0000000000000000
0000003FFC000000
0000007FFE000000
0000007FFE000000
0000007FFE000000
0000007FFE000000
000000FFFF000000
000000FFFF000000
000000FFFF000000
000001FFFF800000
000001FFFF800000
000001FFFF800000
000001FFFF800000
000003FEFFC00000
000003FEFFC00000
000003FEFFC00000
000003FC7FC00000
000007FC7FE00000
000007FC7FE00000
000007FC3FE00000
00000FF83FF00000
00000FF83FF00000
00000FF83FF00000
00000FF81FF00000
00001FF01FF80000
00001FF01FF80000
00001FF01FF80000
00003FF00FFC0000
00003FE00FFC0000
00003FE00FFC0000
00003FE007FC0000
00007FC007FE0000
00007FC007FE0000
00007FC007FE0000
00007FC003FE0000
0000FF8003FF0000
0000FF8003FF0000
0000FF8003FF0000
0001FF8001FF8000
0001FF0001FF8000
0001FF0001FF8000
0001FF0001FF8000
0003FF0000FFC000
0003FE0000FFC000
0003FE0000FFC000
0007FE00007FE000
0007FC00007FE000
0007FC00007FE000
0007FC00007FE000
000FFC00003FF000
000FF800003FF000
000FF800003FF000
000FF800003FF000
001FF800001FF800
001FF000001FF800
001FF000001FF800
003FF000000FFC00
003FF000000FFC00
003FE000000FFC00
003FE000000FFC00
007FE0000007FE00
007FE0000007FE00
007FC0000007FE00
00FFFFFFFFFFFF00
00FFFFFFFFFFFF00
00FFFFFFFFFFFF00
00FFFFFFFFFFFF00
01FFFFFFFFFFFF80
01FFFFFFFFFFFF80
01FFFFFFFFFFFF80
01FF80000001FF80
03FF00000001FFC0
03FF00000001FFC0
03FF00000000FFC0
07FF00000000FFE0
07FE00000000FFE0
07FE00000000FFE0
07FE000000007FE0
0FFE000000007FF0
0FFC000000007FF0
0FFC000000007FF0
1FFC000000003FF8
1FFC000000003FF8
1FF8000000003FF8
1FF8000000001FF8
3FF8000000001FFC
3FF8000000001FFC
3FF0000000001FFC
3FF0000000000FFC
7FF0000000000FFE
7FE0000000000FFE
7FE0000000000FFE
FFE00000000007FF
FFE00000000007FF
ENDCHAR
STARTCHAR 00E4
ENCODING 228
SWIDTH 462 0
DWIDTH 61 0
BBX 44 92 8 1
BITMAP
01FF80000000
00FF80000000
007FC0000000
003FE0000000
001FF0000000
000FF8000000
0007F8000000
0003FC000000
0003FE000000
0001FF000000
0000FF000000
00007F800000
00003FC00000
00001FE00000
00000FE00000
000007F00000
000007F80000
000003FC0000
000000000000
000000000000
000000000000
000000000000
000000000000
000000000000
000000000000
000000000000
FFFFFFFFE000
FFFFFFFFFC00
FFFFFFFFFE00
FFFFFFFFFF00
FFFFFFFFFF80
FFFFFFFFFFC0
FFFFFFFFFFE0
FFFFFFFFFFE0
00000000FFE0
000000003FF0
000000003FF0
000000001FF0
000000001FF0
000000001FF0
000000001FF0
000000001FF0
000000001FF0
000000001FF0
000000001FF0
000000001FF0
000000001FF0
000000001FF0
000000001FF0
000000001FF0
000000001FF0
007FFFFFFFF0
03FFFFFFFFF0
07FFFFFFFFF0
1FFFFFFFFFF0
1FFFFFFFFFF0
3FFFFFFFFFF0
7FFFFFFFFFF0
7FF000001FF0
7FE000001FF0
FFC000001FF0
FF8000001FF0
FF8000001FF0
FF8000001FF0
FF8000001FF0
FF8000001FF0
FF8000001FF0
FF8000001FF0
FF8000001FF0
FF8000001FF0
FF8000001FF0
FF8000001FF0
FF8000001FF0
FF8000001FF0
FF8000001FF0
FF8000001FF0
FF8000001FF0
FF8000001FF0
FF8000001FF0
FF8000001FF0
FF8000001FF0
FFC000001FF0
FFE000001FF0
7FF000001FF0
7FFFFFFFFFF0
7FFFFFFFFFF0
3FFFFFFFFFF0
1FFFFFFFFFF0
1FFFFFFFFFF0
07FFFFFFFFF0
03FFFFFFFFF0
007FFFFFFFF0
ENDCHAR
STARTCHAR 00E5
ENCODING 229
SWIDTH 462 0
DWIDTH 61 0
BBX 42 92 8 0
BITMAP
00FC000007C0
07FF800007C0
0FFFC00007C0
1FFFF00007C0
3FFFF80007C0
3FFFFC0007C0
7FFFFE0007C0
7FF0FF800FC0
7FE03FC00FC0
FFC01FE01FC0
FFC00FF83F80
FFC007FFFF80
FF8001FFFF80
FF8000FFFF00
FF80007FFF00
FF80003FFE00
FF80001FFC00
FF800007F000
000000000000
000000000000
000000000000
000000000000
000000000000
000000000000
000000000000
000000000000
FFFFFFFF8000
FFFFFFFFF000
FFFFFFFFFC00
FFFFFFFFFE00
FFFFFFFFFF00
FFFFFFFFFF00
FFFFFFFFFF80
FFFFFFFFFF80
000000003F80
000000001FC0
000000000FC0
0000000007C0
0000000007C0
0000000007C0
0000000007C0
0000000007C0
0000000007C0
0000000007C0
0000000007C0
0000000007C0
0000000007C0
0000000007C0
0000000007C0
0000000007C0
0000000007C0
007FFFFFFFC0
03FFFFFFFFC0
07FFFFFFFFC0
0FFFFFFFFFC0
1FFFFFFFFFC0
3FFFFFFFFFC0
7FFFFFFFFFC0
7FF8000007C0
7FE0000007C0
FFC0000007C0
FFC0000007C0
FF80000007C0
FF80000007C0
FF80000007C0
FF80000007C0
FF80000007C0
FF80000007C0
FF80000007C0
FF80000007C0
FF80000007C0
FF80000007C0
FF80000007C0
FF80000007C0
FF80000007C0
FF80000007C0
FF80000007C0
FF80000007C0
FF80000007C0
FF80000007C0
FF80000007C0
FFC0000007C0
FFE0000007C0
7FF0000007C0
7FFFFFFFFFC0
7FFFFFFFFFC0
3FFFFFFFFFC0
3FFFFFFFFFC0
1FFFFFFFFFC0
0FFFFFFFFFC0
03FFFFFFFFC0
007FFFFFFFC0
ENDCHAR
STARTCHAR 00E6
ENCODING 230
SWIDTH 712 0
DWIDTH 94 0
BBX 78 66 8 0
BITMAP
FFFFFFFF8003FFFFF800
FFFFFFFFF00FFFFFFF00
FFFFFFFFF83FFFFFFFC0
FFFFFFFFFC7FFFFFFFE0
FFFFFFFFFE7FFFFFFFE0
FFFFFFFFFFFFFFFFFFF0
FFFFFFFFFFFFFFFFFFF8
FFFFFFFFFFFFFFFFFFF8
00000000FFFE00003FF8
000000003FF800000FFC
000000003FF800000FFC
000000001FF0000007FC
000000001FF0000007FC
000000001FF0000007FC
000000001FF0000007FC
000000001FF0000007FC
000000001FF0000007FC
000000001FF0000007FC
000000001FF0000007FC
000000001FF0000007FC
000000001FF0000007FC
000000001FF0000007FC
000000001FF0000007FC
000000001FF0000007FC
000000001FF0000007FC
007FFFFFFFFFFFFFFFFC
03FFFFFFFFFFFFFFFFFC
07FFFFFFFFFFFFFFFFFC
1FFFFFFFFFFFFFFFFFFC
1FFFFFFFFFFFFFFFFFFC
3FFFFFFFFFFFFFFFFFFC
7FFFFFFFFFFFFFFFFFFC
7FF000001FF000000000
7FE000001FF000000000
FFC000001FF000000000
FF8000001FF000000000
FF8000001FF000000000
FF8000001FF000000000
FF8000001FF000000000
FF8000001FF000000000
FF8000001FF000000000
FF8000001FF000000000
FF8000001FF000000000
FF8000001FF000000000
FF8000001FF000000000
FF8000001FF000000000
FF8000001FF000000000
FF8000001FF000000000
FF8000001FF000000000
FF8000001FF000000000
FF8000001FF000000000
FF8000001FF000000000
FF8000001FF000000000
FF8000001FF000000000
FF8000001FF000000000
FFC000003FF800000000
FFE000003FF800000000
7FF00000FFFE00000000
7FFFFFFFFFFFFFFFFFFC
7FFFFFFFFFFFFFFFFFFC
3FFFFFFFFFFFFFFFFFFC
1FFFFFFFFE7FFFFFFFFC
1FFFFFFFFC7FFFFFFFFC
07FFFFFFF83FFFFFFFFC
03FFFFFFF00FFFFFFFFC
007FFFFFC003FFFFFFFC
ENDCHAR
STARTCHAR 00E7
ENCODING 231
SWIDTH 386 0
DWIDTH 51 0
BBX 36 92 9 1
BITMAP
0000FF0000
0000FF8000
0001FF8000
0003FFC000
0003FFE000
0007FFE000
000FE7F000
000FE7F800
001FC3F800
001F81FC00
003F80FE00
007F00FE00
007E007F00
00FC003F80
01FC001F80
01F8001FC0
03F0000FE0
07F00007E0
0000000000
0000000000
0000000000
0000000000
0000000000
0000000000
0000000000
0000000000
007FFFFFF0
03FFFFFFF0
0FFFFFFFF0
1FFFFFFFF0
3FFFFFFFF0
3FFFFFFFF0
7FFFFFFFF0
7FFFFFFFF0
7FF0000010
FFE0000000
FFC0000000
FF80000000
FF80000000
FF80000000
FF80000000
FF80000000
FF80000000
FF80000000
FF80000000
FF80000000
FF80000000
FF80000000
FF80000000
FF80000000
FF80000000
FF80000000
FF80000000
FF80000000
FF80000000
FF80000000
FF80000000
FF80000000
FF80000000
FF80000000
FF80000000
FF80000000
FF80000000
FF80000000
FF80000000
FF80000000
FF80000000
FF80000000
FF80000000
FF80000000
FF80000000
FF80000000
FF80000000
FF80000000
FF80000000
FF80000000
FF80000000
FF80000000
FF80000000
FF80000000
FF80000000
FFC0000000
FFE0000000
7FF0000000
7FFFFFFFF0
7FFFFFFFF0
3FFFFFFFF0
3FFFFFFFF0
1FFFFFFFF0
0FFFFFFFF0
03FFFFFFF0
00FFFFFFF0
ENDCHAR
STARTCHAR 00E8
ENCODING 232
SWIDTH 454 0
DWIDTH 60 0
BBX 43 92 9 1
BITMAP
00FF80000000
007FC0000000
003FC0000000
003FE0000000
001FF0000000
000FF8000000
0007F8000000
0003FC000000
0001FE000000
0000FF000000
0000FF000000
00007F800000
00003FC00000
00001FE00000
00000FE00000
000007F00000
000003F80000
000003FC0000
000000000000
000000000000
000000000000
000000000000
000000000000
000000000000
000000000000
000000000000
007FFFFFC000
03FFFFFFF800
07FFFFFFFC00
0FFFFFFFFF00
1FFFFFFFFF00
3FFFFFFFFF80
7FFFFFFFFFC0
7FFFFFFFFFC0
7FE00000FFC0
FFC000007FE0
FFC000007FE0
FF8000003FE0
FF8000003FE0
FF8000003FE0
FF8000003FE0
FF8000003FE0
FF8000003FE0
FF8000003FE0
FF8000003FE0
FF8000003FE0
FF8000003FE0
FF8000003FE0
FF8000003FE0
FF8000003FE0
FF8000003FE0
FFFFFFFFFFE0
FFFFFFFFFFE0
FFFFFFFFFFE0
FFFFFFFFFFE0
FFFFFFFFFFE0
FFFFFFFFFFE0
FFFFFFFFFFE0
FF8000000000
FF8000000000
FF8000000000
FF8000000000
FF8000000000
FF8000000000
FF8000000000
FF8000000000
FF8000000000
FF8000000000
FF8000000000
FF8000000000
FF8000000000
FF8000000000
FF8000000000
FF8000000000
FF8000000000
FF8000000000
FF8000000000
FF8000000000
FF8000000000
FF8000000000
FF8000000000
FFC000000000
FFE000000000
7FF000000000
7FFFFFFFFFE0
7FFFFFFFFFE0
3FFFFFFFFFE0
1FFFFFFFFFE0
0FFFFFFFFFE0
07FFFFFFFFE0
03FFFFFFFFE0
007FFFFFFFE0
ENDCHAR
STARTCHAR 00E9
ENCODING 233
SWIDTH 454 0
DWIDTH 60 0
BBX 43 92 9 1
BITMAP
0000000FFC00
0000001FF800
0000003FF000
0000007FE000
0000007FC000
000000FF8000
000001FF0000
000003FE0000
000003FC0000
000007F80000
00000FF00000
00001FF00000
00001FE00000
00003FC00000
00007F800000
0000FF000000
0000FE000000
0001FC000000
000000000000
000000000000
000000000000
000000000000
000000000000
000000000000
000000000000
000000000000
007FFFFFC000
03FFFFFFF800
07FFFFFFFC00
0FFFFFFFFF00
1FFFFFFFFF00
3FFFFFFFFF80
7FFFFFFFFFC0
7FFFFFFFFFC0
7FE00000FFC0
FFC000007FE0
FFC000007FE0
FF8000003FE0
FF8000003FE0
FF8000003FE0
FF8000003FE0
FF8000003FE0
FF8000003FE0
FF8000003FE0
FF8000003FE0
FF8000003FE0
FF8000003FE0
FF8000003FE0
FF8000003FE0
FF8000003FE0
FF8000003FE0
FFFFFFFFFFE0
FFFFFFFFFFE0
FFFFFFFFFFE0
FFFFFFFFFFE0
FFFFFFFFFFE0
FFFFFFFFFFE0
FFFFFFFFFFE0
FF8000000000
FF8000000000
FF8000000000
FF8000000000
FF8000000000
FF8000000000
FF8000000000
FF8000000000
FF8000000000
FF8000000000
FF8000000000
FF8000000000
FF8000000000
FF8000000000
FF8000000000
FF8000000000
FF8000000000
FF8000000000
FF8000000000
FF8000000000
FF8000000000
FF8000000000
FF8000000000
FFC000000000
FFE000000000
7FF000000000
7FFFFFFFFFE0
7FFFFFFFFFE0
3FFFFFFFFFE0
1FFFFFFFFFE0
0FFFFFFFFFE0
07FFFFFFFFE0
03FFFFFFFFE0
007FFFFFFFE0
ENDCHAR
STARTCHAR 00EA
ENCODING 234
SWIDTH 454 0
DWIDTH 60 0
BBX 40 92 9 1
BITMAP
00007FC000
00007FE000
0000FFE000
0001FFF000
0001FFF800
0003FFF800
0007FBFC00
0007F1FE00
000FE0FF00
001FC07F00
003FC07F80
003F803FC0
007F001FC0
00FE000FE0
00FE000FF0
01FC0007F8
03F80003F8
03F00001FC
0000000000
0000000000
0000000000
0000000000
0000000000
0000000000
0000000000
0000000000
007FFFFF00
03FFFFFFC0
0FFFFFFFF0
1FFFFFFFF8
3FFFFFFFFC
3FFFFFFFFC
7FFFFFFFFE
7FFFFFFFFE
7FE00000FE
FFC000007F
FFC000007F
FF8000003F
FF8000003F
FF8000003F
FF8000003F
FF8000003F
FF8000003F
FF8000003F
FF8000003F
FF8000003F
FF8000003F
FF8000003F
FF8000003F
FF8000003F
FF8000003F
FFFFFFFFFF
FFFFFFFFFF
FFFFFFFFFF
FFFFFFFFFF
FFFFFFFFFF
FFFFFFFFFF
FFFFFFFFFF
FF80000000
FF80000000
FF80000000
FF80000000
FF80000000
FF80000000
FF80000000
FF80000000
FF80000000
FF80000000
FF80000000
FF80000000
FF80000000
FF80000000
FF80000000
FF80000000
FF80000000
FF80000000
FF80000000
FF80000000
FF80000000
FF80000000
FF80000000
FFC0000000
FFC0000000
7FF0000000
7FFFFFFFFF
7FFFFFFFFF
3FFFFFFFFF
1FFFFFFFFF
1FFFFFFFFF
0FFFFFFFFF
03FFFFFFFF
007FFFFFFF
ENDCHAR
STARTCHAR 00EB
ENCODING 235
SWIDTH 454 0
DWIDTH 60 0
BBX 43 87 9 0
BITMAP
007F000FE000
007F000FE000
007F000FE000
007F000FE000
007F000FE000
007F000FE000
007F000FE000
007F000FE000
007F000FE000
000000000000
000000000000
000000000000
000000000000
000000000000
000000000000
000000000000
000000000000
000000000000
000000000000
000000000000
000000000000
007FFFFFC000
03FFFFFFF800
07FFFFFFFC00
0FFFFFFFFF00
1FFFFFFFFF00
3FFFFFFFFF80
7FFFFFFFFFC0
7FFFFFFFFFC0
7FE00000FFC0
FFC000007FE0
FFC000007FE0
FF8000003FE0
FF8000003FE0
FF8000003FE0
FF8000003FE0
FF8000003FE0
FF8000003FE0
FF8000003FE0
FF8000003FE0
FF8000003FE0
FF8000003FE0
FF8000003FE0
FF8000003FE0
FF8000003FE0
FF8000003FE0
FFFFFFFFFFE0
FFFFFFFFFFE0
FFFFFFFFFFE0
FFFFFFFFFFE0
FFFFFFFFFFE0
FFFFFFFFFFE0
FFFFFFFFFFE0
FF8000000000
FF8000000000
FF8000000000
FF8000000000
FF8000000000
FF8000000000
FF8000000000
FF8000000000
FF8000000000
FF8000000000
FF8000000000
FF8000000000
FF8000000000
FF8000000000
FF8000000000
FF8000000000
FF8000000000
FF8000000000
FF8000000000
FF8000000000
FF8000000000
FF8000000000
FF8000000000
FFC000000000
FFE000000000
7FF000000000
7FFFFFFFFFE0
7FFFFFFFFFE0
3FFFFFFFFFE0
1FFFFFFFFFE0
0FFFFFFFFFE0
07FFFFFFFFE0
03FFFFFFFFE0
007FFFFFFFE0
ENDCHAR
STARTCHAR 00EC
ENCODING 236
SWIDTH 204 0
DWIDTH 27 0
BBX 25 92 -5 1
BITMAP
FF800000
7FC00000
3FE00000
1FF00000
0FF80000
07FC0000
03FE0000
01FF0000
00FF8000
007FC000
003FE000
001FE000
001FF000
000FF800
0007FC00
0003FE00
0001FF00
0000FF80
00000000
00000000
00000000
00000000
00000000
00000000
00000000
00000000
001FFE00
001FFE00
001FFE00
001FFE00
001FFE00
001FFE00
001FFE00
001FFE00
001FFE00
001FFE00
001FFE00
001FFE00
001FFE00
001FFE00
001FFE00
001FFE00
001FFE00
001FFE00
001FFE00
001FFE00
001FFE00
001FFE00
001FFE00
001FFE00
001FFE00
001FFE00
001FFE00
001FFE00
001FFE00
001FFE00
001FFE00
001FFE00
001FFE00
001FFE00
001FFE00
001FFE00
001FFE00
001FFE00
001FFE00
001FFE00
001FFE00
001FFE00
001FFE00
001FFE00
001FFE00
001FFE00
001FFE00
001FFE00
001FFE00
001FFE00
001FFE00
001FFE00
001FFE00
001FFE00
001FFE00
001FFE00
001FFE00
001FFE00
001FFE00
001FFE00
001FFE00
001FFE00
001FFE00
001FFE00
001FFE00
001FFE00
ENDCHAR
STARTCHAR 00ED
ENCODING 237
SWIDTH 204 0
DWIDTH 27 0
BBX 22 92 6 1
BITMAP
0007FC
000FF8
001FF0
001FE0
003FE0
007FC0
007F80
00FF00
01FE00
03FC00
03F800
07F800
0FF000
1FE000
1FC000
3F8000
7F0000
FE0000
000000
000000
000000
000000
000000
000000
000000
000000
1FF000
1FF000
1FF000
1FF000
1FF000
1FF000
1FF000
1FF000
1FF000
1FF000
1FF000
1FF000
1FF000
1FF000
1FF000
1FF000
1FF000
1FF000
1FF000
1FF000
1FF000
1FF000
1FF000
1FF000
1FF000
1FF000
1FF000
1FF000
1FF000
1FF000
1FF000
1FF000
1FF000
1FF000
1FF000
1FF000
1FF000
1FF000
1FF000
1FF000
1FF000
1FF000
1FF000
1FF000
1FF000
1FF000
1FF000
1FF000
1FF000
1FF000
1FF000
1FF000
1FF000
1FF000
1FF000
1FF000
1FF000
1FF000
1FF000
1FF000
1FF000
1FF000
1FF000
1FF000
1FF000
1FF000
ENDCHAR
STARTCHAR 00EE
ENCODING 238
SWIDTH 204 0
DWIDTH 27 0
BBX 33 92 -3 1
BITMAP
000FF80000
000FF80000
001FFC0000
003FFE0000
007FFE0000
007FFF0000
00FF7F8000
01FE3FC000
01FC1FC000
03F81FE000
07F80FF000
07F007F000
0FE003F800
1FC003FC00
3F8001FE00
3F8000FE00
7F00007F00
FE00003F80
0000000000
0000000000
0000000000
0000000000
0000000000
0000000000
0000000000
0000000000
000FF80000
000FF80000
000FF80000
000FF80000
000FF80000
000FF80000
000FF80000
000FF80000
000FF80000
000FF80000
000FF80000
000FF80000
000FF80000
000FF80000
000FF80000
000FF80000
000FF80000
000FF80000
000FF80000
000FF80000
000FF80000
000FF80000
000FF80000
000FF80000
000FF80000
000FF80000
000FF80000
000FF80000
000FF80000
000FF80000
000FF80000
000FF80000
000FF80000
000FF80000
000FF80000
000FF80000
000FF80000
000FF80000
000FF80000
000FF80000
000FF80000
000FF80000
000FF80000
000FF80000
000FF80000
000FF80000
000FF80000
000FF80000
000FF80000
000FF80000
000FF80000
000FF80000
000FF80000
000FF80000
000FF80000
000FF80000
000FF80000
000FF80000
000FF80000
000FF80000
000FF80000
000FF80000
000FF80000
000FF80000
000FF80000
000FF80000
ENDCHAR
STARTCHAR 00EF
ENCODING 239
SWIDTH 204 0
DWIDTH 27 0
BBX 25 87 1 0
BITMAP
FE003F80
FE003F80
FE003F80
FE003F80
FE003F80
FE003F80
FE003F80
FE003F80
FE003F80
00000000
00000000
00000000
00000000
00000000
00000000
00000000
00000000
00000000
00000000
00000000
00000000
00FF8000
00FF8000
00FF8000
00FF8000
00FF8000
00FF8000
00FF8000
00FF8000
00FF8000
00FF8000
00FF8000
00FF8000
00FF8000
00FF8000
00FF8000
00FF8000
00FF8000
00FF8000
00FF8000
00FF8000
00FF8000
00FF8000
00FF8000
00FF8000
00FF8000
00FF8000
00FF8000
00FF8000
00FF8000
00FF8000
00FF8000
00FF8000
00FF8000
00FF8000
00FF8000
00FF8000
00FF8000
00FF8000
00FF8000
00FF8000
00FF8000
00FF8000
00FF8000
00FF8000
00FF8000
00FF8000
00FF8000
00FF8000
00FF8000
00FF8000
00FF8000
00FF8000
00FF8000
00FF8000
00FF8000
00FF8000
00FF8000
00FF8000
00FF8000
00FF8000
00FF8000
00FF8000
00FF8000
00FF8000
00FF8000
00FF8000
ENDCHAR
ENDFONT
